<svg width="52" height="193" viewBox="0 0 52 193" fill="none" xmlns="http://www.w3.org/2000/svg">
<path d="M47.5485 3.914L46.8485 3.41C46.3725 3.06 46.2465 2.724 46.2465 2.346C46.2465 1.772 46.7085 1.38 47.2125 1.38C47.5765 1.38 47.8425 1.534 48.0665 1.688C48.2765 2.066 48.3885 2.486 48.3885 2.92C48.3885 4.208 47.4505 5.37 46.1345 5.944L45.9525 5.608C46.7505 5.132 47.2405 4.67 47.5485 3.914ZM50.6425 3.914L49.9425 3.41C49.4665 3.06 49.3405 2.724 49.3405 2.346C49.3405 1.772 49.8025 1.38 50.3205 1.38C50.6705 1.38 50.9365 1.534 51.1605 1.688C51.3845 2.066 51.4825 2.486 51.4825 2.92C51.4825 4.208 50.5445 5.37 49.2285 5.944L49.0465 5.608C49.8445 5.132 50.3345 4.67 50.6425 3.914Z" fill="white"/>
<path d="M11.408 15.52V17.536H12.092V15.52H11.408ZM14.012 15.52H13.34V17.536H14.012V15.52ZM13.34 17.872V18.724C16.46 19.456 15.236 21.64 14.096 20.704C14.024 20.14 13.688 19.468 13.34 18.976V22.612C13.34 22.756 12.8 23.068 12.332 23.068H12.092V20.116C11.48 20.908 10.736 21.604 9.86 22.18L9.728 22.024C10.772 20.932 11.516 19.372 11.948 17.872H11.408V18.28C11.408 18.376 10.928 18.616 10.472 18.616H10.316V14.704L11.468 15.172H12.092V14.044H10.088L9.992 13.708H12.092V11.884L13.772 12.064C13.748 12.244 13.664 12.352 13.34 12.4V13.708H13.76L14.456 12.724C14.456 12.724 15.248 13.396 15.716 13.852C15.68 13.984 15.548 14.044 15.38 14.044H13.34V15.172H13.904L14.432 14.596L15.596 15.46C15.536 15.544 15.368 15.64 15.164 15.676V18.076C15.152 18.148 14.564 18.376 14.192 18.376H14.012V17.872H13.34ZM18.188 20.632L18.284 20.548C22.076 20.98 21.248 23.668 19.868 22.912C19.568 22.12 18.812 21.208 18.188 20.632ZM19.088 14.788H17.012V16.192H19.088V14.788ZM17.012 19.84H19.088V18.352H17.012V19.84ZM17.012 16.54V18.004H19.088V16.54H17.012ZM19.052 12.82L19.82 11.824C19.82 11.824 20.684 12.508 21.212 12.976C21.176 13.108 21.044 13.168 20.876 13.168H18.74C18.38 13.624 17.948 14.116 17.576 14.452H18.98L19.592 13.804L20.816 14.74C20.744 14.824 20.6 14.92 20.384 14.956V20.26C20.372 20.356 19.76 20.608 19.316 20.608H19.088V20.176H17.012V20.38C17.012 20.416 16.964 20.464 16.892 20.524L18.296 21.316C18.236 21.424 18.104 21.448 17.9 21.388C17.144 22.072 15.62 22.768 14.312 23.056L14.216 22.9C15.152 22.348 16.148 21.4 16.688 20.632C16.484 20.728 16.22 20.8 15.944 20.8H15.74V13.9L17.072 14.452H17.204C17.228 14.104 17.264 13.6 17.288 13.168H15.248L15.152 12.82H19.052ZM12.764 32.472L11.816 33.936C12.056 34.176 12.332 34.428 12.452 34.536C12.62 34.68 12.716 34.644 12.728 34.416C12.74 33.996 12.74 33.264 12.764 32.472ZM21.308 33.624L21.428 33.756C20.996 34.656 20.12 35.7 18.776 35.7C17.804 35.7 17.228 35.16 17.228 33.888C17.228 32.436 17.684 31.152 17.684 29.844C17.684 29.1 17.516 28.704 16.928 28.704C15.908 28.704 14.636 29.712 13.676 30.972C13.652 31.128 13.64 31.272 13.628 31.404C13.568 32.352 13.652 33.552 13.736 34.296C13.784 34.8 13.868 35.112 13.868 35.46C13.868 36.168 13.508 36.732 13.052 36.732C12.62 36.732 12.464 36.504 12.404 36.168C12.344 35.832 12.284 35.532 12.14 35.172C12.044 34.908 11.852 34.548 11.636 34.212L11.276 34.764C11.06 35.112 10.868 35.4 10.568 35.412C10.304 35.424 10.028 35.16 10.028 34.728C10.028 34.38 10.136 34.116 10.388 33.852C10.952 33.288 12.044 31.968 12.872 30.732C12.884 30.516 12.908 30.288 12.932 30.072C12.62 30.252 12.32 30.444 12.152 30.552C11.9 30.72 11.78 31.08 11.528 31.08C10.988 31.08 10.328 30.432 10.172 29.94C10.112 29.736 10.148 29.448 10.16 29.244L10.328 29.184C10.532 29.484 10.724 29.712 11.012 29.712C11.372 29.712 12.404 29.232 13.052 28.896C13.112 28.248 13.172 27.696 13.172 27.432C13.172 27.168 13.136 27.096 12.92 26.976C12.74 26.868 12.5 26.772 12.176 26.676L12.164 26.472C12.488 26.328 12.788 26.244 13.136 26.244C13.808 26.244 14.636 26.952 14.636 27.408C14.636 27.684 14.468 27.864 14.324 28.248C14.264 28.392 14.204 28.572 14.132 28.8C14.348 28.968 14.564 29.22 14.564 29.328C14.564 29.376 14.552 29.412 14.54 29.448C15.38 28.764 16.424 28.116 17.348 28.116C18.548 28.116 18.992 28.8 18.992 30.012C18.992 31.14 18.548 32.328 18.548 33.588C18.548 34.212 18.764 34.44 19.292 34.44C20.012 34.44 20.6 34.176 21.308 33.624ZM15.152 47.252C15.716 47.252 15.908 46.904 15.908 46.22C15.908 45.632 15.692 45.152 15.188 45.152C14.624 45.152 14.228 45.62 14.228 46.256C14.228 46.784 14.6 47.252 15.152 47.252ZM14.468 40.964L14.456 40.796C14.732 40.592 15.14 40.352 15.548 40.352C16.232 40.352 17.108 40.664 17.108 41.06C17.108 41.384 16.892 41.648 16.868 41.936C16.856 42.044 16.844 42.224 16.832 42.44C19.052 42.188 19.28 42.032 19.46 42.032C20.108 42.032 20.924 42.38 20.924 42.944C20.924 43.352 20.684 43.424 20.312 43.424C19.772 43.424 19.016 43.076 16.808 43.268C16.796 43.856 16.796 44.528 16.796 45.128C17.156 45.548 17.3 46.136 17.3 46.76C17.3 49.256 15.26 50.54 12.62 50.9L12.512 50.672C13.988 50.156 15.212 49.388 15.68 48.26C14.468 48.596 13.592 47.588 13.592 46.376C13.592 45.32 14.336 44.516 15.32 44.516C15.5 44.516 15.668 44.528 15.824 44.564C15.8 44.252 15.776 43.82 15.752 43.376C14.528 43.532 13.532 43.772 12.956 43.94C12.392 44.108 12.14 44.36 11.72 44.36C11.24 44.36 10.544 43.724 10.412 43.244C10.34 42.968 10.34 42.644 10.34 42.38L10.532 42.296C10.952 42.8 11.144 42.992 11.564 42.992C12.092 43.016 14.336 42.728 15.692 42.572C15.656 42.164 15.62 41.78 15.584 41.54C15.548 41.336 15.488 41.252 15.296 41.168C15.092 41.072 14.804 41.012 14.468 40.964ZM16.604 58.096L16.664 58.072C17.948 57.652 18.248 57.352 18.368 57.34C18.836 57.292 19.4 57.388 19.4 57.868C19.4 58.036 19.328 58.24 19.04 58.42C18.62 58.684 17.984 58.948 17.228 59.176C18.128 60.556 18.848 60.856 18.848 61.348C18.848 61.936 18.5 62.476 18.104 62.476C17.72 62.476 17.528 62.188 16.82 61.792C16.4 61.54 15.524 61.228 14.576 61.228C13.364 61.228 12.644 61.756 12.644 62.428C12.644 63.292 13.808 63.508 14.792 63.508C15.884 63.508 15.98 63.352 16.676 63.352C17.192 63.352 17.648 63.532 17.648 63.988C17.648 64.612 16.4 64.792 15.104 64.792C13.196 64.792 11.708 64.06 11.708 62.74C11.708 61.672 12.812 60.7 14.972 60.7C15.824 60.7 16.676 60.844 17.132 60.952C17.276 60.988 17.288 60.94 17.228 60.844C17.048 60.556 16.7 60.076 16.304 59.428C15.356 59.644 14.288 59.788 13.256 59.788C11.612 59.788 10.892 58.552 12.392 57.556L12.548 57.676C12.044 58.324 12.236 58.72 13.268 58.72C14.024 58.72 14.852 58.6 15.728 58.36C15.548 58 15.356 57.592 15.176 57.172C14.564 57.292 13.916 57.376 13.316 57.376C12.152 57.376 11.6 57.076 11.096 55.936L11.228 55.828C11.9 56.26 12.248 56.404 13.064 56.404C13.508 56.404 14.156 56.296 14.756 56.164C14.672 55.96 14.6 55.768 14.528 55.588C14.396 55.276 14.3 55.144 13.94 55.06C13.736 55.024 13.412 54.976 13.148 54.952L13.1 54.796C13.46 54.472 13.868 54.244 14.372 54.244C15.044 54.244 15.524 54.376 15.596 54.844C15.632 55.084 15.68 55.504 15.764 55.888C16.76 55.576 17.12 55.18 17.252 55.18C17.732 55.18 18.272 55.252 18.272 55.684C18.272 55.852 18.176 56.044 17.924 56.212C17.576 56.452 16.904 56.728 16.1 56.956C16.244 57.352 16.4 57.7 16.604 58.096ZM18.044 54.712L18.152 54.544C18.824 54.736 19.388 54.964 19.76 55.312C20.012 55.54 20.108 55.756 20.096 55.984C20.096 56.236 19.916 56.416 19.652 56.416C19.46 56.416 19.292 56.248 19.1 55.96C18.884 55.636 18.596 55.192 18.044 54.712ZM19.148 54.028L19.244 53.872C19.94 54.016 20.48 54.208 20.816 54.448C21.128 54.688 21.236 54.928 21.236 55.192C21.236 55.456 21.092 55.624 20.84 55.624C20.612 55.624 20.468 55.432 20.24 55.144C20.024 54.856 19.772 54.52 19.148 54.028ZM15.188 77.484C15.392 77.484 15.584 77.472 15.764 77.46C15.62 76.668 15.14 76.152 14.48 76.152C14.024 76.152 13.736 76.38 13.736 76.752C13.736 77.208 14.288 77.484 15.188 77.484ZM12.5 68.928L12.668 68.916C12.872 69.3 13.172 69.66 13.484 69.66C13.916 69.66 15.164 69.36 15.812 69.144C16.292 68.988 16.292 68.808 16.544 68.808C17.12 68.808 18.08 69.576 18.08 70.092C18.08 70.44 17.648 70.536 17.252 70.812C16.46 71.328 14.984 72.588 14.528 73.056C14.396 73.188 14.468 73.272 14.588 73.236C14.996 73.116 15.668 72.84 16.604 72.84C18.224 72.84 19.58 73.848 19.556 75.648C19.556 77.268 18.116 78.552 15.644 78.552C14.24 78.552 13.196 77.94 13.196 76.896C13.196 76.092 13.904 75.576 14.804 75.576C15.62 75.576 16.604 76.032 16.892 77.196C17.876 76.8 18.284 76.044 18.296 75.216C18.308 74.148 17.6 73.344 16.22 73.344C14.588 73.344 13.436 74.544 12.428 75.864C12.128 76.248 11.996 76.356 11.708 76.344C11.432 76.344 11.168 76.02 11.192 75.564C11.216 75.228 11.408 74.952 11.804 74.568C12.956 73.452 15.488 71.064 16.124 70.212C16.328 69.948 16.196 69.852 16.004 69.888C15.56 69.972 14.84 70.368 14.372 70.644C14.156 70.776 13.952 70.968 13.688 70.968C12.98 70.968 12.428 70.14 12.404 69.72C12.38 69.432 12.428 69.228 12.5 68.928Z" fill="white"/>
<path d="M19.322 84.738L20.274 83.52C20.274 83.52 21.352 84.346 22.024 84.92C21.982 85.074 21.828 85.144 21.618 85.144H15.108C15.08 86.152 15.038 87.16 14.912 88.14H18.062L18.958 87.272L20.456 88.574C20.344 88.686 20.162 88.784 19.854 88.826C19.616 92.438 19.154 94.678 18.314 95.378C17.796 95.812 17.194 96.008 16.214 96.008C16.214 95.518 16.144 95.112 15.878 94.874C15.598 94.608 14.926 94.384 14.212 94.244L14.226 94.048C14.996 94.132 16.2 94.202 16.578 94.202C16.844 94.202 16.984 94.16 17.152 94.048C17.642 93.628 18.006 91.514 18.202 88.546H14.856C14.408 91.486 13.12 94.188 9.13 96.246L8.976 96.036C13.148 92.718 13.232 88.854 13.26 85.144H9.158L9.046 84.738H19.322ZM11.342 109.158H13.386V107.562H11.342V109.158ZM13.386 105.616H11.342V107.17H13.386V105.616ZM13.246 105.21L13.974 104.37L15.57 105.588C15.486 105.7 15.29 105.826 14.996 105.882V111.328C14.996 112.434 14.786 113.064 13.12 113.204C13.092 112.686 13.05 112.308 12.91 112.056C12.756 111.818 12.546 111.622 12.056 111.524V111.342C12.056 111.342 12.896 111.398 13.148 111.398C13.344 111.398 13.386 111.314 13.386 111.146V109.564H11.342V112.686C11.342 112.84 10.712 113.204 10.054 113.204H9.816V104.538L11.412 105.21H13.246ZM12.994 101.598L13.134 101.514C17.138 102.312 15.864 105.238 14.394 104.174C14.338 103.852 14.212 103.516 14.044 103.166C13.064 103.502 11.678 103.922 9.802 104.454C9.718 104.636 9.564 104.734 9.396 104.762L8.766 103.026C9.186 103.026 9.844 103.026 10.642 102.998C10.866 102.06 11.076 100.926 11.202 100.1L13.484 100.604C13.428 100.772 13.288 100.898 12.952 100.898C12.56 101.486 11.944 102.27 11.314 102.97C12.098 102.942 12.98 102.914 13.89 102.872C13.638 102.396 13.316 101.948 12.994 101.598ZM19.14 106.358H17.88C16.522 106.358 16.242 106.064 16.242 104.986V100.268L18.286 100.45C18.258 100.632 18.132 100.772 17.852 100.814V102.746C18.72 102.186 19.672 101.43 20.148 100.898L21.716 102.186C21.576 102.312 21.31 102.326 20.89 102.214C20.148 102.494 18.986 102.858 17.852 103.11V104.622C17.852 104.818 17.908 104.888 18.286 104.888H19.322C19.7 104.888 20.05 104.888 20.218 104.874C20.372 104.86 20.484 104.832 20.568 104.72C20.694 104.538 20.904 103.978 21.128 103.306H21.282L21.338 104.762C21.758 104.944 21.856 105.126 21.856 105.42C21.856 106.092 21.24 106.358 19.14 106.358ZM21.422 109.746L21.478 111.314C21.898 111.51 22.01 111.692 22.01 111.986C22.01 112.658 21.38 112.938 19.224 112.938H17.908C16.536 112.938 16.256 112.644 16.256 111.552V106.806L18.314 106.974C18.3 107.156 18.16 107.296 17.866 107.338V109.214C18.748 108.598 19.672 107.772 20.162 107.198L21.898 108.472C21.758 108.612 21.506 108.654 21.072 108.542C20.274 108.892 19.084 109.312 17.866 109.62V111.188C17.866 111.384 17.922 111.454 18.328 111.454H19.406C19.812 111.454 20.176 111.454 20.33 111.44C20.498 111.426 20.596 111.384 20.694 111.272C20.82 111.062 21.03 110.46 21.282 109.746H21.422ZM10.208 119.032L10.418 118.962C10.81 119.396 11.006 119.592 11.44 119.592C12.742 119.592 17.264 119.06 18.272 118.92C18.79 118.85 19.014 118.584 19.35 118.584C19.896 118.584 21.296 119.872 21.296 120.488C21.296 120.978 20.512 121.02 20.176 121.216C19.56 121.566 18.482 122.154 17.32 122.714C17.348 122.798 17.348 122.91 17.292 123.036C16.158 125.878 14.268 128.286 10.95 129.742L10.754 129.504C13.456 127.656 15.304 124.072 15.304 123.148C15.304 122.7 14.842 122.448 14.254 122.196L14.282 121.986C14.604 121.902 14.912 121.846 15.262 121.86C15.934 121.874 16.48 122.07 16.816 122.238C17.642 121.566 18.37 120.768 18.678 120.208C18.832 119.914 18.748 119.844 18.468 119.844C17.894 119.844 14.394 120.516 13.008 120.88C12.462 121.034 12.28 121.412 11.832 121.412C11.314 121.412 10.516 120.684 10.306 120.096C10.194 119.816 10.152 119.424 10.208 119.032ZM13.862 135.318L13.848 135.094C14.184 134.926 14.576 134.716 15.024 134.716C15.85 134.716 16.802 135.36 16.802 135.696C16.802 136.074 16.536 136.116 16.466 136.536C16.424 136.788 16.382 137.18 16.368 137.544C17.11 137.488 17.894 137.446 18.384 137.376C18.664 137.348 18.916 136.914 19.224 136.914C19.826 136.914 21.03 137.992 21.03 138.44C21.03 138.804 20.498 139.028 20.358 139.406C18.916 142.976 16.774 145.412 12.672 146.952L12.49 146.7C15.71 144.81 17.908 141.912 18.58 138.608C18.636 138.37 18.594 138.314 18.384 138.328C15.682 138.44 13.848 138.79 13.428 138.79C13.204 138.79 13.036 138.706 12.798 138.524C12.854 139.308 13.008 141.632 13.008 142.15C13.008 142.626 12.756 142.85 12.364 142.85C11.79 142.864 11.342 142.024 11.328 141.464C11.328 141.31 11.384 141.072 11.398 140.806C11.412 140.316 11.258 138.818 11.076 138.314C10.894 137.768 10.6 137.46 10.236 137.04L10.362 136.83C10.908 136.942 11.608 137.166 12.084 137.46C12.322 137.6 12.476 137.698 12.588 137.81C13.344 137.782 14.198 137.698 14.912 137.642C14.912 137.194 14.898 136.592 14.884 136.214C14.87 135.906 14.856 135.752 14.632 135.612C14.408 135.486 14.142 135.402 13.862 135.318ZM18.356 154.908C18.426 154.712 18.356 154.642 18.174 154.642C17.824 154.656 16.746 154.88 16.354 155.02C16.06 155.118 15.836 155.202 15.556 155.202C15.43 155.202 15.234 155.09 15.038 154.936C14.59 155.51 14.086 156.07 13.54 156.616C14.45 156.854 15.71 157.246 16.746 157.778C17.446 156.798 18.006 155.818 18.356 154.908ZM13.386 152.136L13.428 151.954C13.694 151.884 13.946 151.828 14.408 151.856C15.36 151.884 16.424 152.486 16.424 152.85C16.424 153.144 16.256 153.2 16.004 153.578C15.892 153.746 15.78 153.928 15.654 154.11C16.27 154.068 17.768 153.83 18.118 153.718C18.468 153.606 18.72 153.256 19.028 153.256C19.448 153.256 20.792 154.11 20.792 154.684C20.792 155.048 20.204 155.216 20.008 155.552C19.392 156.644 18.72 157.638 17.992 158.562C18.706 159.094 19.238 159.71 19.266 160.396C19.28 160.928 18.944 161.292 18.468 161.292C17.852 161.32 17.684 160.844 16.886 159.808C15.164 161.558 13.022 162.93 10.152 163.868L9.998 163.588C12.336 162.412 14.436 160.62 15.99 158.744C15.15 157.862 14.268 157.372 13.246 156.896C12.28 157.792 11.188 158.604 10.012 159.164L9.844 158.912C11.986 157.092 14.17 153.886 14.17 152.976C14.17 152.71 13.834 152.388 13.386 152.136ZM13.512 169.668V169.486C13.82 169.346 14.338 169.164 14.814 169.164C15.64 169.164 16.83 169.934 16.83 170.424C16.83 170.816 16.55 171.11 16.466 171.614C16.382 172.118 16.354 173.336 16.354 174.316C16.354 175.156 16.41 178.516 16.41 179.384C16.41 180.028 16.2 180.448 15.514 180.448C14.786 180.448 14.492 179.524 14.492 178.74C14.492 178.362 14.618 177.746 14.674 177.088C14.744 176.206 14.772 174.792 14.772 173.966C14.772 172.804 14.758 171.432 14.688 170.718C14.632 170.088 14.156 169.892 13.512 169.668Z" fill="#FFD5E0"/>
<path d="M39.884 13.156H37.208V15.664H39.884V13.156ZM37.208 16V16.324C37.208 16.444 36.62 16.744 36.08 16.744H35.888V12.268L37.268 12.82H39.776L40.412 12.124L41.732 13.132C41.66 13.228 41.492 13.324 41.252 13.384V16.144C41.24 16.24 40.58 16.516 40.124 16.516H39.884V16H37.208ZM40.292 22.348L41.012 21.388C41.012 21.388 41.852 22.048 42.344 22.504C42.308 22.636 42.188 22.696 42.008 22.696H34.784L34.688 22.348H37.808V20.092H35.576L35.48 19.756H37.808V17.824H35.6C35.948 18.628 35.204 19.288 34.544 18.676C34.508 18.112 34.256 17.476 33.968 16.948V22.672C33.956 22.756 33.512 23.068 32.84 23.068H32.588V18.676C32.096 19.372 31.52 19.996 30.848 20.536L30.716 20.416C31.568 19.168 32.132 17.464 32.456 15.844H30.944L30.848 15.496H32.588V13.696C32.012 13.78 31.412 13.852 30.836 13.9L30.788 13.756C32.024 13.276 33.512 12.412 34.256 11.8L35.828 13.12C35.672 13.252 35.42 13.276 35.036 13.156C34.736 13.252 34.364 13.348 33.968 13.432V15.496H34.1L34.724 14.632C34.724 14.632 35.408 15.232 35.816 15.652C35.78 15.784 35.66 15.844 35.492 15.844H33.968V16.588C34.736 16.864 35.204 17.212 35.456 17.56L35.432 17.488H40.1L40.808 16.576C40.808 16.576 41.588 17.212 42.056 17.632C42.02 17.764 41.9 17.824 41.72 17.824H39.212V19.756H39.956L40.64 18.868C40.64 18.868 41.396 19.468 41.876 19.9C41.84 20.032 41.708 20.092 41.54 20.092H39.212V22.348H40.292ZM34.316 35.52C35.54 35.52 36.104 35.1 36.14 34.056C35.78 33.984 35.372 33.936 34.94 33.936C33.8 33.936 33.152 34.368 33.152 34.836C33.152 35.268 33.632 35.52 34.316 35.52ZM37.1 29.364H37.172C37.508 29.364 38.18 29.232 38.66 29.052C39.08 28.896 39.308 28.74 39.392 28.74C39.86 28.74 40.508 28.884 40.508 29.424C40.508 29.664 40.388 29.844 40.028 29.988C39.752 30.096 38.876 30.336 38.108 30.336C37.784 30.336 37.376 30.144 37.052 29.964C37.016 30.336 37.004 30.684 37.004 30.924C37.004 31.464 37.04 32.388 37.124 33.216C37.844 33.36 38.444 33.588 38.888 33.792C39.776 34.212 40.688 34.884 40.688 35.664C40.688 36.072 40.472 36.252 40.124 36.252C39.536 36.252 39.092 35.424 37.928 34.752C37.736 34.644 37.52 34.536 37.304 34.44C37.316 34.548 37.316 34.656 37.316 34.776C37.316 35.736 36.8 36.624 34.892 36.624C33.548 36.624 32.54 36.048 32.54 34.992C32.54 33.672 33.992 33.072 35.72 33.072C35.864 33.072 35.996 33.072 36.128 33.084C36.104 32.136 36.044 31.284 36.02 30.612C35.996 29.952 35.936 28.116 35.9 27.792C35.876 27.552 35.804 27.456 35.6 27.36C35.324 27.216 34.916 27.144 34.7 27.108L34.676 26.952C34.988 26.76 35.42 26.532 35.852 26.532C36.692 26.532 37.604 27.132 37.604 27.576C37.604 27.876 37.376 27.996 37.28 28.308C37.208 28.512 37.148 28.92 37.1 29.364ZM32.156 46.328C32.072 45.368 32.192 44.312 32.192 43.472C32.192 42.788 31.892 42.284 31.268 41.78L31.328 41.636C31.652 41.624 32.108 41.648 32.468 41.792C33.092 42.056 33.812 42.728 33.812 43.292C33.812 43.88 33.164 44.552 33.164 46.064C33.164 47.096 33.716 47.72 34.1 47.888C34.268 47.96 34.436 47.948 34.568 47.768C34.976 47.204 35.408 46.436 35.828 45.632L36.08 45.752C35.804 46.676 35.54 47.696 35.528 48.128C35.516 48.86 35.708 48.824 35.708 49.208C35.708 49.76 35.132 50.048 34.364 49.736C33.392 49.328 32.3 48.248 32.156 46.328ZM39.716 45.056C39.416 44.168 38.768 43.388 37.808 42.956L37.868 42.752C39.14 42.824 39.86 43.232 40.568 43.904C41.3 44.576 41.624 45.584 41.624 46.508C41.624 47.276 41.372 47.696 40.784 47.696C40.52 47.696 40.256 47.552 40.16 47.228C40.016 46.724 40.064 46.076 39.716 45.056ZM32.588 58.384C32.492 58.108 32.468 57.88 32.492 57.592L32.66 57.508C33.008 57.88 33.248 58.096 33.716 58.096C34.436 58.096 37.448 57.724 38.372 57.556C38.816 57.472 38.984 57.22 39.26 57.22C39.764 57.22 40.796 58.048 40.796 58.54C40.796 58.864 40.244 59.044 39.98 59.536C38.852 61.636 36.86 63.676 33.296 64.708L33.164 64.468C36.128 62.92 37.964 60.568 38.624 58.636C38.684 58.48 38.624 58.432 38.492 58.432C37.856 58.468 35.42 58.936 34.664 59.164C34.316 59.272 34.088 59.5 33.812 59.5C33.308 59.5 32.696 58.756 32.588 58.384ZM39.38 55.408C39.38 55.648 39.248 55.816 38.864 55.9C37.904 56.128 36.14 56.44 35.12 56.44C34.352 56.44 33.956 55.984 33.524 55.096L33.644 55C34.148 55.312 34.58 55.348 34.976 55.348C35.876 55.348 36.584 55.132 37.088 55C37.688 54.832 37.856 54.664 38.036 54.664C38.852 54.664 39.38 54.916 39.38 55.408ZM32.6 69.612C32.936 69.948 33.236 70.248 33.692 70.248C34.652 70.248 37.652 69.924 38.3 69.78C38.804 69.672 38.948 69.42 39.284 69.42C39.848 69.42 41.084 70.488 41.084 70.92C41.084 71.328 40.544 71.568 40.352 71.952C38.9 74.88 36.716 77.148 32.804 78.396L32.672 78.156C35.936 76.44 38.336 73.44 38.912 70.812C38.936 70.704 38.888 70.668 38.804 70.668C37.988 70.668 35.372 71.208 34.688 71.412C34.412 71.496 34.1 71.772 33.812 71.772C33.284 71.772 32.624 70.98 32.504 70.524C32.42 70.224 32.432 69.996 32.432 69.684L32.6 69.612ZM34.316 83.24L34.28 83.048C34.652 82.796 35.12 82.544 35.612 82.544C36.308 82.544 36.836 82.76 36.908 83.06C37.076 83.696 37.22 84.104 37.4 84.512C38.564 84.008 38.924 83.504 39.2 83.444C39.488 83.408 39.884 83.444 40.088 83.672C40.268 83.876 40.244 84.212 40.016 84.44C39.668 84.764 38.84 85.22 37.964 85.568C38.576 86.528 39.404 87.296 40.016 87.896C40.292 88.16 40.4 88.34 40.412 88.616C40.412 89.048 40.196 89.732 39.74 89.732C39.368 89.732 39.14 89.492 38.744 89.24C38.132 88.832 37.22 88.328 35.888 88.328C34.628 88.328 33.8 89 33.8 89.888C33.8 90.644 34.604 91.208 36.284 91.208C37.124 91.208 37.628 91.064 38.108 91.064C38.636 91.064 39.128 91.256 39.128 91.784C39.128 92.264 38.492 92.588 36.716 92.588C34.436 92.588 32.804 91.736 32.804 90.2C32.804 88.844 34.244 87.776 36.188 87.776C37.22 87.776 38.084 87.968 38.54 88.064C38.684 88.088 38.708 88.064 38.6 87.944C38.168 87.464 37.544 86.66 37.016 85.892C36.248 86.132 35.3 86.324 34.544 86.336C32.996 86.36 32.6 85.832 32.06 84.584L32.228 84.452C33.02 85.1 33.5 85.256 34.328 85.256C34.856 85.244 35.66 85.088 36.38 84.872C36.128 84.44 35.876 83.984 35.684 83.696C35.48 83.384 35.012 83.288 34.316 83.24ZM39.008 97.42L39.116 97.252C39.788 97.432 40.364 97.648 40.736 97.996C40.988 98.224 41.084 98.428 41.084 98.656C41.084 98.92 40.892 99.112 40.64 99.112C40.436 99.112 40.28 98.944 40.088 98.656C39.86 98.332 39.572 97.9 39.008 97.42ZM36.008 98.476L35.648 99.352C35.936 99.316 36.236 99.28 36.452 99.28C37.412 99.28 38.048 99.868 38.048 101.464C38.048 103 37.676 104.728 36.788 105.7C36.416 106.12 35.84 106.408 35.228 106.408C34.76 106.408 34.58 106.216 34.436 105.616C34.364 105.376 34.292 105.268 33.716 104.644L33.824 104.476C34.424 104.788 34.892 104.992 35.204 104.992C35.588 104.992 35.792 104.872 36.008 104.584C36.584 103.876 36.92 102.172 36.92 100.972C36.92 100.336 36.716 100.012 36.164 100.012C35.948 100.012 35.648 100.072 35.3 100.168C34.976 100.96 34.604 101.824 34.316 102.46C33.776 103.66 33.02 105.22 32.588 105.952C32.324 106.42 32.12 106.528 31.796 106.528C31.496 106.528 31.196 106.24 31.196 105.772C31.196 105.412 31.256 105.268 31.472 104.98C32.06 104.26 32.72 103.252 33.308 102.052C33.524 101.584 33.74 101.116 33.92 100.648C33.62 100.78 33.332 100.9 33.116 100.996C32.732 101.164 32.504 101.296 32.168 101.296C31.82 101.296 31.256 100.672 31.172 100.18C31.112 99.844 31.208 99.58 31.316 99.34L31.472 99.304C31.7 99.7 31.844 99.952 32.156 99.952C32.564 99.952 33.404 99.748 34.328 99.568C34.64 98.716 34.82 98.02 34.82 97.78C34.82 97.612 34.772 97.492 34.64 97.408C34.448 97.288 34.088 97.192 33.752 97.132V96.94C34.004 96.808 34.34 96.64 34.856 96.64C35.408 96.64 36.524 97.12 36.524 97.54C36.524 97.876 36.188 98.068 36.008 98.476ZM38.516 99.436L38.588 99.22C39.368 99.256 40.196 99.508 40.796 100.084C41.468 100.708 41.78 101.548 41.78 102.484C41.78 103.216 41.504 103.732 40.976 103.744C40.556 103.756 40.532 103.36 40.124 103.204C39.872 103.108 39.248 103.024 38.828 103.012L38.78 102.808C39.296 102.676 39.692 102.568 39.956 102.46C40.22 102.352 40.34 102.22 40.328 101.884C40.328 101.548 40.232 100.972 39.908 100.468C39.596 99.964 39.164 99.604 38.516 99.436ZM40.124 96.592L40.22 96.436C40.916 96.568 41.468 96.772 41.804 97.024C42.104 97.252 42.224 97.48 42.224 97.768C42.224 98.02 42.068 98.188 41.816 98.188C41.588 98.188 41.444 97.996 41.216 97.696C41 97.432 40.748 97.084 40.124 96.592ZM32.528 109.788L34.292 110.352C34.244 110.508 34.088 110.616 33.824 110.604C33.356 111.216 32.804 111.852 32.288 112.32C33.524 113.124 32.684 114.396 31.796 113.736C31.7 113.088 31.256 112.368 30.86 111.912L30.968 111.84C31.352 111.912 31.676 112.008 31.94 112.128C32.132 111.468 32.36 110.58 32.528 109.788ZM34.052 116.64L34.196 116.592C36.68 117.876 35.456 119.796 34.544 118.836C34.556 118.128 34.304 117.264 34.052 116.64ZM38.852 111.72H37.592C37.292 112.2 36.956 112.644 36.596 113.04L37.388 113.352H38.18C38.42 112.872 38.672 112.212 38.852 111.72ZM40.268 113.688H39.296V116.34H40.268V113.688ZM37.232 113.688V116.34H38.144V113.688H37.232ZM41.624 117.996L41.672 119.4C42.08 119.556 42.2 119.712 42.2 119.952C42.2 120.552 41.612 120.804 39.212 120.804H37.676C36.332 120.804 35.936 120.564 35.936 119.532V113.712C35.66 113.964 35.372 114.18 35.084 114.384C36.344 115.452 35.336 116.724 34.52 115.92C34.52 115.692 34.484 115.452 34.424 115.2L33.968 115.356V120.696C33.968 120.78 33.56 121.056 32.912 121.056H32.684V117.336C32.636 117.348 32.576 117.36 32.516 117.36C32.168 118.476 31.676 119.496 31.004 120.156L30.836 120.06C31.148 119.172 31.364 117.936 31.424 116.76L32.684 117.024V115.752C32.348 115.86 31.988 115.956 31.604 116.076C31.532 116.232 31.4 116.316 31.28 116.34L30.848 115.032C31.16 115.032 31.652 115.02 32.24 114.996C32.84 113.82 33.488 112.344 33.896 111.276L35.564 111.864C35.516 112.008 35.36 112.092 35.084 112.068C34.532 112.872 33.62 114.012 32.708 114.972C33.212 114.96 33.776 114.924 34.34 114.9C34.232 114.516 34.076 114.144 33.92 113.844L34.052 113.796C34.412 113.94 34.7 114.108 34.94 114.276C35.672 113.184 36.44 111.492 36.884 109.8L38.696 110.364C38.636 110.496 38.492 110.604 38.216 110.604C38.084 110.88 37.94 111.132 37.796 111.384H38.816L39.536 110.676L40.772 111.756C40.676 111.864 40.544 111.888 40.292 111.9C39.836 112.344 39.188 112.944 38.552 113.352H40.16L40.772 112.692L42.02 113.652C41.96 113.736 41.816 113.82 41.612 113.868V117C41.6 117.096 40.94 117.336 40.496 117.336H40.268V116.688H37.232V119.196C37.232 119.472 37.34 119.544 37.868 119.544H39.32C39.884 119.544 40.352 119.544 40.568 119.532C40.748 119.52 40.868 119.472 40.952 119.364C41.084 119.172 41.288 118.656 41.492 117.996H41.624ZM39.824 125.588L39.944 125.516C43.448 127.052 42.2 129.824 40.952 128.684C40.916 127.628 40.376 126.44 39.824 125.588ZM35.6 130.208L35.42 130.112C35.876 128.96 36.2 127.268 36.296 125.696L37.976 126.14V123.884L39.74 124.052C39.716 124.232 39.596 124.328 39.32 124.376V129.968C39.32 130.916 39.128 131.432 37.676 131.564C37.64 131.144 37.604 130.832 37.46 130.628C37.304 130.424 37.088 130.28 36.596 130.196V130.028C36.596 130.028 37.556 130.088 37.76 130.088C37.928 130.088 37.976 130.04 37.976 129.908V126.236C37.904 126.344 37.772 126.404 37.568 126.416C37.148 127.964 36.512 129.308 35.6 130.208ZM34.028 126.956H33.248C33.02 128.084 32.756 129.332 32.504 130.364C32.852 130.472 33.164 130.592 33.44 130.712C33.788 129.548 33.956 128.264 34.028 126.956ZM34.568 125.924L35.756 126.968C35.684 127.1 35.564 127.136 35.312 127.172C35.168 128.612 34.94 130.028 34.388 131.288C35.996 132.548 35.264 134.096 34.244 133.424C34.148 133.088 33.992 132.728 33.788 132.38C33.14 133.34 32.216 134.168 30.872 134.804L30.764 134.66C31.928 133.82 32.672 132.728 33.164 131.504C32.936 131.216 32.684 130.94 32.432 130.7C32.372 130.94 32.312 131.156 32.264 131.36C32.024 131.528 31.532 131.564 31.004 131.42C31.328 130.364 31.724 128.6 32.048 126.956H30.92L30.812 126.62H32.108C32.324 125.504 32.492 124.484 32.552 123.824L34.196 124.172C34.148 124.328 34.028 124.448 33.716 124.448C33.632 124.964 33.488 125.744 33.308 126.62H33.908L34.568 125.924ZM34.604 135.08L34.568 134.9C37.34 133.94 39.272 132.572 40.436 129.164L42.2 129.848C42.128 130.004 41.996 130.052 41.684 130.028C40.076 133.364 37.952 134.516 34.604 135.08ZM38.132 140.824V140.608C38.816 140.38 39.524 140.404 40.004 140.548C40.82 140.8 41.336 141.34 41.336 142.012C41.336 142.408 41.204 142.696 40.82 142.696C40.34 142.696 40.016 142.312 39.344 142.336C38.996 142.348 38.624 142.48 38.444 142.732C38.276 142.984 38.312 143.404 38.372 143.872C38.42 144.208 38.552 144.808 38.648 145.444C39.272 145.588 39.752 145.828 40.148 146.044C40.916 146.452 41.456 146.944 41.456 147.496C41.456 147.976 41.18 148.168 40.892 148.168C40.532 148.168 40.352 147.832 39.884 147.424C39.584 147.148 39.236 146.872 38.804 146.644C38.816 146.788 38.816 146.932 38.816 147.076C38.816 148.144 37.988 148.72 36.608 148.72C35.276 148.72 34.496 148.036 34.496 147.148C34.496 146.176 35.444 145.276 37.208 145.276C37.328 145.276 37.448 145.276 37.556 145.288C37.544 144.916 37.532 144.544 37.532 144.22C37.532 143.464 37.664 142.936 38.012 142.516C38.48 141.952 39.08 141.724 39.464 141.52C39.512 141.424 39.464 141.328 39.344 141.22C39.08 141.004 38.66 140.86 38.132 140.824ZM37.592 146.536V146.188C37.256 146.116 36.896 146.08 36.5 146.08C35.516 146.08 35.072 146.536 35.072 146.908C35.072 147.304 35.396 147.604 36.236 147.604C37.1 147.604 37.592 147.22 37.592 146.536ZM33.68 138.688V138.508C33.908 138.4 34.34 138.268 34.676 138.268C35.144 138.268 35.552 138.4 35.804 138.592C36.044 138.772 35.924 139.156 35.588 140.164C36.44 139.876 36.716 139.66 36.872 139.66C37.148 139.66 37.496 139.852 37.496 140.248C37.496 140.512 37.34 140.668 37.136 140.8C36.728 141.064 35.96 141.316 35.156 141.484C34.748 142.696 34.04 144.736 33.14 146.164C32.828 146.644 32.6 146.968 32.252 146.968C31.844 146.968 31.604 146.56 31.604 146.152C31.604 145.852 31.676 145.624 31.904 145.36C32.696 144.412 33.5 143.188 34.028 141.664C33.728 141.7 33.452 141.712 33.2 141.712C32.192 141.712 31.736 141.4 31.412 140.056L31.58 139.96C32.084 140.344 32.468 140.632 33.236 140.632C33.584 140.632 34.004 140.572 34.364 140.5C34.448 140.128 34.496 139.792 34.508 139.516C34.508 139.264 34.412 139.12 34.208 138.964C34.004 138.808 33.8 138.736 33.68 138.688Z" fill="white"/>
<path d="M5.012 189.086L5.712 189.59C6.188 189.94 6.314 190.276 6.314 190.654C6.314 191.228 5.852 191.62 5.348 191.62C4.984 191.62 4.718 191.466 4.494 191.312C4.284 190.934 4.172 190.514 4.172 190.08C4.172 188.792 5.11 187.63 6.426 187.056L6.608 187.392C5.81 187.868 5.32 188.33 5.012 189.086ZM1.918 189.086L2.618 189.59C3.094 189.94 3.22 190.276 3.22 190.654C3.22 191.228 2.758 191.62 2.24 191.62C1.89 191.62 1.624 191.466 1.4 191.312C1.176 190.934 1.078 190.514 1.078 190.08C1.078 188.792 2.016 187.63 3.332 187.056L3.514 187.392C2.716 187.868 2.226 188.33 1.918 189.086Z" fill="white"/>
</svg>
