<svg width="538" height="30" viewBox="0 0 538 30" fill="none" xmlns="http://www.w3.org/2000/svg">
<path d="M1.20144 19.136C1.20144 18.1333 1.33477 17.1947 1.60144 16.32C1.87877 15.4453 2.27344 14.672 2.78544 14C3.29744 13.3173 3.92144 12.784 4.65744 12.4C4.67877 12.3893 4.7001 12.4 4.72144 12.432C4.74277 12.4533 4.74277 12.4747 4.72144 12.496C3.95344 13.264 3.39344 14.2027 3.04144 15.312C2.7001 16.4213 2.52944 17.696 2.52944 19.136C2.52944 20.576 2.7001 21.8507 3.04144 22.96C3.39344 24.0693 3.95344 25.008 4.72144 25.776C4.74277 25.7867 4.74277 25.808 4.72144 25.84C4.7001 25.872 4.67877 25.8827 4.65744 25.872C3.92144 25.4773 3.29744 24.944 2.78544 24.272C2.27344 23.6 1.87877 22.8267 1.60144 21.952C1.33477 21.0667 1.20144 20.128 1.20144 19.136ZM9.60094 24C9.55827 24 9.51027 23.9627 9.45694 23.888C9.4036 23.8027 9.39827 23.744 9.44094 23.712C9.9956 23.008 10.5236 22.3413 11.0249 21.712C11.5369 21.0827 11.9849 20.48 12.3689 19.904C12.7636 19.328 13.0729 18.768 13.2969 18.224C13.5209 17.68 13.6329 17.1413 13.6329 16.608C13.6329 15.9467 13.4676 15.4507 13.1369 15.12C12.8169 14.7787 12.3796 14.608 11.8249 14.608C11.2916 14.608 10.8436 14.752 10.4809 15.04C10.1289 15.328 9.87827 15.7333 9.72894 16.256C9.71827 16.2773 9.68094 16.2827 9.61694 16.272C9.5636 16.2613 9.54227 16.24 9.55294 16.208C9.70227 15.4507 10.0276 14.864 10.5289 14.448C11.0409 14.032 11.6703 13.824 12.4169 13.824C13.2169 13.824 13.8303 14.0533 14.2569 14.512C14.6943 14.96 14.9129 15.5307 14.9129 16.224C14.9129 16.7467 14.8009 17.264 14.5769 17.776C14.3529 18.288 14.0649 18.784 13.7129 19.264C13.3716 19.744 13.0036 20.2027 12.6089 20.64C12.2143 21.0667 11.8409 21.4667 11.4889 21.84C11.1476 22.2133 10.8703 22.544 10.6569 22.832C10.6036 22.9067 10.6249 22.944 10.7209 22.944C11.6169 22.944 12.3423 22.9333 12.8969 22.912C13.4623 22.8907 13.8996 22.848 14.2089 22.784C14.5289 22.7093 14.7476 22.5973 14.8649 22.448C14.9823 22.2987 15.0409 22.096 15.0409 21.84C15.0409 21.808 15.0729 21.792 15.1369 21.792C15.2009 21.792 15.2329 21.808 15.2329 21.84L15.2169 23.824C15.2169 23.8667 15.2063 23.9093 15.1849 23.952C15.1636 23.984 15.1263 24 15.0729 24C14.5289 24 13.9369 24 13.2969 24C12.6676 24 12.0329 24 11.3929 24C10.7529 24 10.1556 24 9.60094 24ZM20.1176 24.208C19.4456 24.208 18.8589 23.9947 18.3576 23.568C17.8669 23.1307 17.4829 22.5227 17.2056 21.744C16.9389 20.9653 16.8056 20.048 16.8056 18.992C16.8056 17.9467 16.9389 17.0347 17.2056 16.256C17.4829 15.4773 17.8722 14.8747 18.3736 14.448C18.8749 14.0213 19.4669 13.808 20.1496 13.808C20.8109 13.808 21.3816 14.0267 21.8616 14.464C22.3522 14.8907 22.7309 15.4987 22.9976 16.288C23.2642 17.0667 23.3976 17.984 23.3976 19.04C23.3976 20.0853 23.2642 20.9973 22.9976 21.776C22.7309 22.544 22.3522 23.1413 21.8616 23.568C21.3709 23.9947 20.7896 24.208 20.1176 24.208ZM20.3096 23.952C20.7149 23.952 21.0402 23.7707 21.2856 23.408C21.5416 23.0453 21.7282 22.512 21.8456 21.808C21.9736 21.104 22.0376 20.2453 22.0376 19.232C22.0376 18.0373 21.9469 17.056 21.7656 16.288C21.5949 15.52 21.3549 14.96 21.0456 14.608C20.7469 14.2453 20.3896 14.064 19.9736 14.064C19.5682 14.064 19.2322 14.2507 18.9656 14.624C18.6989 14.9973 18.4962 15.5467 18.3576 16.272C18.2296 16.9867 18.1656 17.856 18.1656 18.88C18.1656 19.9573 18.2456 20.8747 18.4056 21.632C18.5762 22.3893 18.8216 22.9653 19.1416 23.36C19.4616 23.7547 19.8509 23.952 20.3096 23.952ZM24.7572 24C24.7145 24 24.6665 23.9627 24.6132 23.888C24.5599 23.8027 24.5545 23.744 24.5972 23.712C25.1519 23.008 25.6799 22.3413 26.1812 21.712C26.6932 21.0827 27.1412 20.48 27.5252 19.904C27.9199 19.328 28.2292 18.768 28.4532 18.224C28.6772 17.68 28.7892 17.1413 28.7892 16.608C28.7892 15.9467 28.6239 15.4507 28.2932 15.12C27.9732 14.7787 27.5359 14.608 26.9812 14.608C26.4479 14.608 25.9999 14.752 25.6372 15.04C25.2852 15.328 25.0345 15.7333 24.8852 16.256C24.8745 16.2773 24.8372 16.2827 24.7732 16.272C24.7199 16.2613 24.6985 16.24 24.7092 16.208C24.8585 15.4507 25.1839 14.864 25.6852 14.448C26.1972 14.032 26.8265 13.824 27.5732 13.824C28.3732 13.824 28.9865 14.0533 29.4132 14.512C29.8505 14.96 30.0692 15.5307 30.0692 16.224C30.0692 16.7467 29.9572 17.264 29.7332 17.776C29.5092 18.288 29.2212 18.784 28.8692 19.264C28.5279 19.744 28.1599 20.2027 27.7652 20.64C27.3705 21.0667 26.9972 21.4667 26.6452 21.84C26.3039 22.2133 26.0265 22.544 25.8132 22.832C25.7599 22.9067 25.7812 22.944 25.8772 22.944C26.7732 22.944 27.4985 22.9333 28.0532 22.912C28.6185 22.8907 29.0559 22.848 29.3652 22.784C29.6852 22.7093 29.9039 22.5973 30.0212 22.448C30.1385 22.2987 30.1972 22.096 30.1972 21.84C30.1972 21.808 30.2292 21.792 30.2932 21.792C30.3572 21.792 30.3892 21.808 30.3892 21.84L30.3732 23.824C30.3732 23.8667 30.3625 23.9093 30.3412 23.952C30.3199 23.984 30.2825 24 30.2292 24C29.6852 24 29.0932 24 28.4532 24C27.8239 24 27.1892 24 26.5492 24C25.9092 24 25.3119 24 24.7572 24ZM36.0098 18.56C36.5111 18.56 36.9431 18.6827 37.3058 18.928C37.6685 19.1627 37.9458 19.4773 38.1378 19.872C38.3298 20.2667 38.4258 20.7093 38.4258 21.2C38.4258 21.776 38.2871 22.2933 38.0098 22.752C37.7431 23.2 37.3751 23.5573 36.9058 23.824C36.4365 24.08 35.8978 24.208 35.2898 24.208C34.6071 24.208 34.0311 24.048 33.5618 23.728C33.1031 23.3973 32.7565 22.944 32.5218 22.368C32.2978 21.7813 32.1858 21.1147 32.1858 20.368C32.1858 19.6 32.2978 18.8427 32.5218 18.096C32.7565 17.3387 33.0925 16.6453 33.5298 16.016C33.9778 15.3867 34.5165 14.8747 35.1458 14.48C35.7858 14.0853 36.5111 13.8667 37.3218 13.824C37.3645 13.824 37.3911 13.8507 37.4018 13.904C37.4125 13.9467 37.4018 13.9733 37.3698 13.984C36.7191 14.144 36.1485 14.4267 35.6578 14.832C35.1778 15.2267 34.7725 15.712 34.4418 16.288C34.1218 16.8533 33.8818 17.472 33.7218 18.144C33.5618 18.8053 33.4818 19.4773 33.4818 20.16C33.4818 20.6507 33.5245 21.12 33.6098 21.568C33.7058 22.016 33.8391 22.416 34.0098 22.768C34.1911 23.12 34.4151 23.3973 34.6818 23.6C34.9591 23.792 35.2898 23.888 35.6738 23.888C36.1858 23.888 36.5538 23.6853 36.7778 23.28C37.0125 22.864 37.1298 22.3147 37.1298 21.632C37.1298 20.832 36.9858 20.208 36.6978 19.76C36.4205 19.3013 36.0205 19.072 35.4978 19.072C35.3165 19.072 35.1191 19.104 34.9058 19.168C34.7031 19.232 34.5005 19.36 34.2978 19.552C34.2551 19.5733 34.2125 19.568 34.1698 19.536C34.1271 19.4933 34.1111 19.4613 34.1218 19.44C34.3671 19.1413 34.6498 18.9227 34.9698 18.784C35.2898 18.6347 35.6365 18.56 36.0098 18.56ZM45.3468 15.792C45.3468 16.2187 45.4535 16.5867 45.6668 16.896C45.8801 17.2053 46.1575 17.4827 46.4988 17.728C46.8401 17.9627 47.2028 18.1973 47.5868 18.432C47.9815 18.6667 48.3601 18.9173 48.7228 19.184C49.0961 19.4507 49.4001 19.7653 49.6348 20.128C49.8801 20.48 50.0028 20.912 50.0028 21.424C50.0028 21.9467 49.8641 22.416 49.5868 22.832C49.3201 23.248 48.9361 23.5787 48.4348 23.824C47.9441 24.0693 47.3521 24.192 46.6588 24.192C46.3815 24.192 46.0988 24.1653 45.8108 24.112C45.5335 24.0693 45.2668 24.0053 45.0108 23.92C44.7548 23.8347 44.5201 23.728 44.3068 23.6C44.2641 23.568 44.2268 23.5307 44.1948 23.488C44.1735 23.4453 44.1628 23.3813 44.1628 23.296L44.0028 21.008C43.9921 20.9547 44.0135 20.928 44.0668 20.928C44.1308 20.9173 44.1681 20.9333 44.1788 20.976C44.2748 21.3067 44.4028 21.6427 44.5628 21.984C44.7228 22.3253 44.9148 22.64 45.1388 22.928C45.3628 23.2053 45.6295 23.4347 45.9388 23.616C46.2588 23.7973 46.6268 23.888 47.0428 23.888C47.3308 23.888 47.6081 23.8347 47.8748 23.728C48.1521 23.6213 48.3761 23.4453 48.5468 23.2C48.7175 22.944 48.8028 22.592 48.8028 22.144C48.8028 21.632 48.6908 21.2 48.4668 20.848C48.2428 20.496 47.9548 20.192 47.6028 19.936C47.2508 19.68 46.8775 19.4347 46.4828 19.2C46.1095 18.9653 45.7468 18.72 45.3948 18.464C45.0535 18.208 44.7761 17.9147 44.5628 17.584C44.3495 17.2427 44.2428 16.832 44.2428 16.352C44.2428 15.776 44.3921 15.3013 44.6908 14.928C45.0001 14.5547 45.3895 14.2773 45.8588 14.096C46.3388 13.9147 46.8295 13.824 47.3308 13.824C47.6615 13.824 47.9975 13.856 48.3388 13.92C48.6801 13.984 48.9895 14.0747 49.2668 14.192C49.3628 14.2347 49.4268 14.2827 49.4588 14.336C49.4908 14.3787 49.5068 14.4267 49.5068 14.48L49.5868 16.48C49.5868 16.512 49.5601 16.5333 49.5068 16.544C49.4535 16.5547 49.4161 16.5387 49.3948 16.496C49.3628 16.3147 49.2935 16.0907 49.1868 15.824C49.0801 15.5467 48.9361 15.28 48.7548 15.024C48.5735 14.7573 48.3388 14.5387 48.0508 14.368C47.7735 14.1867 47.4321 14.096 47.0268 14.096C46.6535 14.096 46.3441 14.176 46.0988 14.336C45.8535 14.4853 45.6668 14.688 45.5388 14.944C45.4108 15.1893 45.3468 15.472 45.3468 15.792ZM51.3472 28.4C51.3152 28.4 51.2992 28.368 51.2992 28.304C51.2992 28.24 51.3152 28.208 51.3472 28.208C51.7525 28.208 52.0139 28.1387 52.1312 28C52.2592 27.8613 52.3232 27.5627 52.3232 27.104V19.616C52.3232 19.2533 52.2805 18.992 52.1952 18.832C52.1205 18.6613 51.9765 18.576 51.7632 18.576C51.6672 18.576 51.5499 18.5973 51.4112 18.64C51.2725 18.672 51.1179 18.7307 50.9472 18.816C50.9045 18.8267 50.8725 18.8053 50.8512 18.752C50.8192 18.688 50.8192 18.6507 50.8512 18.64L52.7712 17.712C52.8032 17.6907 52.8405 17.68 52.8832 17.68C53.0219 17.68 53.1445 17.8027 53.2512 18.048C53.3579 18.2933 53.4112 18.656 53.4112 19.136V27.104C53.4112 27.4027 53.4485 27.632 53.5232 27.792C53.5979 27.952 53.7419 28.0587 53.9552 28.112C54.1792 28.176 54.5099 28.208 54.9472 28.208C54.9792 28.208 54.9952 28.24 54.9952 28.304C54.9952 28.368 54.9792 28.4 54.9472 28.4C54.6592 28.4 54.3392 28.3947 53.9872 28.384C53.6352 28.3733 53.2619 28.368 52.8672 28.368C52.5792 28.368 52.3019 28.3733 52.0352 28.384C51.7685 28.3947 51.5392 28.4 51.3472 28.4ZM54.9952 24.208C54.5899 24.208 54.2325 24.1653 53.9232 24.08C53.6245 23.9947 53.2779 23.8347 52.8832 23.6L53.2192 22.688C53.4965 23.0187 53.7952 23.296 54.1152 23.52C54.4459 23.744 54.8832 23.856 55.4272 23.856C55.9605 23.856 56.3979 23.6213 56.7392 23.152C57.0912 22.672 57.2672 21.9733 57.2672 21.056C57.2672 20.1493 57.0645 19.4667 56.6592 19.008C56.2539 18.5387 55.7685 18.304 55.2032 18.304C54.7552 18.304 54.3605 18.4267 54.0192 18.672C53.6885 18.9173 53.3632 19.216 53.0432 19.568L52.8992 19.424C53.4432 18.7947 53.9659 18.336 54.4672 18.048C54.9685 17.76 55.4752 17.616 55.9872 17.616C56.4352 17.616 56.8459 17.7333 57.2192 17.968C57.5925 18.192 57.8912 18.5227 58.1152 18.96C58.3499 19.3973 58.4672 19.9307 58.4672 20.56C58.4672 21.2213 58.3552 21.7867 58.1312 22.256C57.9179 22.7147 57.6299 23.088 57.2672 23.376C56.9152 23.664 56.5419 23.872 56.1472 24C55.7525 24.1387 55.3685 24.208 54.9952 24.208ZM61.4231 19.664L61.3271 19.488C61.7324 18.9973 62.0684 18.624 62.3351 18.368C62.6017 18.112 62.8311 17.936 63.0231 17.84C63.2151 17.7333 63.3964 17.68 63.5671 17.68C63.7911 17.68 64.0151 17.7493 64.2391 17.888C64.4631 18.0267 64.5751 18.2027 64.5751 18.416C64.5751 18.576 64.5217 18.7147 64.4151 18.832C64.3084 18.9387 64.1644 18.992 63.9831 18.992C63.8124 18.992 63.6737 18.944 63.5671 18.848C63.4711 18.752 63.3697 18.6613 63.2631 18.576C63.1671 18.48 63.0337 18.432 62.8631 18.432C62.7777 18.432 62.6817 18.4587 62.5751 18.512C62.4684 18.5653 62.3244 18.6827 62.1431 18.864C61.9724 19.0347 61.7324 19.3013 61.4231 19.664ZM59.7271 24C59.6951 24 59.6791 23.968 59.6791 23.904C59.6791 23.84 59.6951 23.808 59.7271 23.808C60.1111 23.808 60.3617 23.7387 60.4791 23.6C60.6071 23.4507 60.6711 23.152 60.6711 22.704V19.584C60.6711 19.2427 60.6284 18.992 60.5431 18.832C60.4684 18.672 60.3351 18.592 60.1431 18.592C60.0364 18.592 59.9137 18.6133 59.7751 18.656C59.6364 18.688 59.4764 18.7413 59.2951 18.816C59.2524 18.8373 59.2204 18.8213 59.1991 18.768C59.1777 18.704 59.1831 18.6613 59.2151 18.64L61.1831 17.696C61.2257 17.6853 61.2577 17.68 61.2791 17.68C61.3751 17.68 61.4817 17.7973 61.5991 18.032C61.7164 18.2667 61.7751 18.6027 61.7751 19.04V22.704C61.7751 23.0027 61.8124 23.232 61.8871 23.392C61.9724 23.552 62.1217 23.664 62.3351 23.728C62.5591 23.7813 62.8791 23.808 63.2951 23.808C63.3271 23.808 63.3431 23.84 63.3431 23.904C63.3431 23.968 63.3271 24 63.2951 24C63.0177 24 62.7031 23.9947 62.3511 23.984C61.9991 23.9733 61.6257 23.968 61.2311 23.968C60.9431 23.968 60.6657 23.9733 60.3991 23.984C60.1431 23.9947 59.9191 24 59.7271 24ZM65.7293 24C65.6973 24 65.6813 23.968 65.6813 23.904C65.6813 23.84 65.6973 23.808 65.7293 23.808C66.1133 23.808 66.3693 23.7387 66.4973 23.6C66.6253 23.4507 66.6893 23.152 66.6893 22.704V19.76C66.6893 19.3867 66.652 19.1147 66.5773 18.944C66.5026 18.7733 66.3693 18.688 66.1773 18.688C66.092 18.688 65.9906 18.704 65.8733 18.736C65.7666 18.768 65.6386 18.8213 65.4893 18.896C65.4466 18.9067 65.4093 18.8853 65.3773 18.832C65.356 18.768 65.3666 18.7253 65.4093 18.704L67.5853 17.696C67.6173 17.6853 67.6386 17.68 67.6493 17.68C67.6813 17.68 67.7133 17.696 67.7453 17.728C67.788 17.76 67.8093 17.7973 67.8093 17.84C67.8093 17.936 67.804 18.144 67.7933 18.464C67.7826 18.784 67.7773 19.2053 67.7773 19.728V22.704C67.7773 23.152 67.836 23.4507 67.9533 23.6C68.0813 23.7387 68.3426 23.808 68.7373 23.808C68.7693 23.808 68.7853 23.84 68.7853 23.904C68.7853 23.968 68.7693 24 68.7373 24C68.5453 24 68.316 23.9947 68.0493 23.984C67.7933 23.9733 67.5213 23.968 67.2333 23.968C66.9453 23.968 66.6733 23.9733 66.4173 23.984C66.1613 23.9947 65.932 24 65.7293 24ZM67.1373 15.888C66.892 15.888 66.6946 15.824 66.5453 15.696C66.4066 15.5573 66.3373 15.3653 66.3373 15.12C66.3373 14.8853 66.4066 14.704 66.5453 14.576C66.6946 14.448 66.892 14.384 67.1373 14.384C67.372 14.384 67.5533 14.448 67.6813 14.576C67.82 14.704 67.8893 14.8853 67.8893 15.12C67.8893 15.632 67.6386 15.888 67.1373 15.888ZM74.2498 24C74.2178 24 74.2018 23.968 74.2018 23.904C74.2018 23.84 74.2178 23.808 74.2498 23.808C74.6338 23.808 74.8845 23.7387 75.0018 23.6C75.1298 23.4507 75.1938 23.152 75.1938 22.704V20.192C75.1938 19.584 75.0818 19.136 74.8578 18.848C74.6338 18.5493 74.2765 18.4 73.7858 18.4C73.4125 18.4 73.0338 18.512 72.6498 18.736C72.2765 18.9493 71.9565 19.248 71.6898 19.632L71.6258 19.44C72.0631 18.8427 72.5111 18.3893 72.9698 18.08C73.4391 17.7707 73.9298 17.616 74.4418 17.616C75.0285 17.616 75.4818 17.7867 75.8018 18.128C76.1325 18.4693 76.2978 18.9547 76.2978 19.584V22.704C76.2978 23.152 76.3565 23.4507 76.4738 23.6C76.6018 23.7387 76.8631 23.808 77.2578 23.808C77.2898 23.808 77.3058 23.84 77.3058 23.904C77.3058 23.968 77.2898 24 77.2578 24C77.0551 24 76.8258 23.9947 76.5698 23.984C76.3138 23.9733 76.0418 23.968 75.7538 23.968C75.4658 23.968 75.1885 23.9733 74.9218 23.984C74.6658 23.9947 74.4418 24 74.2498 24ZM69.9458 24C69.9138 24 69.8978 23.968 69.8978 23.904C69.8978 23.84 69.9138 23.808 69.9458 23.808C70.3298 23.808 70.5805 23.7387 70.6978 23.6C70.8258 23.4507 70.8898 23.152 70.8898 22.704V19.584C70.8898 19.2427 70.8471 18.992 70.7618 18.832C70.6871 18.672 70.5538 18.592 70.3618 18.592C70.2551 18.592 70.1325 18.6133 69.9938 18.656C69.8551 18.688 69.6951 18.7413 69.5138 18.816C69.4711 18.8373 69.4391 18.8213 69.4178 18.768C69.3965 18.704 69.4018 18.6613 69.4338 18.64L71.4018 17.696C71.4445 17.6853 71.4765 17.68 71.4978 17.68C71.5938 17.68 71.7005 17.7973 71.8178 18.032C71.9351 18.2667 71.9938 18.6027 71.9938 19.04V22.704C71.9938 23.152 72.0525 23.4507 72.1698 23.6C72.2978 23.7387 72.5591 23.808 72.9538 23.808C72.9858 23.808 73.0018 23.84 73.0018 23.904C73.0018 23.968 72.9858 24 72.9538 24C72.7511 24 72.5218 23.9947 72.2658 23.984C72.0098 23.9733 71.7378 23.968 71.4498 23.968C71.1618 23.968 70.8845 23.9733 70.6178 23.984C70.3618 23.9947 70.1378 24 69.9458 24ZM80.7063 28.496C80.045 28.496 79.5063 28.384 79.0903 28.16C78.6743 27.936 78.4663 27.648 78.4663 27.296C78.4663 27.0613 78.5303 26.896 78.6583 26.8C78.7863 26.7147 78.9196 26.672 79.0583 26.672C79.261 26.672 79.4156 26.72 79.5223 26.816C79.6396 26.9227 79.741 27.0507 79.8263 27.2C79.9223 27.3493 80.0236 27.4933 80.1303 27.632C80.2476 27.7813 80.397 27.904 80.5783 28C80.7703 28.1067 81.021 28.16 81.3303 28.16C81.6076 28.16 81.8636 28.0907 82.0983 27.952C82.333 27.824 82.5196 27.568 82.6583 27.184C82.8076 26.8 82.8823 26.24 82.8823 25.504V18.24C83.0956 18.1653 83.2716 18.096 83.4103 18.032C83.549 17.9573 83.6823 17.8347 83.8103 17.664C83.8316 17.6427 83.8636 17.6427 83.9063 17.664C83.949 17.6747 83.9703 17.6907 83.9703 17.712V25.12C83.9703 25.7813 83.8423 26.3627 83.5863 26.864C83.3303 27.376 82.9623 27.776 82.4823 28.064C82.0023 28.352 81.4103 28.496 80.7063 28.496ZM80.4663 24.176C80.0503 24.176 79.661 24.0693 79.2983 23.856C78.9463 23.6427 78.6636 23.3333 78.4503 22.928C78.237 22.5227 78.1303 22.016 78.1303 21.408C78.1303 20.8107 78.237 20.2773 78.4503 19.808C78.6636 19.3387 78.9463 18.944 79.2983 18.624C79.661 18.2933 80.0556 18.0427 80.4823 17.872C80.909 17.7013 81.3356 17.616 81.7623 17.616C82.1463 17.616 82.5036 17.6853 82.8343 17.824C83.1756 17.9627 83.4636 18.1547 83.6983 18.4L82.8823 19.328C82.8823 19.0507 82.8076 18.8107 82.6583 18.608C82.5196 18.3947 82.333 18.2293 82.0983 18.112C81.8743 17.9947 81.629 17.936 81.3623 17.936C80.957 17.936 80.605 18.064 80.3063 18.32C80.0076 18.576 79.773 18.928 79.6023 19.376C79.4423 19.824 79.3623 20.336 79.3623 20.912C79.3623 21.712 79.517 22.352 79.8263 22.832C80.1356 23.312 80.557 23.552 81.0903 23.552C81.357 23.552 81.613 23.4933 81.8583 23.376C82.1143 23.2587 82.349 23.1147 82.5623 22.944C82.7756 22.7627 82.973 22.5813 83.1543 22.4L83.2823 22.512C83.0476 22.768 82.7916 23.024 82.5143 23.28C82.237 23.536 81.9276 23.7493 81.5863 23.92C81.2556 24.0907 80.8823 24.176 80.4663 24.176ZM92.8051 19.136C92.8051 20.128 92.6664 21.0667 92.3891 21.952C92.1224 22.8267 91.7331 23.6 91.2211 24.272C90.7091 24.9547 90.0851 25.488 89.3491 25.872C89.3384 25.8827 89.3171 25.872 89.2851 25.84C89.2637 25.8187 89.2637 25.7973 89.2851 25.776C90.0637 25.008 90.6237 24.0693 90.9651 22.96C91.3064 21.8507 91.4771 20.576 91.4771 19.136C91.4771 17.696 91.3064 16.4213 90.9651 15.312C90.6237 14.2027 90.0637 13.264 89.2851 12.496C89.2637 12.4747 89.2637 12.4533 89.2851 12.432C89.3171 12.4 89.3384 12.3893 89.3491 12.4C90.0851 12.784 90.7091 13.3173 91.2211 14C91.7331 14.672 92.1224 15.4453 92.3891 16.32C92.6664 17.1947 92.8051 18.1333 92.8051 19.136Z" fill="#222222"/>
<path d="M111.236 22.1278C111.236 23.0507 110.958 23.7825 110.388 24.3708C109.818 24.9592 109.127 25.2423 108.278 25.2423C107.43 25.2423 106.735 24.9555 106.157 24.3598C105.58 23.7641 105.298 23.036 105.298 22.1241V12.2584H104V22.1388C104 23.378 104.41 24.4186 105.214 25.2386C106.018 26.0586 107.02 26.4741 108.187 26.4741H108.362C109.518 26.4741 110.512 26.055 111.32 25.2276C112.125 24.4002 112.534 23.3486 112.534 22.1021V12.2547H111.236V22.1204V22.1278Z" fill="#222222"/>
<path d="M134.767 12.2621H133.472V23.2273L123.896 11.3943V26.1322H125.19V15.156L134.767 27V12.2621Z" fill="#222222"/>
<path d="M164.992 11.8509L160.905 26.184L162.153 26.5438L166.24 12.2107L164.992 11.8509Z" fill="#222222"/>
<path d="M177.556 24.9041V12.2621H176.262V26.1322H181.608V24.9041H177.556Z" fill="#222222"/>
<path d="M196.844 12.0011C192.891 12.0011 189.688 15.2222 189.688 19.1972C189.688 23.1722 192.891 26.3933 196.844 26.3933C200.797 26.3933 204 23.1722 204 19.1972C204 15.2222 200.797 12.0011 196.844 12.0011ZM196.844 13.3064C200.077 13.3064 202.702 15.9503 202.702 19.1972C202.702 22.4441 200.073 25.0879 196.844 25.0879C193.615 25.0879 190.986 22.4441 190.986 19.1972C190.986 15.9503 193.615 13.3064 196.844 13.3064Z" fill="#222222"/>
<path d="M151.473 13.494V12.2621H146.131V26.1322H147.426V21.1608H150.702V19.9289H147.426V13.494H151.473Z" fill="#222222"/>
<path d="M224.179 24C224.155 24 224.143 23.964 224.143 23.892C224.143 23.82 224.155 23.784 224.179 23.784C224.623 23.784 224.917 23.706 225.061 23.55C225.205 23.382 225.277 23.046 225.277 22.542V19.77C225.277 18.402 224.779 17.718 223.783 17.718C223.375 17.718 222.967 17.844 222.559 18.096C222.151 18.348 221.803 18.684 221.515 19.104L221.443 18.888C221.923 18.216 222.415 17.712 222.919 17.376C223.423 17.028 223.957 16.854 224.521 16.854C225.145 16.854 225.625 17.034 225.961 17.394C226.309 17.754 226.483 18.312 226.483 19.068V22.542C226.483 23.046 226.549 23.382 226.681 23.55C226.825 23.706 227.119 23.784 227.563 23.784C227.611 23.784 227.635 23.82 227.635 23.892C227.635 23.964 227.611 24 227.563 24C227.347 24 227.089 23.994 226.789 23.982C226.501 23.97 226.195 23.964 225.871 23.964C225.559 23.964 225.253 23.97 224.953 23.982C224.665 23.994 224.407 24 224.179 24ZM219.517 24C219.481 24 219.463 23.964 219.463 23.892C219.463 23.82 219.481 23.784 219.517 23.784C219.949 23.784 220.237 23.706 220.381 23.55C220.525 23.382 220.597 23.046 220.597 22.542V19.77C220.597 18.402 220.105 17.718 219.121 17.718C218.701 17.718 218.287 17.844 217.879 18.096C217.483 18.348 217.141 18.684 216.853 19.104L216.781 18.888C217.261 18.216 217.753 17.712 218.257 17.376C218.761 17.028 219.289 16.854 219.841 16.854C220.465 16.854 220.951 17.034 221.299 17.394C221.647 17.742 221.821 18.27 221.821 18.978V22.542C221.821 23.046 221.887 23.382 222.019 23.55C222.163 23.706 222.457 23.784 222.901 23.784C222.937 23.784 222.955 23.82 222.955 23.892C222.955 23.964 222.937 24 222.901 24C222.673 24 222.415 23.994 222.127 23.982C221.839 23.97 221.533 23.964 221.209 23.964C220.885 23.964 220.573 23.97 220.273 23.982C219.985 23.994 219.733 24 219.517 24ZM214.891 24C214.855 24 214.837 23.964 214.837 23.892C214.837 23.82 214.855 23.784 214.891 23.784C215.323 23.784 215.605 23.706 215.737 23.55C215.881 23.382 215.953 23.046 215.953 22.542V19.032C215.953 18.648 215.905 18.366 215.809 18.186C215.725 18.006 215.575 17.916 215.359 17.916C215.239 17.916 215.101 17.94 214.945 17.988C214.789 18.024 214.609 18.084 214.405 18.168C214.357 18.192 214.321 18.174 214.297 18.114C214.273 18.042 214.279 17.994 214.315 17.97L216.529 16.908C216.577 16.896 216.613 16.89 216.637 16.89C216.745 16.89 216.865 17.022 216.997 17.286C217.129 17.55 217.195 17.928 217.195 18.42V22.542C217.195 23.046 217.261 23.382 217.393 23.55C217.537 23.706 217.831 23.784 218.275 23.784C218.311 23.784 218.329 23.82 218.329 23.892C218.329 23.964 218.311 24 218.275 24C218.047 24 217.789 23.994 217.501 23.982C217.213 23.97 216.907 23.964 216.583 23.964C216.259 23.964 215.947 23.97 215.647 23.982C215.359 23.994 215.107 24 214.891 24ZM231.192 24.198C230.724 24.198 230.286 24.078 229.878 23.838C229.482 23.598 229.164 23.25 228.924 22.794C228.684 22.338 228.564 21.768 228.564 21.084C228.564 20.412 228.684 19.812 228.924 19.284C229.164 18.756 229.482 18.312 229.878 17.952C230.286 17.58 230.73 17.298 231.21 17.106C231.69 16.914 232.17 16.818 232.65 16.818C233.082 16.818 233.484 16.896 233.856 17.052C234.24 17.208 234.564 17.424 234.828 17.7L233.91 18.744C233.91 18.432 233.826 18.162 233.658 17.934C233.502 17.694 233.292 17.508 233.028 17.376C232.776 17.244 232.5 17.178 232.2 17.178C231.744 17.178 231.348 17.322 231.012 17.61C230.676 17.898 230.412 18.294 230.22 18.798C230.04 19.302 229.95 19.878 229.95 20.526C229.95 21.426 230.124 22.146 230.472 22.686C230.82 23.226 231.294 23.496 231.894 23.496C232.194 23.496 232.482 23.43 232.758 23.298C233.046 23.166 233.31 23.004 233.55 22.812C233.79 22.608 234.012 22.404 234.216 22.2L234.36 22.326C234.096 22.614 233.808 22.902 233.496 23.19C233.184 23.478 232.836 23.718 232.452 23.91C232.08 24.102 231.66 24.198 231.192 24.198ZM234.414 24.198C234.306 24.198 234.192 24.054 234.072 23.766C233.964 23.466 233.91 23.058 233.91 22.542V17.52C234.15 17.436 234.348 17.358 234.504 17.286C234.66 17.202 234.81 17.064 234.954 16.872C234.978 16.848 235.014 16.848 235.062 16.872C235.11 16.884 235.134 16.902 235.134 16.926V22.074C235.134 22.458 235.176 22.734 235.26 22.902C235.356 23.07 235.512 23.154 235.728 23.154C235.836 23.154 235.962 23.136 236.106 23.1C236.25 23.052 236.418 22.992 236.61 22.92C236.658 22.896 236.694 22.914 236.718 22.974C236.754 23.034 236.748 23.076 236.7 23.1L234.486 24.18C234.462 24.192 234.438 24.198 234.414 24.198ZM240.286 29.058C239.542 29.058 238.936 28.932 238.468 28.68C238 28.428 237.766 28.104 237.766 27.708C237.766 27.444 237.838 27.258 237.982 27.15C238.126 27.054 238.276 27.006 238.432 27.006C238.66 27.006 238.834 27.06 238.954 27.168C239.086 27.288 239.2 27.432 239.296 27.6C239.404 27.768 239.518 27.93 239.638 28.086C239.77 28.254 239.938 28.392 240.142 28.5C240.358 28.62 240.64 28.68 240.988 28.68C241.3 28.68 241.588 28.602 241.852 28.446C242.116 28.302 242.326 28.014 242.482 27.582C242.65 27.15 242.734 26.52 242.734 25.692V17.52C242.974 17.436 243.172 17.358 243.328 17.286C243.484 17.202 243.634 17.064 243.778 16.872C243.802 16.848 243.838 16.848 243.886 16.872C243.934 16.884 243.958 16.902 243.958 16.926V25.26C243.958 26.004 243.814 26.658 243.526 27.222C243.238 27.798 242.824 28.248 242.284 28.572C241.744 28.896 241.078 29.058 240.286 29.058ZM240.016 24.198C239.548 24.198 239.11 24.078 238.702 23.838C238.306 23.598 237.988 23.25 237.748 22.794C237.508 22.338 237.388 21.768 237.388 21.084C237.388 20.412 237.508 19.812 237.748 19.284C237.988 18.756 238.306 18.312 238.702 17.952C239.11 17.58 239.554 17.298 240.034 17.106C240.514 16.914 240.994 16.818 241.474 16.818C241.906 16.818 242.308 16.896 242.68 17.052C243.064 17.208 243.388 17.424 243.652 17.7L242.734 18.744C242.734 18.432 242.65 18.162 242.482 17.934C242.326 17.694 242.116 17.508 241.852 17.376C241.6 17.244 241.324 17.178 241.024 17.178C240.568 17.178 240.172 17.322 239.836 17.61C239.5 17.898 239.236 18.294 239.044 18.798C238.864 19.302 238.774 19.878 238.774 20.526C238.774 21.426 238.948 22.146 239.296 22.686C239.644 23.226 240.118 23.496 240.718 23.496C241.018 23.496 241.306 23.43 241.582 23.298C241.87 23.166 242.134 23.004 242.374 22.812C242.614 22.608 242.836 22.404 243.04 22.2L243.184 22.326C242.92 22.614 242.632 22.902 242.32 23.19C242.008 23.478 241.66 23.718 241.276 23.91C240.904 24.102 240.484 24.198 240.016 24.198ZM248.418 24.198C247.95 24.198 247.512 24.078 247.104 23.838C246.708 23.598 246.39 23.25 246.15 22.794C245.91 22.338 245.79 21.768 245.79 21.084C245.79 20.412 245.91 19.812 246.15 19.284C246.39 18.756 246.708 18.312 247.104 17.952C247.512 17.58 247.956 17.298 248.436 17.106C248.916 16.914 249.396 16.818 249.876 16.818C250.308 16.818 250.71 16.896 251.082 17.052C251.466 17.208 251.79 17.424 252.054 17.7L251.136 18.744C251.136 18.432 251.052 18.162 250.884 17.934C250.728 17.694 250.518 17.508 250.254 17.376C250.002 17.244 249.726 17.178 249.426 17.178C248.97 17.178 248.574 17.322 248.238 17.61C247.902 17.898 247.638 18.294 247.446 18.798C247.266 19.302 247.176 19.878 247.176 20.526C247.176 21.426 247.35 22.146 247.698 22.686C248.046 23.226 248.52 23.496 249.12 23.496C249.42 23.496 249.708 23.43 249.984 23.298C250.272 23.166 250.536 23.004 250.776 22.812C251.016 22.608 251.238 22.404 251.442 22.2L251.586 22.326C251.322 22.614 251.034 22.902 250.722 23.19C250.41 23.478 250.062 23.718 249.678 23.91C249.306 24.102 248.886 24.198 248.418 24.198ZM251.64 24.198C251.532 24.198 251.418 24.054 251.298 23.766C251.19 23.466 251.136 23.058 251.136 22.542V17.52C251.376 17.436 251.574 17.358 251.73 17.286C251.886 17.202 252.036 17.064 252.18 16.872C252.204 16.848 252.24 16.848 252.288 16.872C252.336 16.884 252.36 16.902 252.36 16.926V22.074C252.36 22.458 252.402 22.734 252.486 22.902C252.582 23.07 252.738 23.154 252.954 23.154C253.062 23.154 253.188 23.136 253.332 23.1C253.476 23.052 253.644 22.992 253.836 22.92C253.884 22.896 253.92 22.914 253.944 22.974C253.98 23.034 253.974 23.076 253.926 23.1L251.712 24.18C251.688 24.192 251.664 24.198 251.64 24.198ZM254.686 23.784L258.916 17.412C258.964 17.328 258.934 17.286 258.826 17.286C258.022 17.286 257.356 17.34 256.828 17.448C256.3 17.544 255.88 17.712 255.568 17.952C255.256 18.192 255.028 18.54 254.884 18.996C254.872 19.02 254.83 19.026 254.758 19.014C254.698 19.002 254.674 18.978 254.686 18.942L255.334 16.476C255.346 16.452 255.388 16.446 255.46 16.458C255.532 16.458 255.562 16.47 255.55 16.494C255.49 16.722 255.526 16.872 255.658 16.944C255.802 17.016 256.054 17.052 256.414 17.052C256.858 17.052 257.404 17.052 258.052 17.052C258.7 17.052 259.456 17.052 260.32 17.052C260.38 17.052 260.422 17.076 260.446 17.124C260.482 17.172 260.488 17.22 260.464 17.268L256.27 23.586C256.222 23.67 256.252 23.712 256.36 23.712C257.116 23.712 257.734 23.688 258.214 23.64C258.694 23.592 259.078 23.502 259.366 23.37C259.666 23.238 259.9 23.052 260.068 22.812C260.236 22.56 260.374 22.242 260.482 21.858C260.494 21.822 260.53 21.804 260.59 21.804C260.65 21.804 260.68 21.822 260.68 21.858L260.644 23.802C260.644 23.85 260.626 23.898 260.59 23.946C260.566 23.982 260.53 24 260.482 24C259.906 24 259.294 24 258.646 24C257.998 24 257.344 24 256.684 24C256.036 24 255.412 24 254.812 24C254.764 24 254.722 23.976 254.686 23.928C254.662 23.88 254.662 23.832 254.686 23.784ZM262.161 24C262.125 24 262.107 23.964 262.107 23.892C262.107 23.82 262.125 23.784 262.161 23.784C262.593 23.784 262.881 23.706 263.025 23.55C263.169 23.382 263.241 23.046 263.241 22.542V19.23C263.241 18.81 263.199 18.504 263.115 18.312C263.031 18.12 262.881 18.024 262.665 18.024C262.569 18.024 262.455 18.042 262.323 18.078C262.203 18.114 262.059 18.174 261.891 18.258C261.843 18.27 261.801 18.246 261.765 18.186C261.741 18.114 261.753 18.066 261.801 18.042L264.249 16.908C264.285 16.896 264.309 16.89 264.321 16.89C264.357 16.89 264.393 16.908 264.429 16.944C264.477 16.98 264.501 17.022 264.501 17.07C264.501 17.178 264.495 17.412 264.483 17.772C264.471 18.132 264.465 18.606 264.465 19.194V22.542C264.465 23.046 264.531 23.382 264.663 23.55C264.807 23.706 265.101 23.784 265.545 23.784C265.581 23.784 265.599 23.82 265.599 23.892C265.599 23.964 265.581 24 265.545 24C265.329 24 265.071 23.994 264.771 23.982C264.483 23.97 264.177 23.964 263.853 23.964C263.529 23.964 263.223 23.97 262.935 23.982C262.647 23.994 262.389 24 262.161 24ZM263.745 14.874C263.469 14.874 263.247 14.802 263.079 14.658C262.923 14.502 262.845 14.286 262.845 14.01C262.845 13.746 262.923 13.542 263.079 13.398C263.247 13.254 263.469 13.182 263.745 13.182C264.009 13.182 264.213 13.254 264.357 13.398C264.513 13.542 264.591 13.746 264.591 14.01C264.591 14.586 264.309 14.874 263.745 14.874ZM271.747 24C271.711 24 271.693 23.964 271.693 23.892C271.693 23.82 271.711 23.784 271.747 23.784C272.179 23.784 272.461 23.706 272.593 23.55C272.737 23.382 272.809 23.046 272.809 22.542V19.716C272.809 19.032 272.683 18.528 272.431 18.204C272.179 17.868 271.777 17.7 271.225 17.7C270.805 17.7 270.379 17.826 269.947 18.078C269.527 18.318 269.167 18.654 268.867 19.086L268.795 18.87C269.287 18.198 269.791 17.688 270.307 17.34C270.835 16.992 271.387 16.818 271.963 16.818C272.623 16.818 273.133 17.01 273.493 17.394C273.865 17.778 274.051 18.324 274.051 19.032V22.542C274.051 23.046 274.117 23.382 274.249 23.55C274.393 23.706 274.687 23.784 275.131 23.784C275.167 23.784 275.185 23.82 275.185 23.892C275.185 23.964 275.167 24 275.131 24C274.903 24 274.645 23.994 274.357 23.982C274.069 23.97 273.763 23.964 273.439 23.964C273.115 23.964 272.803 23.97 272.503 23.982C272.215 23.994 271.963 24 271.747 24ZM266.905 24C266.869 24 266.851 23.964 266.851 23.892C266.851 23.82 266.869 23.784 266.905 23.784C267.337 23.784 267.619 23.706 267.751 23.55C267.895 23.382 267.967 23.046 267.967 22.542V19.032C267.967 18.648 267.919 18.366 267.823 18.186C267.739 18.006 267.589 17.916 267.373 17.916C267.253 17.916 267.115 17.94 266.959 17.988C266.803 18.024 266.623 18.084 266.419 18.168C266.371 18.192 266.335 18.174 266.311 18.114C266.287 18.042 266.293 17.994 266.329 17.97L268.543 16.908C268.591 16.896 268.627 16.89 268.651 16.89C268.759 16.89 268.879 17.022 269.011 17.286C269.143 17.55 269.209 17.928 269.209 18.42V22.542C269.209 23.046 269.275 23.382 269.407 23.55C269.551 23.706 269.845 23.784 270.289 23.784C270.325 23.784 270.343 23.82 270.343 23.892C270.343 23.964 270.325 24 270.289 24C270.061 24 269.803 23.994 269.515 23.982C269.227 23.97 268.921 23.964 268.597 23.964C268.273 23.964 267.961 23.97 267.661 23.982C267.373 23.994 267.121 24 266.905 24ZM279.514 24.216C278.77 24.216 278.146 24.054 277.642 23.73C277.138 23.394 276.754 22.962 276.49 22.434C276.238 21.906 276.112 21.342 276.112 20.742C276.112 20.022 276.28 19.374 276.616 18.798C276.964 18.21 277.432 17.748 278.02 17.412C278.608 17.064 279.262 16.89 279.982 16.89C280.678 16.89 281.212 17.064 281.584 17.412C281.968 17.76 282.16 18.27 282.16 18.942C282.16 19.098 282.142 19.224 282.106 19.32C282.082 19.404 282.028 19.446 281.944 19.446H280.702C280.75 18.726 280.654 18.18 280.414 17.808C280.186 17.436 279.838 17.25 279.37 17.25C278.782 17.25 278.32 17.502 277.984 18.006C277.66 18.51 277.498 19.188 277.498 20.04C277.498 20.724 277.606 21.33 277.822 21.858C278.038 22.374 278.356 22.776 278.776 23.064C279.196 23.352 279.706 23.496 280.306 23.496C280.702 23.496 281.026 23.442 281.278 23.334C281.542 23.226 281.812 23.094 282.088 22.938C282.112 22.914 282.142 22.932 282.178 22.992C282.226 23.04 282.238 23.082 282.214 23.118C281.782 23.514 281.344 23.796 280.9 23.964C280.456 24.132 279.994 24.216 279.514 24.216ZM277.084 19.464L277.066 19.194L281.098 19.122V19.446L277.084 19.464Z" fill="#222222"/>
<path d="M294.135 23C294.111 23 294.099 22.964 294.099 22.892C294.099 22.82 294.111 22.784 294.135 22.784C294.579 22.784 294.903 22.754 295.107 22.694C295.323 22.634 295.467 22.514 295.539 22.334C295.623 22.154 295.665 21.89 295.665 21.542V13.208C295.665 12.86 295.629 12.602 295.557 12.434C295.485 12.254 295.341 12.134 295.125 12.074C294.921 12.002 294.615 11.966 294.207 11.966C294.171 11.966 294.153 11.93 294.153 11.858C294.153 11.786 294.171 11.75 294.207 11.75H301.551C301.671 11.75 301.731 11.804 301.731 11.912L301.767 14.18C301.767 14.216 301.731 14.24 301.659 14.252C301.599 14.252 301.563 14.234 301.551 14.198C301.467 13.538 301.233 13.04 300.849 12.704C300.465 12.356 299.961 12.182 299.337 12.182H298.419C297.891 12.182 297.537 12.254 297.357 12.398C297.177 12.542 297.087 12.818 297.087 13.226V21.47C297.087 21.83 297.135 22.106 297.231 22.298C297.327 22.478 297.525 22.604 297.825 22.676C298.137 22.748 298.593 22.784 299.193 22.784C299.217 22.784 299.229 22.82 299.229 22.892C299.229 22.964 299.217 23 299.193 23C298.797 23 298.365 22.994 297.897 22.982C297.441 22.97 296.925 22.964 296.349 22.964C295.941 22.964 295.545 22.97 295.161 22.982C294.777 22.994 294.435 23 294.135 23ZM300.651 19.076C300.651 18.56 300.495 18.182 300.183 17.942C299.871 17.69 299.373 17.564 298.689 17.564H296.403V17.15H298.743C299.403 17.15 299.883 17.042 300.183 16.826C300.483 16.61 300.633 16.286 300.633 15.854C300.633 15.83 300.669 15.818 300.741 15.818C300.813 15.818 300.849 15.83 300.849 15.854C300.849 16.226 300.843 16.514 300.831 16.718C300.831 16.922 300.831 17.138 300.831 17.366C300.831 17.642 300.837 17.918 300.849 18.194C300.861 18.47 300.867 18.764 300.867 19.076C300.867 19.1 300.831 19.112 300.759 19.112C300.687 19.112 300.651 19.1 300.651 19.076ZM306.306 23.216C305.562 23.216 304.938 23.054 304.434 22.73C303.93 22.394 303.546 21.962 303.282 21.434C303.03 20.906 302.904 20.342 302.904 19.742C302.904 19.022 303.072 18.374 303.408 17.798C303.756 17.21 304.224 16.748 304.812 16.412C305.4 16.064 306.054 15.89 306.774 15.89C307.47 15.89 308.004 16.064 308.376 16.412C308.76 16.76 308.952 17.27 308.952 17.942C308.952 18.098 308.934 18.224 308.898 18.32C308.874 18.404 308.82 18.446 308.736 18.446H307.494C307.542 17.726 307.446 17.18 307.206 16.808C306.978 16.436 306.63 16.25 306.162 16.25C305.574 16.25 305.112 16.502 304.776 17.006C304.452 17.51 304.29 18.188 304.29 19.04C304.29 19.724 304.398 20.33 304.614 20.858C304.83 21.374 305.148 21.776 305.568 22.064C305.988 22.352 306.498 22.496 307.098 22.496C307.494 22.496 307.818 22.442 308.07 22.334C308.334 22.226 308.604 22.094 308.88 21.938C308.904 21.914 308.934 21.932 308.97 21.992C309.018 22.04 309.03 22.082 309.006 22.118C308.574 22.514 308.136 22.796 307.692 22.964C307.248 23.132 306.786 23.216 306.306 23.216ZM303.876 18.464L303.858 18.194L307.89 18.122V18.446L303.876 18.464ZM312.827 23.198C312.359 23.198 311.921 23.078 311.513 22.838C311.117 22.598 310.799 22.25 310.559 21.794C310.319 21.338 310.199 20.768 310.199 20.084C310.199 19.412 310.319 18.812 310.559 18.284C310.799 17.756 311.117 17.312 311.513 16.952C311.921 16.58 312.365 16.298 312.845 16.106C313.325 15.914 313.805 15.818 314.285 15.818C314.717 15.818 315.119 15.896 315.491 16.052C315.875 16.208 316.199 16.424 316.463 16.7L315.545 17.744C315.545 17.432 315.461 17.162 315.293 16.934C315.137 16.694 314.927 16.508 314.663 16.376C314.411 16.244 314.135 16.178 313.835 16.178C313.379 16.178 312.983 16.322 312.647 16.61C312.311 16.898 312.047 17.294 311.855 17.798C311.675 18.302 311.585 18.878 311.585 19.526C311.585 20.426 311.759 21.146 312.107 21.686C312.455 22.226 312.929 22.496 313.529 22.496C313.829 22.496 314.117 22.43 314.393 22.298C314.681 22.166 314.945 22.004 315.185 21.812C315.425 21.608 315.647 21.404 315.851 21.2L315.995 21.326C315.731 21.614 315.443 21.902 315.131 22.19C314.819 22.478 314.471 22.718 314.087 22.91C313.715 23.102 313.295 23.198 312.827 23.198ZM316.049 23.198C315.941 23.198 315.827 23.054 315.707 22.766C315.599 22.466 315.545 22.058 315.545 21.542V16.52C315.785 16.436 315.983 16.358 316.139 16.286C316.295 16.202 316.445 16.064 316.589 15.872C316.613 15.848 316.649 15.848 316.697 15.872C316.745 15.884 316.769 15.902 316.769 15.926V21.074C316.769 21.458 316.811 21.734 316.895 21.902C316.991 22.07 317.147 22.154 317.363 22.154C317.471 22.154 317.597 22.136 317.741 22.1C317.885 22.052 318.053 21.992 318.245 21.92C318.293 21.896 318.329 21.914 318.353 21.974C318.389 22.034 318.383 22.076 318.335 22.1L316.121 23.18C316.097 23.192 316.073 23.198 316.049 23.198ZM321.76 23.216C321.472 23.216 321.19 23.168 320.914 23.072C320.638 22.988 320.41 22.832 320.23 22.604C320.062 22.376 319.978 22.07 319.978 21.686V17.528C319.978 17.252 319.954 17.042 319.906 16.898C319.858 16.754 319.768 16.658 319.636 16.61C319.504 16.562 319.306 16.538 319.042 16.538C319.006 16.538 318.988 16.496 318.988 16.412C318.988 16.316 319.006 16.268 319.042 16.268C319.57 16.256 319.996 16.13 320.32 15.89C320.656 15.638 320.866 15.296 320.95 14.864C320.962 14.828 321.01 14.81 321.094 14.81C321.178 14.81 321.22 14.828 321.22 14.864V21.074C321.22 21.566 321.34 21.926 321.58 22.154C321.832 22.382 322.174 22.496 322.606 22.496C322.906 22.496 323.176 22.442 323.416 22.334C323.668 22.226 323.872 22.112 324.028 21.992C324.076 21.956 324.118 21.968 324.154 22.028C324.202 22.076 324.202 22.118 324.154 22.154C323.71 22.526 323.302 22.796 322.93 22.964C322.558 23.132 322.168 23.216 321.76 23.216ZM323.614 16.934C323.134 16.826 322.672 16.754 322.228 16.718C321.784 16.682 321.316 16.664 320.824 16.664V16.25C321.304 16.25 321.766 16.232 322.21 16.196C322.666 16.16 323.152 16.118 323.668 16.07C323.704 16.07 323.734 16.112 323.758 16.196C323.782 16.28 323.794 16.376 323.794 16.484C323.794 16.58 323.776 16.682 323.74 16.79C323.704 16.898 323.662 16.946 323.614 16.934ZM326.294 23.198C326.03 23.198 325.814 23.12 325.646 22.964C325.49 22.808 325.412 22.592 325.412 22.316C325.412 22.064 325.49 21.866 325.646 21.722C325.814 21.566 326.03 21.488 326.294 21.488C326.582 21.488 326.798 21.566 326.942 21.722C327.086 21.866 327.158 22.064 327.158 22.316C327.158 22.592 327.086 22.808 326.942 22.964C326.798 23.12 326.582 23.198 326.294 23.198ZM335.63 19.808L335.91 6.144L336.61 6.2L336.33 19.808C336.311 20.7787 336.479 21.4973 336.834 21.964C337.207 22.4307 337.823 22.664 338.682 22.664C338.738 22.664 338.766 22.72 338.766 22.832C338.766 22.944 338.738 23 338.682 23C338.271 23 337.851 22.9907 337.422 22.972C336.993 22.9533 336.507 22.944 335.966 22.944C335.462 22.944 334.986 22.9533 334.538 22.972C334.09 22.9907 333.67 23 333.278 23C333.241 23 333.222 22.944 333.222 22.832C333.222 22.72 333.241 22.664 333.278 22.664C334.062 22.664 334.641 22.4307 335.014 21.964C335.406 21.4973 335.611 20.7787 335.63 19.808ZM355.23 22.664C355.267 22.664 355.286 22.72 355.286 22.832C355.286 22.944 355.267 23 355.23 23C354.763 23 354.241 22.9907 353.662 22.972C353.083 22.9533 352.467 22.944 351.814 22.944C351.198 22.944 350.619 22.9533 350.078 22.972C349.537 22.9907 349.051 23 348.622 23C348.566 23 348.538 22.944 348.538 22.832C348.538 22.72 348.566 22.664 348.622 22.664C349.537 22.664 350.125 22.5427 350.386 22.3C350.647 22.0573 350.75 21.5347 350.694 20.732L350.134 7.544L351.226 5.976L343.974 22.804C343.955 22.8787 343.881 22.916 343.75 22.916C343.638 22.916 343.563 22.8787 343.526 22.804L336.218 7.824C335.565 6.49867 334.65 5.836 333.474 5.836C333.437 5.836 333.418 5.78 333.418 5.668C333.418 5.556 333.437 5.5 333.474 5.5C333.81 5.5 334.155 5.50933 334.51 5.528C334.883 5.54667 335.201 5.556 335.462 5.556C335.817 5.556 336.134 5.54667 336.414 5.528C336.713 5.50933 336.937 5.5 337.086 5.5C337.347 5.5 337.553 5.59333 337.702 5.78C337.851 5.948 338.075 6.34 338.374 6.956L344.73 19.864L343.694 21.656L350.442 6.2C350.535 5.976 350.647 5.808 350.778 5.696C350.927 5.56533 351.095 5.5 351.282 5.5C351.413 5.5 351.571 5.50933 351.758 5.528C351.963 5.54667 352.197 5.556 352.458 5.556C352.981 5.556 353.419 5.54667 353.774 5.528C354.129 5.50933 354.493 5.5 354.866 5.5C354.903 5.5 354.922 5.556 354.922 5.668C354.922 5.78 354.903 5.836 354.866 5.836C353.97 5.836 353.317 5.98533 352.906 6.284C352.495 6.564 352.299 7.08667 352.318 7.852L352.906 20.732C352.943 21.2733 353.018 21.684 353.13 21.964C353.242 22.244 353.457 22.4307 353.774 22.524C354.091 22.6173 354.577 22.664 355.23 22.664ZM357.24 23C357.184 23 357.156 22.944 357.156 22.832C357.156 22.72 357.184 22.664 357.24 22.664C357.912 22.664 358.36 22.5427 358.584 22.3C358.808 22.0387 358.92 21.516 358.92 20.732V15.58C358.92 14.9267 358.855 14.4507 358.724 14.152C358.593 13.8533 358.36 13.704 358.024 13.704C357.875 13.704 357.697 13.732 357.492 13.788C357.305 13.844 357.081 13.9373 356.82 14.068C356.745 14.0867 356.68 14.0493 356.624 13.956C356.587 13.844 356.605 13.7693 356.68 13.732L360.488 11.968C360.544 11.9493 360.581 11.94 360.6 11.94C360.656 11.94 360.712 11.968 360.768 12.024C360.843 12.08 360.88 12.1453 360.88 12.22C360.88 12.388 360.871 12.752 360.852 13.312C360.833 13.872 360.824 14.6093 360.824 15.524V20.732C360.824 21.516 360.927 22.0387 361.132 22.3C361.356 22.5427 361.813 22.664 362.504 22.664C362.56 22.664 362.588 22.72 362.588 22.832C362.588 22.944 362.56 23 362.504 23C362.168 23 361.767 22.9907 361.3 22.972C360.852 22.9533 360.376 22.944 359.872 22.944C359.368 22.944 358.892 22.9533 358.444 22.972C357.996 22.9907 357.595 23 357.24 23ZM359.704 8.804C359.275 8.804 358.929 8.692 358.668 8.468C358.425 8.22533 358.304 7.88933 358.304 7.46C358.304 7.04933 358.425 6.732 358.668 6.508C358.929 6.284 359.275 6.172 359.704 6.172C360.115 6.172 360.432 6.284 360.656 6.508C360.899 6.732 361.02 7.04933 361.02 7.46C361.02 8.356 360.581 8.804 359.704 8.804ZM364.507 22.664L371.087 12.752C371.162 12.6213 371.115 12.556 370.947 12.556C369.696 12.556 368.66 12.64 367.839 12.808C367.018 12.9573 366.364 13.2187 365.879 13.592C365.394 13.9653 365.039 14.5067 364.815 15.216C364.796 15.2533 364.731 15.2627 364.619 15.244C364.526 15.2253 364.488 15.188 364.507 15.132L365.515 11.296C365.534 11.2587 365.599 11.2493 365.711 11.268C365.823 11.268 365.87 11.2867 365.851 11.324C365.758 11.6787 365.814 11.912 366.019 12.024C366.243 12.136 366.635 12.192 367.195 12.192C367.886 12.192 368.735 12.192 369.743 12.192C370.751 12.192 371.927 12.192 373.271 12.192C373.364 12.192 373.43 12.2293 373.467 12.304C373.523 12.3787 373.532 12.4533 373.495 12.528L366.971 22.356C366.896 22.4867 366.943 22.552 367.111 22.552C368.287 22.552 369.248 22.5147 369.995 22.44C370.742 22.3653 371.339 22.2253 371.787 22.02C372.254 21.8147 372.618 21.5253 372.879 21.152C373.14 20.76 373.355 20.2653 373.523 19.668C373.542 19.612 373.598 19.584 373.691 19.584C373.784 19.584 373.831 19.612 373.831 19.668L373.775 22.692C373.775 22.7667 373.747 22.8413 373.691 22.916C373.654 22.972 373.598 23 373.523 23C372.627 23 371.675 23 370.667 23C369.659 23 368.642 23 367.615 23C366.607 23 365.636 23 364.703 23C364.628 23 364.563 22.9627 364.507 22.888C364.47 22.8133 364.47 22.7387 364.507 22.664ZM379.943 23.252C378.991 23.252 378.235 22.9533 377.675 22.356C377.133 21.74 376.863 20.8907 376.863 19.808V15.58C376.863 14.8707 376.797 14.3573 376.667 14.04C376.555 13.7227 376.34 13.564 376.023 13.564C375.78 13.564 375.491 13.648 375.155 13.816C375.08 13.8533 375.015 13.816 374.959 13.704C374.921 13.592 374.94 13.5267 375.015 13.508L378.319 11.968C378.356 11.9493 378.393 11.94 378.431 11.94C378.505 11.94 378.58 11.968 378.655 12.024C378.729 12.08 378.767 12.1453 378.767 12.22V18.744C378.767 19.8267 378.953 20.6293 379.327 21.152C379.719 21.656 380.307 21.908 381.091 21.908C381.763 21.908 382.425 21.712 383.079 21.32C383.751 20.928 384.32 20.4147 384.787 19.78L384.927 20.088C384.143 21.1333 383.34 21.9267 382.519 22.468C381.716 22.9907 380.857 23.252 379.943 23.252ZM386.159 12.22V19.92C386.159 20.5547 386.224 21.012 386.355 21.292C386.504 21.572 386.747 21.712 387.083 21.712C387.251 21.712 387.437 21.684 387.643 21.628C387.867 21.5533 388.137 21.4507 388.455 21.32C388.529 21.2827 388.585 21.32 388.623 21.432C388.679 21.5253 388.679 21.5907 388.623 21.628L385.151 23.28C385.113 23.2987 385.067 23.308 385.011 23.308C384.861 23.308 384.693 23.1027 384.507 22.692C384.339 22.2627 384.255 21.656 384.255 20.872V15.58C384.255 14.8707 384.189 14.3573 384.059 14.04C383.928 13.7227 383.713 13.564 383.415 13.564C383.172 13.564 382.873 13.648 382.519 13.816C382.463 13.8533 382.407 13.816 382.351 13.704C382.313 13.592 382.332 13.5267 382.407 13.508L385.711 11.968C385.748 11.9493 385.785 11.94 385.823 11.94C385.879 11.94 385.944 11.968 386.019 12.024C386.112 12.08 386.159 12.1453 386.159 12.22ZM389.353 23C389.315 23 389.297 22.944 389.297 22.832C389.297 22.72 389.315 22.664 389.353 22.664C390.043 22.664 390.491 22.5427 390.697 22.3C390.921 22.0387 391.033 21.516 391.033 20.732V6.34C391.033 5.68667 390.967 5.21067 390.837 4.912C390.725 4.61333 390.51 4.464 390.193 4.464C389.913 4.464 389.502 4.58533 388.961 4.828C388.905 4.86533 388.849 4.828 388.793 4.716C388.737 4.604 388.737 4.53867 388.793 4.52L392.489 2.728C392.545 2.70933 392.591 2.7 392.629 2.7C392.685 2.7 392.75 2.728 392.825 2.784C392.899 2.84 392.937 2.90533 392.937 2.98V20.732C392.937 21.516 393.049 22.0387 393.273 22.3C393.497 22.5427 393.954 22.664 394.645 22.664C394.701 22.664 394.729 22.72 394.729 22.832C394.729 22.944 394.701 23 394.645 23C394.29 23 393.889 22.9907 393.441 22.972C392.993 22.9533 392.517 22.944 392.013 22.944C391.509 22.944 391.023 22.9533 390.557 22.972C390.109 22.9907 389.707 23 389.353 23ZM396.409 23C396.353 23 396.325 22.944 396.325 22.832C396.325 22.72 396.353 22.664 396.409 22.664C397.025 22.664 397.417 22.5707 397.585 22.384C397.753 22.1787 397.706 21.8893 397.445 21.516L393.945 16.84L395.429 15.72L399.153 20.732C399.675 21.4413 400.198 21.9453 400.721 22.244C401.262 22.524 401.803 22.664 402.345 22.664C402.382 22.664 402.401 22.72 402.401 22.832C402.401 22.944 402.382 23 402.345 23C401.99 23 401.589 22.9907 401.141 22.972C400.693 22.9533 400.207 22.944 399.685 22.944C398.975 22.944 398.359 22.9533 397.837 22.972C397.314 22.9907 396.838 23 396.409 23ZM392.293 18.464L392.153 18.128L396.353 14.544C397.006 14.0027 397.277 13.536 397.165 13.144C397.053 12.7333 396.577 12.528 395.737 12.528C395.699 12.528 395.681 12.472 395.681 12.36C395.681 12.248 395.699 12.192 395.737 12.192C396.203 12.192 396.67 12.2013 397.137 12.22C397.603 12.2387 398.238 12.248 399.041 12.248C399.769 12.248 400.347 12.2387 400.777 12.22C401.206 12.2013 401.617 12.192 402.009 12.192C402.046 12.192 402.065 12.248 402.065 12.36C402.065 12.472 402.046 12.528 402.009 12.528C401.561 12.528 401.057 12.6027 400.497 12.752C399.937 12.8827 399.349 13.1067 398.733 13.424C398.135 13.7413 397.538 14.152 396.941 14.656L392.293 18.464ZM403.807 23C403.751 23 403.723 22.944 403.723 22.832C403.723 22.72 403.751 22.664 403.807 22.664C404.479 22.664 404.927 22.5427 405.151 22.3C405.375 22.0387 405.487 21.516 405.487 20.732V15.58C405.487 14.9267 405.421 14.4507 405.291 14.152C405.16 13.8533 404.927 13.704 404.591 13.704C404.441 13.704 404.264 13.732 404.059 13.788C403.872 13.844 403.648 13.9373 403.387 14.068C403.312 14.0867 403.247 14.0493 403.191 13.956C403.153 13.844 403.172 13.7693 403.247 13.732L407.055 11.968C407.111 11.9493 407.148 11.94 407.167 11.94C407.223 11.94 407.279 11.968 407.335 12.024C407.409 12.08 407.447 12.1453 407.447 12.22C407.447 12.388 407.437 12.752 407.419 13.312C407.4 13.872 407.391 14.6093 407.391 15.524V20.732C407.391 21.516 407.493 22.0387 407.699 22.3C407.923 22.5427 408.38 22.664 409.071 22.664C409.127 22.664 409.155 22.72 409.155 22.832C409.155 22.944 409.127 23 409.071 23C408.735 23 408.333 22.9907 407.867 22.972C407.419 22.9533 406.943 22.944 406.439 22.944C405.935 22.944 405.459 22.9533 405.011 22.972C404.563 22.9907 404.161 23 403.807 23ZM406.271 8.804C405.841 8.804 405.496 8.692 405.235 8.468C404.992 8.22533 404.871 7.88933 404.871 7.46C404.871 7.04933 404.992 6.732 405.235 6.508C405.496 6.284 405.841 6.172 406.271 6.172C406.681 6.172 406.999 6.284 407.223 6.508C407.465 6.732 407.587 7.04933 407.587 7.46C407.587 8.356 407.148 8.804 406.271 8.804ZM425.112 15.02L429.088 8.776C429.648 7.84267 429.853 7.124 429.704 6.62C429.555 6.09733 429.06 5.836 428.22 5.836C428.164 5.836 428.136 5.78 428.136 5.668C428.136 5.556 428.164 5.5 428.22 5.5C428.761 5.5 429.265 5.51867 429.732 5.556C430.217 5.57467 430.852 5.584 431.636 5.584C432.103 5.584 432.476 5.57467 432.756 5.556C433.055 5.51867 433.409 5.5 433.82 5.5C433.857 5.5 433.876 5.556 433.876 5.668C433.876 5.78 433.857 5.836 433.82 5.836C433.409 5.836 432.961 5.96667 432.476 6.228C431.991 6.47067 431.515 6.82533 431.048 7.292C430.6 7.74 430.18 8.28133 429.788 8.916L425.644 15.468L425.112 15.02ZM424.412 15.384L419.624 8.216C419.008 7.30133 418.476 6.676 418.028 6.34C417.58 6.004 417.095 5.836 416.572 5.836C416.516 5.836 416.488 5.78 416.488 5.668C416.488 5.556 416.516 5.5 416.572 5.5C416.871 5.5 417.188 5.51867 417.524 5.556C417.86 5.57467 418.177 5.584 418.476 5.584C418.999 5.584 419.512 5.584 420.016 5.584C420.52 5.56533 420.996 5.54667 421.444 5.528C421.911 5.50933 422.312 5.5 422.648 5.5C422.685 5.5 422.704 5.556 422.704 5.668C422.704 5.78 422.685 5.836 422.648 5.836C421.976 5.836 421.556 5.96667 421.388 6.228C421.239 6.48933 421.323 6.844 421.64 7.292L426.176 14.096L424.412 15.384ZM424.076 14.32L426.316 14.068V20.732C426.316 21.2733 426.363 21.684 426.456 21.964C426.568 22.244 426.783 22.4307 427.1 22.524C427.417 22.6173 427.903 22.664 428.556 22.664C428.612 22.664 428.64 22.72 428.64 22.832C428.64 22.944 428.612 23 428.556 23C428.108 23 427.595 22.9907 427.016 22.972C426.456 22.9533 425.84 22.944 425.168 22.944C424.533 22.944 423.917 22.9533 423.32 22.972C422.741 22.9907 422.228 23 421.78 23C421.724 23 421.696 22.944 421.696 22.832C421.696 22.72 421.724 22.664 421.78 22.664C422.433 22.664 422.919 22.6173 423.236 22.524C423.572 22.4307 423.796 22.244 423.908 21.964C424.02 21.684 424.076 21.2733 424.076 20.732V14.32ZM435.721 23.308C434.993 23.308 434.312 23.1213 433.677 22.748C433.061 22.3747 432.567 21.8333 432.193 21.124C431.82 20.4147 431.633 19.528 431.633 18.464C431.633 17.4187 431.82 16.4853 432.193 15.664C432.567 14.8427 433.061 14.152 433.677 13.592C434.312 13.0133 435.003 12.5747 435.749 12.276C436.496 11.9773 437.243 11.828 437.989 11.828C438.661 11.828 439.287 11.9493 439.865 12.192C440.463 12.4347 440.967 12.7707 441.377 13.2L439.949 14.824C439.949 14.3387 439.819 13.9187 439.557 13.564C439.315 13.1907 438.988 12.9013 438.577 12.696C438.185 12.4907 437.756 12.388 437.289 12.388C436.58 12.388 435.964 12.612 435.441 13.06C434.919 13.508 434.508 14.124 434.209 14.908C433.929 15.692 433.789 16.588 433.789 17.596C433.789 18.996 434.06 20.116 434.601 20.956C435.143 21.796 435.88 22.216 436.813 22.216C437.28 22.216 437.728 22.1133 438.157 21.908C438.605 21.7027 439.016 21.4507 439.389 21.152C439.763 20.8347 440.108 20.5173 440.425 20.2L440.649 20.396C440.239 20.844 439.791 21.292 439.305 21.74C438.82 22.188 438.279 22.5613 437.681 22.86C437.103 23.1587 436.449 23.308 435.721 23.308ZM440.733 23.308C440.565 23.308 440.388 23.084 440.201 22.636C440.033 22.1693 439.949 21.5347 439.949 20.732V12.92C440.323 12.7893 440.631 12.668 440.873 12.556C441.116 12.4253 441.349 12.2107 441.573 11.912C441.611 11.8747 441.667 11.8747 441.741 11.912C441.816 11.9307 441.853 11.9587 441.853 11.996V20.004C441.853 20.6013 441.919 21.0307 442.049 21.292C442.199 21.5533 442.441 21.684 442.777 21.684C442.945 21.684 443.141 21.656 443.365 21.6C443.589 21.5253 443.851 21.432 444.149 21.32C444.224 21.2827 444.28 21.3107 444.317 21.404C444.373 21.4973 444.364 21.5627 444.289 21.6L440.845 23.28C440.808 23.2987 440.771 23.308 440.733 23.308ZM460.032 23C459.995 23 459.976 22.944 459.976 22.832C459.976 22.72 459.995 22.664 460.032 22.664C460.723 22.664 461.18 22.5427 461.404 22.3C461.628 22.0387 461.74 21.516 461.74 20.732V16.42C461.74 14.292 460.965 13.228 459.416 13.228C458.781 13.228 458.147 13.424 457.512 13.816C456.877 14.208 456.336 14.7307 455.888 15.384L455.776 15.048C456.523 14.0027 457.288 13.2187 458.072 12.696C458.856 12.1547 459.687 11.884 460.564 11.884C461.535 11.884 462.281 12.164 462.804 12.724C463.345 13.284 463.616 14.152 463.616 15.328V20.732C463.616 21.516 463.719 22.0387 463.924 22.3C464.148 22.5427 464.605 22.664 465.296 22.664C465.371 22.664 465.408 22.72 465.408 22.832C465.408 22.944 465.371 23 465.296 23C464.96 23 464.559 22.9907 464.092 22.972C463.644 22.9533 463.168 22.944 462.664 22.944C462.179 22.944 461.703 22.9533 461.236 22.972C460.788 22.9907 460.387 23 460.032 23ZM452.78 23C452.724 23 452.696 22.944 452.696 22.832C452.696 22.72 452.724 22.664 452.78 22.664C453.452 22.664 453.9 22.5427 454.124 22.3C454.348 22.0387 454.46 21.516 454.46 20.732V16.42C454.46 14.292 453.695 13.228 452.164 13.228C451.511 13.228 450.867 13.424 450.232 13.816C449.616 14.208 449.084 14.7307 448.636 15.384L448.524 15.048C449.271 14.0027 450.036 13.2187 450.82 12.696C451.604 12.1547 452.425 11.884 453.284 11.884C454.255 11.884 455.011 12.164 455.552 12.724C456.093 13.2653 456.364 14.0867 456.364 15.188V20.732C456.364 21.516 456.467 22.0387 456.672 22.3C456.896 22.5427 457.353 22.664 458.044 22.664C458.1 22.664 458.128 22.72 458.128 22.832C458.128 22.944 458.1 23 458.044 23C457.689 23 457.288 22.9907 456.84 22.972C456.392 22.9533 455.916 22.944 455.412 22.944C454.908 22.944 454.423 22.9533 453.956 22.972C453.508 22.9907 453.116 23 452.78 23ZM445.584 23C445.528 23 445.5 22.944 445.5 22.832C445.5 22.72 445.528 22.664 445.584 22.664C446.256 22.664 446.695 22.5427 446.9 22.3C447.124 22.0387 447.236 21.516 447.236 20.732V15.272C447.236 14.6747 447.161 14.236 447.012 13.956C446.881 13.676 446.648 13.536 446.312 13.536C446.125 13.536 445.911 13.5733 445.668 13.648C445.425 13.704 445.145 13.7973 444.828 13.928C444.753 13.9653 444.697 13.9373 444.66 13.844C444.623 13.732 444.632 13.6573 444.688 13.62L448.132 11.968C448.207 11.9493 448.263 11.94 448.3 11.94C448.468 11.94 448.655 12.1453 448.86 12.556C449.065 12.9667 449.168 13.5547 449.168 14.32V20.732C449.168 21.516 449.271 22.0387 449.476 22.3C449.7 22.5427 450.157 22.664 450.848 22.664C450.904 22.664 450.932 22.72 450.932 22.832C450.932 22.944 450.904 23 450.848 23C450.493 23 450.092 22.9907 449.644 22.972C449.196 22.9533 448.72 22.944 448.216 22.944C447.712 22.944 447.227 22.9533 446.76 22.972C446.312 22.9907 445.92 23 445.584 23ZM470.94 23.308C470.212 23.308 469.531 23.1213 468.896 22.748C468.28 22.3747 467.785 21.8333 467.412 21.124C467.039 20.4147 466.852 19.528 466.852 18.464C466.852 17.4187 467.039 16.4853 467.412 15.664C467.785 14.8427 468.28 14.152 468.896 13.592C469.531 13.0133 470.221 12.5747 470.968 12.276C471.715 11.9773 472.461 11.828 473.208 11.828C473.88 11.828 474.505 11.9493 475.084 12.192C475.681 12.4347 476.185 12.7707 476.596 13.2L475.168 14.824C475.168 14.3387 475.037 13.9187 474.776 13.564C474.533 13.1907 474.207 12.9013 473.796 12.696C473.404 12.4907 472.975 12.388 472.508 12.388C471.799 12.388 471.183 12.612 470.66 13.06C470.137 13.508 469.727 14.124 469.428 14.908C469.148 15.692 469.008 16.588 469.008 17.596C469.008 18.996 469.279 20.116 469.82 20.956C470.361 21.796 471.099 22.216 472.032 22.216C472.499 22.216 472.947 22.1133 473.376 21.908C473.824 21.7027 474.235 21.4507 474.608 21.152C474.981 20.8347 475.327 20.5173 475.644 20.2L475.868 20.396C475.457 20.844 475.009 21.292 474.524 21.74C474.039 22.188 473.497 22.5613 472.9 22.86C472.321 23.1587 471.668 23.308 470.94 23.308ZM475.952 23.308C475.784 23.308 475.607 23.084 475.42 22.636C475.252 22.1693 475.168 21.5347 475.168 20.732V12.92C475.541 12.7893 475.849 12.668 476.092 12.556C476.335 12.4253 476.568 12.2107 476.792 11.912C476.829 11.8747 476.885 11.8747 476.96 11.912C477.035 11.9307 477.072 11.9587 477.072 11.996V20.004C477.072 20.6013 477.137 21.0307 477.268 21.292C477.417 21.5533 477.66 21.684 477.996 21.684C478.164 21.684 478.36 21.656 478.584 21.6C478.808 21.5253 479.069 21.432 479.368 21.32C479.443 21.2827 479.499 21.3107 479.536 21.404C479.592 21.4973 479.583 21.5627 479.508 21.6L476.064 23.28C476.027 23.2987 475.989 23.308 475.952 23.308ZM495.251 23C495.213 23 495.195 22.944 495.195 22.832C495.195 22.72 495.213 22.664 495.251 22.664C495.941 22.664 496.399 22.5427 496.623 22.3C496.847 22.0387 496.959 21.516 496.959 20.732V16.42C496.959 14.292 496.184 13.228 494.635 13.228C494 13.228 493.365 13.424 492.731 13.816C492.096 14.208 491.555 14.7307 491.107 15.384L490.995 15.048C491.741 14.0027 492.507 13.2187 493.291 12.696C494.075 12.1547 494.905 11.884 495.783 11.884C496.753 11.884 497.5 12.164 498.023 12.724C498.564 13.284 498.835 14.152 498.835 15.328V20.732C498.835 21.516 498.937 22.0387 499.143 22.3C499.367 22.5427 499.824 22.664 500.515 22.664C500.589 22.664 500.627 22.72 500.627 22.832C500.627 22.944 500.589 23 500.515 23C500.179 23 499.777 22.9907 499.311 22.972C498.863 22.9533 498.387 22.944 497.883 22.944C497.397 22.944 496.921 22.9533 496.455 22.972C496.007 22.9907 495.605 23 495.251 23ZM487.999 23C487.943 23 487.915 22.944 487.915 22.832C487.915 22.72 487.943 22.664 487.999 22.664C488.671 22.664 489.119 22.5427 489.343 22.3C489.567 22.0387 489.679 21.516 489.679 20.732V16.42C489.679 14.292 488.913 13.228 487.383 13.228C486.729 13.228 486.085 13.424 485.451 13.816C484.835 14.208 484.303 14.7307 483.855 15.384L483.743 15.048C484.489 14.0027 485.255 13.2187 486.039 12.696C486.823 12.1547 487.644 11.884 488.503 11.884C489.473 11.884 490.229 12.164 490.771 12.724C491.312 13.2653 491.583 14.0867 491.583 15.188V20.732C491.583 21.516 491.685 22.0387 491.891 22.3C492.115 22.5427 492.572 22.664 493.263 22.664C493.319 22.664 493.347 22.72 493.347 22.832C493.347 22.944 493.319 23 493.263 23C492.908 23 492.507 22.9907 492.059 22.972C491.611 22.9533 491.135 22.944 490.631 22.944C490.127 22.944 489.641 22.9533 489.175 22.972C488.727 22.9907 488.335 23 487.999 23ZM480.803 23C480.747 23 480.719 22.944 480.719 22.832C480.719 22.72 480.747 22.664 480.803 22.664C481.475 22.664 481.913 22.5427 482.119 22.3C482.343 22.0387 482.455 21.516 482.455 20.732V15.272C482.455 14.6747 482.38 14.236 482.231 13.956C482.1 13.676 481.867 13.536 481.531 13.536C481.344 13.536 481.129 13.5733 480.887 13.648C480.644 13.704 480.364 13.7973 480.047 13.928C479.972 13.9653 479.916 13.9373 479.879 13.844C479.841 13.732 479.851 13.6573 479.907 13.62L483.351 11.968C483.425 11.9493 483.481 11.94 483.519 11.94C483.687 11.94 483.873 12.1453 484.079 12.556C484.284 12.9667 484.387 13.5547 484.387 14.32V20.732C484.387 21.516 484.489 22.0387 484.695 22.3C484.919 22.5427 485.376 22.664 486.067 22.664C486.123 22.664 486.151 22.72 486.151 22.832C486.151 22.944 486.123 23 486.067 23C485.712 23 485.311 22.9907 484.863 22.972C484.415 22.9533 483.939 22.944 483.435 22.944C482.931 22.944 482.445 22.9533 481.979 22.972C481.531 22.9907 481.139 23 480.803 23ZM507.615 23.364C506.476 23.364 505.487 23.0933 504.647 22.552C503.825 22.0107 503.191 21.292 502.743 20.396C502.295 19.4813 502.071 18.5013 502.071 17.456C502.071 16.4853 502.248 15.6453 502.603 14.936C502.976 14.2267 503.461 13.648 504.059 13.2C504.656 12.7333 505.309 12.388 506.019 12.164C506.728 11.94 507.428 11.828 508.119 11.828C509.276 11.828 510.265 12.108 511.087 12.668C511.908 13.228 512.533 13.9467 512.963 14.824C513.411 15.7013 513.635 16.6253 513.635 17.596C513.635 18.772 513.355 19.7987 512.795 20.676C512.235 21.5347 511.497 22.1973 510.583 22.664C509.687 23.1307 508.697 23.364 507.615 23.364ZM508.427 22.832C509.341 22.832 510.051 22.4773 510.555 21.768C511.077 21.04 511.339 19.9387 511.339 18.464C511.339 17.2133 511.152 16.14 510.779 15.244C510.405 14.3293 509.901 13.6293 509.267 13.144C508.651 12.64 507.951 12.388 507.167 12.388C506.252 12.388 505.543 12.7427 505.039 13.452C504.553 14.1427 504.311 15.1693 504.311 16.532C504.311 17.708 504.488 18.7813 504.843 19.752C505.197 20.704 505.683 21.46 506.299 22.02C506.915 22.5613 507.624 22.832 508.427 22.832ZM519.835 23.336C519.387 23.336 518.948 23.2613 518.519 23.112C518.089 22.9813 517.735 22.7387 517.455 22.384C517.193 22.0293 517.063 21.5533 517.063 20.956V14.488C517.063 14.0587 517.025 13.732 516.951 13.508C516.876 13.284 516.736 13.1347 516.531 13.06C516.325 12.9853 516.017 12.948 515.607 12.948C515.551 12.948 515.523 12.8827 515.523 12.752C515.523 12.6027 515.551 12.528 515.607 12.528C516.428 12.5093 517.091 12.3133 517.595 11.94C518.117 11.548 518.444 11.016 518.575 10.344C518.593 10.288 518.668 10.26 518.799 10.26C518.929 10.26 518.995 10.288 518.995 10.344V20.004C518.995 20.7693 519.181 21.3293 519.555 21.684C519.947 22.0387 520.479 22.216 521.151 22.216C521.617 22.216 522.037 22.132 522.411 21.964C522.803 21.796 523.12 21.6187 523.363 21.432C523.437 21.376 523.503 21.3947 523.559 21.488C523.633 21.5627 523.633 21.628 523.559 21.684C522.868 22.2627 522.233 22.6827 521.655 22.944C521.076 23.2053 520.469 23.336 519.835 23.336ZM522.719 13.564C521.972 13.396 521.253 13.284 520.563 13.228C519.872 13.172 519.144 13.144 518.379 13.144V12.5C519.125 12.5 519.844 12.472 520.535 12.416C521.244 12.36 522 12.2947 522.803 12.22C522.859 12.22 522.905 12.2853 522.943 12.416C522.98 12.5467 522.999 12.696 522.999 12.864C522.999 13.0133 522.971 13.172 522.915 13.34C522.859 13.508 522.793 13.5827 522.719 13.564ZM530.584 23.364C529.445 23.364 528.456 23.0933 527.616 22.552C526.794 22.0107 526.16 21.292 525.712 20.396C525.264 19.4813 525.04 18.5013 525.04 17.456C525.04 16.4853 525.217 15.6453 525.572 14.936C525.945 14.2267 526.43 13.648 527.028 13.2C527.625 12.7333 528.278 12.388 528.988 12.164C529.697 11.94 530.397 11.828 531.088 11.828C532.245 11.828 533.234 12.108 534.056 12.668C534.877 13.228 535.502 13.9467 535.932 14.824C536.38 15.7013 536.604 16.6253 536.604 17.596C536.604 18.772 536.324 19.7987 535.764 20.676C535.204 21.5347 534.466 22.1973 533.552 22.664C532.656 23.1307 531.666 23.364 530.584 23.364ZM531.396 22.832C532.31 22.832 533.02 22.4773 533.524 21.768C534.046 21.04 534.308 19.9387 534.308 18.464C534.308 17.2133 534.121 16.14 533.748 15.244C533.374 14.3293 532.87 13.6293 532.236 13.144C531.62 12.64 530.92 12.388 530.136 12.388C529.221 12.388 528.512 12.7427 528.008 13.452C527.522 14.1427 527.28 15.1693 527.28 16.532C527.28 17.708 527.457 18.7813 527.812 19.752C528.166 20.704 528.652 21.46 529.268 22.02C529.884 22.5613 530.593 22.832 531.396 22.832Z" fill="#222222"/>
</svg>
