<svg width="137" height="46" viewBox="0 0 137 46" fill="none" xmlns="http://www.w3.org/2000/svg">
<rect width="134.243" height="22" transform="translate(3.8524) rotate(10.085)" fill="#FFD5E0"/>
<path d="M11.2153 14.7479C11.1882 14.9002 11.1808 15.0181 11.193 15.1015C11.2053 15.1849 11.2485 15.2468 11.3226 15.287C11.3967 15.3273 11.5151 15.3619 11.6779 15.3909C11.6936 15.3937 11.6987 15.4108 11.6931 15.4423C11.6875 15.4738 11.6768 15.4882 11.6611 15.4854C11.5245 15.4611 11.3727 15.4314 11.2056 15.3963C11.0385 15.3611 10.8552 15.3258 10.6557 15.2903C10.4666 15.2567 10.285 15.2271 10.1108 15.2015C9.9366 15.176 9.78123 15.151 9.6447 15.1268C9.6342 15.1249 9.63175 15.1082 9.63736 15.0767C9.64296 15.0452 9.65101 15.0304 9.66151 15.0322C9.82429 15.0612 9.9474 15.0695 10.0308 15.0573C10.1195 15.046 10.184 15.0033 10.2243 14.9292C10.2698 14.856 10.3061 14.7433 10.3332 14.591L10.9818 10.9443C11.0088 10.792 11.0132 10.6763 10.9947 10.5972C10.9825 10.5137 10.9367 10.4514 10.8573 10.4102C10.7842 10.3647 10.6662 10.3275 10.5034 10.2985C10.4929 10.2967 10.4905 10.28 10.4961 10.2485C10.5017 10.217 10.5097 10.2021 10.5202 10.204C10.6568 10.2283 10.8107 10.2611 10.9822 10.3024C11.1545 10.3385 11.3352 10.3733 11.5242 10.407C11.7238 10.4424 11.908 10.4725 12.077 10.4971C12.2521 10.5175 12.4053 10.5393 12.5366 10.5626C12.5524 10.5654 12.5574 10.5826 12.5518 10.6141C12.5462 10.6456 12.5355 10.66 12.5198 10.6572C12.3623 10.6291 12.2387 10.6234 12.1491 10.64C12.0647 10.6575 12.0024 10.7033 11.9621 10.7774C11.9219 10.8514 11.8882 10.9646 11.8611 11.1169L11.2153 14.7479ZM13.4385 15.899C13.3124 15.8766 13.1875 15.8327 13.0637 15.7674C12.9452 15.7029 12.8506 15.6103 12.78 15.4894C12.7147 15.3694 12.6988 15.2149 12.7324 15.0259L13.0434 13.2773C13.0631 13.1671 13.0653 13.0781 13.0503 13.0104C13.0352 12.9427 13.0012 12.8906 12.9481 12.8541C12.895 12.8176 12.8186 12.7904 12.7188 12.7727C12.6978 12.7689 12.6915 12.7435 12.6999 12.6962C12.7083 12.6489 12.723 12.6272 12.744 12.6309C13.0137 12.668 13.2419 12.649 13.4286 12.5739C13.6162 12.4935 13.7707 12.3558 13.8921 12.1607C13.9063 12.1415 13.9292 12.1348 13.9607 12.1404C13.9975 12.1469 14.014 12.1607 14.0102 12.1817L13.5269 14.8991C13.4896 15.1091 13.5155 15.2681 13.6046 15.376C13.699 15.4849 13.825 15.5533 13.9825 15.5814C14.1033 15.6028 14.2204 15.5993 14.3338 15.5707C14.4534 15.5378 14.5551 15.499 14.6389 15.4543C14.6574 15.4414 14.6749 15.4499 14.6912 15.4799C14.7137 15.5056 14.7131 15.5244 14.6893 15.5364C14.4604 15.6962 14.2457 15.8069 14.0451 15.8688C13.8507 15.9263 13.6485 15.9364 13.4385 15.899ZM14.8304 13.327C14.6235 13.2415 14.419 13.1726 14.2171 13.1204C14.0213 13.0639 13.8105 13.0156 13.5847 12.9754L13.6211 12.7707C13.8364 12.8089 14.0478 12.8384 14.2554 12.8591C14.4682 12.8807 14.6947 12.902 14.9347 12.923C14.9452 12.9249 14.952 12.9478 14.955 12.9916C14.9642 13.0312 14.9646 13.0746 14.9562 13.1219C14.9469 13.1744 14.927 13.225 14.8967 13.2738C14.8725 13.3183 14.8504 13.336 14.8304 13.327ZM16.4861 16.4411C16.1448 16.3804 15.866 16.2576 15.6497 16.0729C15.4386 15.8891 15.2906 15.6705 15.2057 15.417C15.1269 15.1592 15.1114 14.8965 15.159 14.6287C15.2141 14.3189 15.3402 14.0515 15.5373 13.8265C15.7344 13.6016 15.9804 13.4367 16.2753 13.3321C16.5702 13.2275 16.8909 13.206 17.2375 13.2676C17.5473 13.3227 17.7814 13.4375 17.94 13.6119C18.1038 13.7873 18.1573 14.0352 18.1003 14.3555C18.0881 14.4237 18.0726 14.4806 18.0537 14.526C18.0348 14.5714 18.007 14.5908 17.9702 14.5842L17.2141 14.4498C17.2778 14.1523 17.2914 13.9083 17.2549 13.7176C17.2193 13.5217 17.1044 13.4064 16.9101 13.3719C16.7001 13.3345 16.5129 13.4123 16.3486 13.6052C16.1895 13.799 16.0783 14.0744 16.0148 14.4315C15.9606 14.736 15.9611 15.007 16.0164 15.2443C16.0717 15.4817 16.1805 15.6771 16.3428 15.8305C16.5051 15.984 16.7202 16.0845 16.988 16.1322C17.1455 16.1602 17.2801 16.1652 17.3916 16.1471C17.5093 16.1247 17.6399 16.091 17.7833 16.0461C17.7957 16.0375 17.8079 16.0451 17.8199 16.0689C17.8372 16.0936 17.8392 16.1129 17.8259 16.1268C17.597 16.2865 17.3727 16.3902 17.153 16.4378C16.9395 16.4811 16.7172 16.4822 16.4861 16.4411ZM15.7713 14.2013L15.79 14.0502L17.5206 14.3255L17.4898 14.4988L15.7713 14.2013ZM22.3391 17.3845C22.3234 17.3817 22.3183 17.3646 22.3239 17.3331C22.3295 17.3016 22.3402 17.2872 22.3559 17.29C22.5187 17.319 22.6355 17.3018 22.7063 17.2386C22.7834 17.171 22.8405 17.0322 22.8779 16.8222L23.0796 15.688C23.1786 15.1314 23.0312 14.8181 22.6374 14.748C22.4746 14.7191 22.3101 14.7305 22.1438 14.7821C21.9775 14.8338 21.835 14.9195 21.7162 15.0392L21.6936 14.9377C21.9188 14.7069 22.1557 14.5324 22.4043 14.4141C22.659 14.2914 22.9177 14.2535 23.1802 14.3002C23.4585 14.3497 23.6593 14.4694 23.7826 14.6592C23.9069 14.8438 23.9391 15.1042 23.8794 15.4402L23.6104 16.9525C23.5731 17.1625 23.5763 17.3121 23.62 17.4011C23.6699 17.4858 23.7763 17.5427 23.9391 17.5716C23.9601 17.5753 23.9678 17.593 23.9622 17.6245C23.9566 17.656 23.9433 17.6699 23.9223 17.6661C23.8172 17.6474 23.6969 17.6233 23.5614 17.5938C23.4258 17.5643 23.2818 17.536 23.1296 17.5089C22.9825 17.4827 22.8403 17.4601 22.7028 17.4411C22.5654 17.4221 22.4441 17.4032 22.3391 17.3845ZM20.2755 17.0175C20.2597 17.0147 20.2547 16.9976 20.2603 16.9661C20.2659 16.9346 20.2766 16.9202 20.2923 16.923C20.4551 16.952 20.5719 16.9348 20.6427 16.8716C20.7197 16.804 20.7769 16.6652 20.8143 16.4552L21.016 15.321C21.115 14.7644 20.9676 14.4511 20.5738 14.381C20.411 14.3521 20.2465 14.3634 20.0802 14.4151C19.9139 14.4668 19.7714 14.5525 19.6526 14.6722L19.63 14.5707C19.8552 14.3399 20.0921 14.1653 20.3407 14.047C20.5954 13.9244 20.854 13.8864 21.1166 13.9331C21.3949 13.9826 21.5966 14.0971 21.7218 14.2764C21.847 14.4558 21.8835 14.6925 21.8312 14.9866L21.5468 16.5855C21.5094 16.7955 21.5126 16.945 21.5564 17.0341C21.6063 17.1188 21.7127 17.1756 21.8755 17.2046C21.8965 17.2083 21.9042 17.2259 21.8986 17.2574C21.893 17.2889 21.8797 17.3028 21.8586 17.2991C21.7536 17.2804 21.6333 17.2563 21.4977 17.2268C21.3621 17.1972 21.2182 17.1689 21.0659 17.1419C20.9189 17.1157 20.7767 17.0931 20.6392 17.0741C20.5018 17.0551 20.3805 17.0362 20.2755 17.0175ZM18.2513 16.6575C18.2355 16.6547 18.2304 16.6375 18.236 16.606C18.2416 16.5745 18.2523 16.5602 18.2681 16.563C18.4309 16.5919 18.5477 16.5748 18.6185 16.5115C18.6903 16.4431 18.7448 16.3038 18.7822 16.0938L19.0455 14.613C19.0745 14.4502 19.0771 14.3288 19.0534 14.2487C19.0307 14.1634 18.9747 14.1129 18.8854 14.097C18.8382 14.0886 18.7812 14.0893 18.7144 14.0991C18.6486 14.1036 18.5731 14.1173 18.4878 14.14C18.4649 14.1468 18.451 14.1335 18.4461 14.1001C18.4412 14.0667 18.4445 14.0483 18.4559 14.045L19.646 13.7041C19.6794 13.6992 19.6987 13.6972 19.7039 13.6981C19.7617 13.7084 19.8082 13.7817 19.8436 13.918C19.8789 14.0543 19.8756 14.2406 19.8336 14.4769L19.5226 16.2254C19.4852 16.4355 19.4884 16.585 19.5322 16.674C19.5821 16.7588 19.6884 16.8156 19.8512 16.8446C19.867 16.8474 19.8721 16.8645 19.8665 16.896C19.8608 16.9275 19.8502 16.9419 19.8344 16.9391C19.7294 16.9204 19.6091 16.8963 19.4735 16.8668C19.3379 16.8372 19.194 16.8089 19.0417 16.7818C18.8947 16.7557 18.7524 16.7331 18.615 16.7141C18.4775 16.695 18.3563 16.6762 18.2513 16.6575Z" fill="#222222"/>
<line x1="26.9432" y1="15.3359" x2="22.0232" y2="18.77" stroke="#222222" stroke-width="0.5"/>
<path d="M35.5373 14.4516C35.5951 14.1267 35.5067 13.9383 34.9952 13.502L35.0661 13.3318C35.4275 13.3555 35.8312 13.4273 36.1548 13.6067C36.6989 13.9168 37.2535 14.6248 37.1852 15.0088C37.1239 15.3534 36.7312 15.3343 36.4909 15.6572C34.9879 17.6549 32.5714 19.5917 29.4407 20.2334L29.3575 20.0155C31.9398 18.8598 34.2425 16.6488 35.1975 15.1631C35.3913 14.8726 35.504 14.6387 35.5373 14.4516ZM39.4188 16.9398L39.5967 16.9105C39.822 17.3568 39.9421 17.6524 40.4639 17.7452C41.5174 17.9326 44.5258 18.2645 45.1351 18.3221C45.8053 18.3803 46.2623 18.3804 46.4986 18.4224C47.0893 18.5275 47.547 18.9237 47.4717 19.3471C47.4209 19.6326 47.1601 19.7284 46.7466 19.6549C46.3528 19.5848 46.0135 19.494 45.3243 19.3714C44.576 19.2383 42.3461 18.9839 41.5722 18.9377C40.8511 18.8806 40.6614 19.0906 40.2873 19.024C39.9033 18.9557 39.4067 18.2072 39.3153 17.6933C39.267 17.4511 39.3473 17.1708 39.4188 16.9398ZM54.0686 18.489L55.2647 18.5595C55.5456 18.579 55.7441 18.3198 55.9509 18.3566C56.2561 18.4108 56.9936 19.2327 56.9358 19.5576C56.8885 19.8234 56.5242 19.7586 56.4084 20.124C56.1246 20.9775 55.5915 22.3757 54.869 23.3543C54.4854 23.8549 53.8019 24.2716 53.221 24.1683C52.9059 24.1123 52.8499 23.9703 52.8191 23.6296C52.79 23.2791 52.6021 23.0223 52.0799 22.3606L52.1948 22.2287C52.7291 22.537 53.1887 22.7508 53.4215 22.8125C53.6722 22.8876 53.7777 22.8657 53.9239 22.7292C54.6164 22.0906 55.3333 20.1156 55.4454 19.4855C55.4611 19.3969 55.4287 19.3505 55.3598 19.3382C54.9562 19.2664 54.3004 19.2412 53.7038 19.2265C53.0788 20.4561 51.6534 22.8738 48.238 23.6884L48.1416 23.4884C50.5287 22.2878 51.7155 20.6402 52.4659 19.2196C52.0384 19.2249 51.5581 19.241 51.2783 19.2725C50.9556 19.3167 50.7405 19.4409 50.5042 19.3989C50.1891 19.3429 49.7984 18.6843 49.7398 18.3285C49.6834 18.0747 49.7433 17.8518 49.8434 17.575L49.9882 17.5601C50.1523 17.894 50.2938 18.1833 50.6285 18.2428C50.8747 18.2866 51.8275 18.3545 52.8626 18.4167C53.0834 17.9177 53.3049 17.3578 53.3637 17.0839C53.4005 16.8771 53.3867 16.7832 53.2745 16.6719C53.1183 16.5222 52.9076 16.3933 52.7131 16.2876L52.7394 16.14C52.9851 16.0719 53.3479 15.9739 53.6137 16.0212C54.165 16.1193 54.9583 16.7987 54.9005 17.1236C54.8463 17.4288 54.5706 17.3798 54.3887 17.774C54.3062 17.9523 54.2016 18.1978 54.0686 18.489ZM59.8165 20.4356C59.7879 20.1969 59.7997 20.0162 59.8516 19.7816L60.0115 19.739C60.2445 20.0851 60.3983 20.3055 60.7724 20.372C61.373 20.4788 63.92 20.6068 64.6927 20.602C65.0675 20.6077 65.2421 20.4255 65.4587 20.464C65.8624 20.5358 66.5883 21.3658 66.52 21.7497C66.4727 22.0156 65.9936 22.0827 65.7052 22.4478C64.4831 24.0079 62.551 25.391 59.4844 25.7292L59.4112 25.5131C62.059 24.6738 63.9069 23.0218 64.7517 21.5266C64.8139 21.4057 64.7833 21.3494 64.6634 21.3383C64.1282 21.2634 62.0595 21.3017 61.406 21.3785C61.0966 21.4047 60.8763 21.5585 60.6597 21.52C60.2462 21.4464 59.8607 20.7583 59.8165 20.4356ZM65.8135 18.9833C65.7785 19.1802 65.6457 19.2988 65.3184 19.3116C64.4974 19.3586 63.0261 19.3509 62.1794 19.2003C61.5591 19.0899 61.299 18.6679 61.0724 17.8861L61.1964 17.8168C61.5546 18.1445 61.8922 18.2452 62.2269 18.3047C62.9555 18.4343 63.5661 18.3703 64.0006 18.3257C64.5174 18.2754 64.6879 18.1737 64.8257 18.1982C65.4854 18.3155 65.8835 18.5895 65.8135 18.9833ZM68.763 22.1588L68.9409 22.1295C69.1662 22.5759 69.2863 22.8715 69.8081 22.9643C70.8616 23.1516 73.8699 23.4836 74.4793 23.5412C75.1494 23.5994 75.6065 23.5994 75.8428 23.6415C76.4335 23.7465 76.8912 24.1428 76.8159 24.5662C76.7651 24.8517 76.5043 24.9475 76.0908 24.8739C75.697 24.8039 75.3576 24.7131 74.6684 24.5905C73.9202 24.4574 71.6903 24.203 70.9164 24.1568C70.1953 24.0996 70.0056 24.3096 69.6315 24.2431C69.2475 24.1748 68.7509 23.4263 68.6595 22.9123C68.6111 22.6701 68.6914 22.3899 68.763 22.1588ZM85.5987 23.9242C85.4313 23.8944 85.3261 23.7437 85.2106 23.4794C85.0726 23.1704 84.8669 22.7276 84.5108 22.2173L84.632 22.1068C85.1518 22.3821 85.5975 22.6747 85.8421 23.0127C86.012 23.2562 86.061 23.4376 86.0278 23.6247C85.991 23.8314 85.8055 23.961 85.5987 23.9242ZM86.7616 23.2677C86.5746 23.2344 86.4844 23.0559 86.3313 22.7747C86.1961 22.5069 86.0141 22.1597 85.5989 21.6389L85.7201 21.5284C86.2666 21.7678 86.6764 22.0337 86.9234 22.3011C87.1166 22.5284 87.1997 22.7463 87.1594 22.9728C87.1209 23.1894 86.9684 23.3045 86.7616 23.2677ZM81.3785 22.6962C81.0558 22.2833 80.7504 21.9446 80.4686 21.7015L80.5592 21.5348C80.8824 21.6024 81.3399 21.7143 81.9159 21.9589C82.562 22.2668 83.0851 22.695 82.973 23.3252C82.9257 23.591 82.6735 23.8102 82.3978 23.7612C81.9252 23.6771 81.8163 23.2616 81.3785 22.6962ZM79.4961 27.6837C80.6283 27.885 84.8034 25.997 86.8397 24.2566L86.9959 24.4063C85.6558 26.2298 83.0718 27.8524 80.6996 28.7407C80.3414 28.87 80.1556 29.1721 79.8209 29.1126C79.3975 29.0373 78.8167 28.4769 78.61 27.9831C78.4881 27.6974 78.5015 27.2224 78.5389 26.9548L78.6792 26.9086C78.8555 27.1736 79.1121 27.6154 79.4961 27.6837ZM79.8055 24.6307C79.4296 24.1169 79.126 23.7683 78.8523 23.5368L78.9411 23.38C79.3395 23.4813 79.7264 23.5907 80.2254 23.8115C80.8947 24.1032 81.504 24.6179 81.3971 25.2185C81.3551 25.4547 81.1827 25.7389 80.779 25.6671C80.3064 25.5831 80.1964 25.1166 79.8055 24.6307ZM90.3223 25.0893L90.33 24.9891C90.5856 24.9229 90.8116 24.8513 91.1463 24.9109C91.4909 24.9722 92.2094 25.2726 92.1621 25.5384C92.1289 25.7255 92.0179 25.9495 92.0008 26.1598C91.9879 26.2895 91.9737 26.5409 91.9774 26.8057C92.6882 26.7493 93.6297 26.6526 93.8881 26.6275C94.0874 26.5919 94.2961 26.4462 94.4241 26.4689C94.7884 26.5337 95.4084 27.2737 95.3401 27.6577C95.3016 27.8743 94.9257 27.8176 94.7669 27.9112C94.3234 28.1777 93.5864 28.6662 92.7449 28.9431L92.6605 28.8468C93.1657 28.3476 93.648 27.6919 93.8506 27.3521C93.9075 27.2607 93.8716 27.234 93.7598 27.2344C93.4424 27.2491 92.7048 27.3413 91.9887 27.4273C92.0643 28.4869 92.1653 29.6323 92.2265 30.2018C92.2569 30.4306 92.3265 30.8391 92.2844 31.0754C92.2284 31.3905 92.0626 31.5235 91.7573 31.4692C91.3241 31.3922 91.0936 30.9753 91.1463 30.5073C91.1993 29.8667 91.2051 28.5778 91.1277 27.5281C90.7952 27.5705 90.4672 27.6442 90.2876 27.6833C89.8953 27.7761 89.7091 27.9664 89.5023 27.9296C89.1676 27.8701 88.8322 27.4143 88.7712 27.1292C88.7465 26.9826 88.7885 26.7464 88.8432 26.5529L88.9272 26.5374C89.0799 26.7068 89.1753 26.8558 89.451 26.9048C89.707 26.9503 90.4161 26.9038 91.0823 26.8699C91.0303 26.363 90.9765 25.8659 90.9067 25.63C90.8415 25.4254 90.61 25.2421 90.3223 25.0893ZM100.644 24.4469L100.736 24.3312C101.123 24.4406 101.434 24.5771 101.685 24.764C102.006 25.0141 102.392 25.4688 102.342 25.7543C102.303 25.9709 102.063 26.0094 101.836 26.2535C101.597 26.5156 101.357 26.7777 101.101 27.0166C101.196 27.0538 101.283 27.0794 101.372 27.0952C101.835 27.1775 103.709 27.2061 104.248 27.2004C104.726 27.1941 104.909 27.0235 105.106 27.0585C105.559 27.1391 106.193 27.5159 106.116 27.9491C106.079 28.1558 105.957 28.3271 105.593 28.2623C105.219 28.1958 104.661 28.0763 104.173 28.02C103.864 27.9854 103.391 27.9622 102.928 27.9407C103.372 28.2431 103.662 28.6096 103.623 28.8262C103.583 29.0527 103.313 29.1467 103.164 29.3539C102.008 30.997 100.42 32.0451 98.2317 32.5293L98.1416 32.3508C100.37 31.4165 102.063 29.4324 102.237 28.4577C102.277 28.2312 102.257 28.0551 102.162 27.9061L101.797 27.9021C101.532 27.9058 101.321 27.9496 101.144 27.9181C100.967 27.8865 100.772 27.669 100.618 27.4487C99.7704 28.1612 98.8022 28.7508 97.6356 29.1426L97.5356 28.9623C99.0337 28.0201 100.777 26.1565 100.936 25.2606C100.978 25.0243 100.89 24.8359 100.644 24.4469ZM110.545 29.8948C110.476 29.5981 110.32 29.1032 110.185 28.8962L110.292 28.8037C110.58 28.9564 110.812 29.079 111.058 29.2954C111.472 29.6533 111.711 30.0817 111.618 30.6036C111.558 30.9383 111.271 31.07 111.015 31.0245C110.552 30.9422 110.678 30.5177 110.545 29.8948ZM113.864 31.0538C112.719 32.6377 110.661 34.1 108.033 34.3131L107.97 34.1497C110.583 33.3955 112.958 31.0045 113.139 29.9904C113.172 29.8033 113.003 29.6108 112.744 29.4123L112.775 29.2959C112.928 29.2927 113.171 29.2953 113.348 29.3268C113.848 29.426 114.403 30.134 114.335 30.518C114.3 30.7149 114.012 30.8466 113.864 31.0538ZM108.735 30.1924C108.641 29.7492 108.517 29.4223 108.372 29.1527L108.489 29.0619C108.769 29.2031 109.038 29.4033 109.186 29.5414C109.693 29.9464 109.949 30.449 109.863 30.9314C109.812 31.2169 109.597 31.402 109.252 31.3407C108.819 31.2637 108.885 30.7777 108.735 30.1924ZM119.632 28.2607L119.65 28.1014C119.948 28.0225 120.301 27.9227 120.597 27.9752C121.089 28.0628 121.879 28.7011 121.822 29.026C121.771 29.3115 121.537 29.3714 121.423 29.727C121.295 30.1004 121.181 30.6286 121.07 31.1979C122.035 31.4813 122.903 31.91 123.397 32.3329C123.785 32.6659 124.018 33.0121 123.925 33.5339C123.869 33.849 123.601 34.096 123.247 34.0329C122.617 33.9208 122.674 33.3723 122.04 32.5385C121.78 32.2282 121.468 31.9289 120.99 31.5899C120.775 32.6283 120.56 33.8903 120.439 34.7422C120.37 35.2479 120.33 35.5861 120.305 35.724C120.214 36.2359 120.069 36.4234 119.675 36.3534C119.163 36.2623 118.982 35.6816 119.112 34.9531C119.159 34.6872 119.288 34.4765 119.414 34.0521C119.624 33.3277 119.869 32.0101 119.974 31.4194C120.119 30.6022 120.31 29.3565 120.31 28.8994C120.309 28.564 120.023 28.4014 119.632 28.2607Z" fill="#222222"/>
</svg>
