<svg width="51" height="209" viewBox="0 0 51 209" fill="none" xmlns="http://www.w3.org/2000/svg">
<path d="M46.5485 3.914L45.8485 3.41C45.3725 3.06 45.2465 2.724 45.2465 2.346C45.2465 1.772 45.7085 1.38 46.2125 1.38C46.5765 1.38 46.8425 1.534 47.0665 1.688C47.2765 2.066 47.3885 2.486 47.3885 2.92C47.3885 4.208 46.4505 5.37 45.1345 5.944L44.9525 5.608C45.7505 5.132 46.2405 4.67 46.5485 3.914ZM49.6425 3.914L48.9425 3.41C48.4665 3.06 48.3405 2.724 48.3405 2.346C48.3405 1.772 48.8025 1.38 49.3205 1.38C49.6705 1.38 49.9365 1.534 50.1605 1.688C50.3845 2.066 50.4825 2.486 50.4825 2.92C50.4825 4.208 49.5445 5.37 48.2285 5.944L48.0465 5.608C48.8445 5.132 49.3345 4.67 49.6425 3.914Z" fill="white"/>
<path d="M16.04 21.29L15.844 21.094C16.656 20.114 17.37 19.092 17.776 18.252C17.86 18.084 17.762 17.972 17.566 18.014C16.894 18.126 15.172 18.742 13.996 19.176C13.926 20.24 13.884 21.36 13.884 22.2C13.884 23.404 14.108 23.516 15.396 23.516C17.132 23.516 18.07 23.124 18.238 23.124C18.868 23.124 19.694 23.348 19.694 23.922C19.694 24.384 19.358 24.552 18.98 24.65C18.322 24.818 16.866 24.972 16.026 24.972C13.464 24.972 12.568 24.692 12.568 22.62C12.554 21.878 12.582 20.674 12.596 19.722C12.148 19.89 11.714 20.086 11.35 20.268C10.748 20.562 10.566 20.842 10.076 20.842C9.572 20.842 8.634 20.1 8.424 19.596C8.284 19.288 8.312 18.938 8.34 18.56L8.522 18.49C8.816 18.812 9.11 19.176 9.586 19.176C10.062 19.176 11.602 18.742 12.61 18.462C12.624 17.328 12.61 15.97 12.568 15.48C12.54 15.144 12.12 14.99 11.42 14.78L11.406 14.57C11.98 14.332 12.442 14.178 12.792 14.178C13.604 14.178 14.654 14.836 14.654 15.284C14.654 15.704 14.346 15.872 14.248 16.432C14.192 16.754 14.136 17.328 14.08 18.042L17.356 17.104C17.818 16.964 18.014 16.656 18.308 16.656C18.868 16.656 20.212 17.748 20.212 18.224C20.212 18.616 19.54 18.784 19.274 19.022C18.364 19.792 17.286 20.604 16.04 21.29ZM15.424 34.272C15.256 33.88 14.92 33.25 14.696 33.012L14.822 32.858C15.242 32.998 15.564 33.096 15.956 33.334C16.628 33.712 17.048 34.244 17.048 34.958C17.048 35.434 16.67 35.686 16.32 35.686C15.676 35.686 15.746 35.084 15.424 34.272ZM20.17 35.042C19.008 37.45 16.586 39.914 13.086 40.81L12.974 40.628C16.306 38.99 18.924 35.196 18.924 33.768C18.924 33.516 18.672 33.292 18.252 33.096L18.28 32.928C18.49 32.886 18.812 32.816 19.064 32.83C19.764 32.83 20.688 33.67 20.688 34.216C20.688 34.482 20.324 34.72 20.17 35.042ZM13.072 35.112C12.82 34.538 12.582 34.104 12.33 33.796L12.456 33.628C12.876 33.754 13.268 33.964 13.52 34.104C14.29 34.538 14.752 35.168 14.752 35.84C14.752 36.232 14.514 36.54 14.024 36.54C13.436 36.54 13.38 35.868 13.072 35.112ZM11.532 48.556L11.504 48.332C11.91 48.15 12.372 47.926 12.792 47.926C13.492 47.926 14.766 48.612 14.766 49.088C14.766 49.494 14.458 49.634 14.374 50.152C14.29 50.684 14.262 51.44 14.248 52.252C15.662 52.406 16.964 52.77 17.748 53.232C18.364 53.61 18.77 54.03 18.77 54.786C18.77 55.248 18.462 55.654 17.944 55.654C17.048 55.654 16.992 54.87 15.9 53.862C15.466 53.498 14.976 53.176 14.234 52.812C14.192 54.324 14.22 56.102 14.262 57.292C14.276 58.02 14.318 58.496 14.318 58.678C14.318 59.42 14.15 59.714 13.59 59.714C12.848 59.714 12.456 58.958 12.456 57.908C12.456 57.53 12.582 57.208 12.652 56.592C12.764 55.542 12.778 53.666 12.778 52.84C12.778 51.664 12.736 49.9 12.624 49.284C12.526 48.822 12.092 48.668 11.532 48.556ZM9.208 66.032L9.418 65.962C9.81 66.396 10.006 66.592 10.44 66.592C11.742 66.592 16.264 66.06 17.272 65.92C17.79 65.85 18.014 65.584 18.35 65.584C18.896 65.584 20.296 66.872 20.296 67.488C20.296 67.978 19.512 68.02 19.176 68.216C18.56 68.566 17.482 69.154 16.32 69.714C16.348 69.798 16.348 69.91 16.292 70.036C15.158 72.878 13.268 75.286 9.95 76.742L9.754 76.504C12.456 74.656 14.304 71.072 14.304 70.148C14.304 69.7 13.842 69.448 13.254 69.196L13.282 68.986C13.604 68.902 13.912 68.846 14.262 68.86C14.934 68.874 15.48 69.07 15.816 69.238C16.642 68.566 17.37 67.768 17.678 67.208C17.832 66.914 17.748 66.844 17.468 66.844C16.894 66.844 13.394 67.516 12.008 67.88C11.462 68.034 11.28 68.412 10.832 68.412C10.314 68.412 9.516 67.684 9.306 67.096C9.194 66.816 9.152 66.424 9.208 66.032ZM15.424 85.272C15.256 84.88 14.92 84.25 14.696 84.012L14.822 83.858C15.242 83.998 15.564 84.096 15.956 84.334C16.628 84.712 17.048 85.244 17.048 85.958C17.048 86.434 16.67 86.686 16.32 86.686C15.676 86.686 15.746 86.084 15.424 85.272ZM20.17 86.042C19.008 88.45 16.586 90.914 13.086 91.81L12.974 91.628C16.306 89.99 18.924 86.196 18.924 84.768C18.924 84.516 18.672 84.292 18.252 84.096L18.28 83.928C18.49 83.886 18.812 83.816 19.064 83.83C19.764 83.83 20.688 84.67 20.688 85.216C20.688 85.482 20.324 85.72 20.17 86.042ZM13.072 86.112C12.82 85.538 12.582 85.104 12.33 84.796L12.456 84.628C12.876 84.754 13.268 84.964 13.52 85.104C14.29 85.538 14.752 86.168 14.752 86.84C14.752 87.232 14.514 87.54 14.024 87.54C13.436 87.54 13.38 86.868 13.072 86.112ZM19.904 101.236C19.036 101.236 18.35 100.536 18.35 99.682C18.35 98.814 19.036 98.128 19.904 98.128C20.758 98.128 21.444 98.814 21.444 99.682C21.444 100.536 20.758 101.236 19.904 101.236ZM19.904 98.716C19.358 98.716 18.924 99.136 18.924 99.682C18.924 100.228 19.358 100.648 19.904 100.648C20.436 100.648 20.87 100.228 20.87 99.682C20.87 99.136 20.436 98.716 19.904 98.716ZM9.572 100.494C9.95 100.886 10.3 101.236 10.832 101.236C11.952 101.236 15.452 100.858 16.208 100.69C16.796 100.564 16.824 100.34 17.216 100.34C17.874 100.34 19.358 101.642 19.358 102.146C19.358 102.622 18.84 102.776 18.616 103.224C16.922 106.64 14.36 109.286 9.796 110.742L9.642 110.476C13.464 108.474 16.236 105.016 16.922 101.936C16.95 101.824 16.894 101.782 16.796 101.782C15.844 101.782 12.778 102.44 11.98 102.65C11.658 102.734 11.308 103.014 10.986 103.014C10.356 103.014 9.586 102.09 9.446 101.558C9.362 101.208 9.362 100.942 9.362 100.578L9.572 100.494ZM10.846 119.02L11.518 119.272C11.476 119.398 11.35 119.496 11.084 119.538V127.77C11.07 127.896 10.412 128.246 9.782 128.246H9.488V120.896C8.998 121.47 8.452 121.988 7.892 122.436L7.71 122.324C8.858 120.574 9.992 117.816 10.552 115.086L12.806 115.772C12.764 115.954 12.582 116.08 12.26 116.066C11.854 117.144 11.378 118.138 10.846 119.02ZM13.842 119.482V122.128H15.494V119.482H13.842ZM18.728 119.482H17.104V122.128H18.728V119.482ZM18.728 122.52H17.09C17.034 123.696 16.754 124.69 16.194 125.516C17.622 126.104 19.4 126.384 21.276 126.412L21.262 126.58C20.618 126.776 20.1 127.378 19.974 128.218C18 127.91 16.488 127.364 15.354 126.454C14.416 127.252 13.072 127.854 11.21 128.246L11.126 128.078C12.75 127.448 13.856 126.664 14.556 125.67C14.038 125.054 13.632 124.326 13.31 123.458L13.478 123.36C13.842 123.962 14.36 124.48 14.99 124.886C15.298 124.2 15.452 123.416 15.494 122.52H13.842V122.898C13.842 123.052 13.142 123.388 12.498 123.388H12.274V118.432L13.912 119.09H15.494V117.634H12.106L11.994 117.242H15.494V115.142L17.594 115.338C17.566 115.534 17.454 115.674 17.104 115.73V117.242H18.462L19.414 116.01C19.414 116.01 20.464 116.836 21.108 117.41C21.066 117.564 20.912 117.634 20.716 117.634H17.104V119.09H18.588L19.344 118.264L20.898 119.454C20.8 119.566 20.604 119.692 20.324 119.762V122.814C20.31 122.912 19.54 123.248 18.994 123.248H18.728V122.52ZM9.432 139.716C9.334 138.596 9.474 137.364 9.474 136.384C9.474 135.586 9.124 134.998 8.396 134.41L8.466 134.242C8.844 134.228 9.376 134.256 9.796 134.424C10.524 134.732 11.364 135.516 11.364 136.174C11.364 136.86 10.608 137.644 10.608 139.408C10.608 140.612 11.252 141.34 11.7 141.536C11.896 141.62 12.092 141.606 12.246 141.396C12.722 140.738 13.226 139.842 13.716 138.904L14.01 139.044C13.688 140.122 13.38 141.312 13.366 141.816C13.352 142.67 13.576 142.628 13.576 143.076C13.576 143.72 12.904 144.056 12.008 143.692C10.874 143.216 9.6 141.956 9.432 139.716ZM18.252 138.232C17.902 137.196 17.146 136.286 16.026 135.782L16.096 135.544C17.58 135.628 18.42 136.104 19.246 136.888C20.1 137.672 20.478 138.848 20.478 139.926C20.478 140.822 20.184 141.312 19.498 141.312C19.19 141.312 18.882 141.144 18.77 140.766C18.602 140.178 18.658 139.422 18.252 138.232Z" fill="#FFD5E0"/>
<path d="M17.008 149.42L17.116 149.252C17.788 149.432 18.364 149.648 18.736 149.996C18.988 150.224 19.084 150.428 19.084 150.656C19.084 150.92 18.892 151.112 18.64 151.112C18.436 151.112 18.28 150.944 18.088 150.656C17.86 150.332 17.572 149.9 17.008 149.42ZM14.008 150.476L13.648 151.352C13.936 151.316 14.236 151.28 14.452 151.28C15.412 151.28 16.048 151.868 16.048 153.464C16.048 155 15.676 156.728 14.788 157.7C14.416 158.12 13.84 158.408 13.228 158.408C12.76 158.408 12.58 158.216 12.436 157.616C12.364 157.376 12.292 157.268 11.716 156.644L11.824 156.476C12.424 156.788 12.892 156.992 13.204 156.992C13.588 156.992 13.792 156.872 14.008 156.584C14.584 155.876 14.92 154.172 14.92 152.972C14.92 152.336 14.716 152.012 14.164 152.012C13.948 152.012 13.648 152.072 13.3 152.168C12.976 152.96 12.604 153.824 12.316 154.46C11.776 155.66 11.02 157.22 10.588 157.952C10.324 158.42 10.12 158.528 9.796 158.528C9.496 158.528 9.196 158.24 9.196 157.772C9.196 157.412 9.256 157.268 9.472 156.98C10.06 156.26 10.72 155.252 11.308 154.052C11.524 153.584 11.74 153.116 11.92 152.648C11.62 152.78 11.332 152.9 11.116 152.996C10.732 153.164 10.504 153.296 10.168 153.296C9.82 153.296 9.256 152.672 9.172 152.18C9.112 151.844 9.208 151.58 9.316 151.34L9.472 151.304C9.7 151.7 9.844 151.952 10.156 151.952C10.564 151.952 11.404 151.748 12.328 151.568C12.64 150.716 12.82 150.02 12.82 149.78C12.82 149.612 12.772 149.492 12.64 149.408C12.448 149.288 12.088 149.192 11.752 149.132V148.94C12.004 148.808 12.34 148.64 12.856 148.64C13.408 148.64 14.524 149.12 14.524 149.54C14.524 149.876 14.188 150.068 14.008 150.476ZM16.516 151.436L16.588 151.22C17.368 151.256 18.196 151.508 18.796 152.084C19.468 152.708 19.78 153.548 19.78 154.484C19.78 155.216 19.504 155.732 18.976 155.744C18.556 155.756 18.532 155.36 18.124 155.204C17.872 155.108 17.248 155.024 16.828 155.012L16.78 154.808C17.296 154.676 17.692 154.568 17.956 154.46C18.22 154.352 18.34 154.22 18.328 153.884C18.328 153.548 18.232 152.972 17.908 152.468C17.596 151.964 17.164 151.604 16.516 151.436ZM18.124 148.592L18.22 148.436C18.916 148.568 19.468 148.772 19.804 149.024C20.104 149.252 20.224 149.48 20.224 149.768C20.224 150.02 20.068 150.188 19.816 150.188C19.588 150.188 19.444 149.996 19.216 149.696C19 149.432 18.748 149.084 18.124 148.592ZM19.444 163.792H12.58C11.56 165.208 10.324 166.192 8.956 166.864L8.824 166.744C9.964 165.628 11.152 163.78 11.8 161.764L13.732 162.52C13.672 162.676 13.504 162.76 13.24 162.736C13.096 162.988 12.952 163.228 12.808 163.456H17.56L18.352 162.472C18.352 162.472 19.216 163.108 19.792 163.6C19.756 163.732 19.624 163.792 19.444 163.792ZM11.836 164.92H16.804L17.548 163.996C17.548 163.996 18.4 164.62 18.916 165.076C18.88 165.208 18.748 165.268 18.58 165.268H11.932L11.836 164.92ZM10.228 167.956L10.3 167.812C11.5 168.172 12.472 168.568 13.24 168.976C13.672 168.328 14.02 167.668 14.272 167.02L16.048 167.836C15.988 167.968 15.868 168.052 15.58 168.004C15.256 168.568 14.848 169.132 14.368 169.672C16.96 171.568 15.76 173.356 14.632 172.516C14.404 172 13.984 171.34 13.384 170.644C12.22 171.664 10.744 172.528 8.92 173.056L8.836 172.924C10.372 172.144 11.656 171.04 12.616 169.828C11.956 169.192 11.152 168.544 10.228 167.956ZM20.02 170.056L19.924 171.64C20.26 172.156 20.344 172.54 20.14 172.804C19.732 173.296 18.988 173.044 18.496 172.648C16.972 171.616 16.6 169.288 16.528 166.816H10.348L10.24 166.468H16.372L17.092 165.688L18.496 166.768C18.424 166.852 18.232 166.924 18.016 166.96C17.98 168.532 18.28 170.62 19.228 171.208C19.36 171.28 19.432 171.268 19.492 171.136C19.636 170.848 19.78 170.452 19.9 170.044L20.02 170.056ZM12.472 175.872L14.332 176.616C14.272 176.76 14.164 176.844 13.864 176.82C12.976 178.5 11.332 180.384 8.944 181.38L8.848 181.248C10.648 179.868 11.92 177.648 12.472 175.872ZM16.42 180.696L17.164 179.964L18.448 181.056C18.352 181.152 18.208 181.236 17.944 181.272C17.788 184.212 17.5 185.904 16.828 186.456C16.408 186.816 15.916 186.972 15.124 186.96C15.124 186.552 15.064 186.204 14.836 186C14.608 185.784 14.068 185.592 13.48 185.484V185.328C14.104 185.376 15.076 185.448 15.376 185.448C15.592 185.448 15.7 185.412 15.82 185.316C16.18 185.004 16.396 183.396 16.528 181.032H14.296C14.068 183.144 13.372 185.436 9.352 187.056L9.232 186.888C12.328 184.968 12.664 182.832 12.76 181.032H10.588L10.48 180.696H16.42ZM15.484 175.884L15.628 175.812C16.444 177.708 18.532 178.968 20.344 179.652L20.308 179.784C19.732 179.88 19.312 180.324 19.096 181.02C17.404 179.88 16.096 178.272 15.484 175.884Z" fill="white"/>
<path d="M36.484 14.68L37.204 13.768C37.204 13.768 38.044 14.404 38.548 14.824C38.512 14.956 38.38 15.016 38.2 15.016H32.692L32.596 14.68H36.484ZM34.492 19.108H36.412V16.84H34.492V19.108ZM37.744 17.02V20.188C37.732 20.284 37.072 20.56 36.64 20.56H36.412V19.444H34.492V20.44C34.492 20.548 33.94 20.836 33.388 20.836H33.196V15.952L34.552 16.492H36.292L36.904 15.832L38.176 16.804C38.104 16.888 37.948 16.984 37.744 17.02ZM39.496 12.04L40.84 13.108C40.756 13.204 40.6 13.312 40.348 13.36V21.496C40.348 22.42 40.096 22.948 38.392 23.104C38.332 22.684 38.248 22.384 38.02 22.18C37.756 21.988 37.432 21.82 36.7 21.724V21.556C36.7 21.556 38.308 21.664 38.656 21.664C38.896 21.664 38.968 21.556 38.968 21.376V13.132H32.02V22.552C32.02 22.732 31.468 23.08 30.892 23.08H30.652V12.172L32.128 12.784H38.848L39.496 12.04ZM30.148 36.756L30.052 36.6C31.192 36.024 32.392 35.028 32.968 34.26L34.408 35.196C34.336 35.304 34.228 35.352 33.964 35.292C33.076 35.916 31.6 36.504 30.148 36.756ZM36.604 34.62L36.7 34.5C40.936 34.476 40.768 37.152 39.34 36.756C38.752 36.012 37.504 35.1 36.604 34.62ZM37.468 32.088L37.564 31.992C41.584 32.196 41.068 34.968 39.664 34.356C39.508 34.032 39.256 33.696 38.98 33.384C38.164 33.492 37.228 33.612 36.148 33.732V36.78C36.148 36.84 35.728 37.056 35.008 37.056H34.768V33.876C33.724 33.996 32.548 34.104 31.228 34.236C31.132 34.368 31 34.464 30.88 34.476L30.256 33.096C31.012 33.108 32.224 33.12 33.7 33.108C34.852 32.28 36.088 31.164 36.748 30.384L38.272 31.092C38.2 31.212 38.092 31.284 37.828 31.26C37.084 31.836 35.824 32.544 34.564 33.108C35.812 33.096 37.204 33.072 38.668 33.06C38.284 32.676 37.852 32.34 37.468 32.088ZM38.932 29.796L39.664 28.848C39.664 28.848 40.48 29.496 40.972 29.952C40.936 30.084 40.816 30.144 40.648 30.144H35.884C35.284 30.564 34.564 31.032 33.916 31.404C34.612 32.04 34.18 32.928 33.352 32.652C32.956 32.04 32.104 31.332 31.456 30.936L31.552 30.84C32.392 30.804 33.004 30.912 33.436 31.104C33.616 30.78 33.808 30.432 33.94 30.144H30.148L30.052 29.796H34.756V28.716H31.276L31.18 28.392H34.756V27.324H30.784L30.676 26.976H34.756V25.8L36.592 25.956C36.58 26.124 36.484 26.244 36.16 26.304V26.976H38.356L39.088 26.1C39.088 26.1 39.916 26.7 40.42 27.132C40.396 27.264 40.264 27.324 40.096 27.324H36.16V28.392H38.08L38.776 27.576C38.776 27.576 39.544 28.128 40.024 28.524C40 28.656 39.892 28.716 39.712 28.716H36.16V29.796H38.932ZM33.292 43.016V44.072C36.316 44.972 35.068 47.144 33.976 46.184C33.94 45.56 33.628 44.852 33.292 44.324V50.672C33.292 50.792 32.716 51.068 32.2 51.068H31.924V46.16C31.384 47 30.7 47.756 29.896 48.404L29.74 48.272C30.796 46.868 31.456 44.912 31.792 43.016H30.112L30.016 42.68H31.924V39.812L33.736 39.992C33.712 40.172 33.616 40.292 33.292 40.34V42.68H33.568L34.204 41.768C34.204 41.768 34.96 42.404 35.38 42.824C35.344 42.956 35.224 43.016 35.056 43.016H33.292ZM39.616 42.68L40.204 41.732C40.204 41.732 40.9 42.404 41.272 42.836C41.236 42.968 41.116 43.028 40.96 43.028H39.484V49.46C39.484 50.396 39.244 50.912 37.6 51.056C37.552 50.648 37.48 50.348 37.264 50.156C37.036 49.952 36.76 49.808 36.076 49.7V49.544C36.076 49.544 37.528 49.64 37.816 49.64C38.032 49.64 38.104 49.568 38.104 49.4V45.236C37.096 46.724 35.704 47.984 34 48.932L33.88 48.8C35.584 47.336 36.916 45.08 37.624 43.028H35.476L35.38 42.68H38.104V39.8L39.928 39.98C39.892 40.148 39.784 40.268 39.484 40.316V42.68H39.616ZM35.044 57.064C35.044 56.68 34.876 56.32 34.672 56.032C33.904 56.26 33.148 56.704 32.572 57.316C31.876 58.084 31.492 58.888 31.492 59.872C31.492 60.82 31.9 61.696 32.404 61.696C33.064 61.696 34.132 60.052 34.504 59.236C34.828 58.54 35.044 57.7 35.044 57.064ZM34.936 64.216L34.888 64C37.924 63.268 39.052 61.6 39.052 59.524C39.052 57.316 37.648 55.888 35.692 55.888C35.536 55.888 35.38 55.9 35.224 55.924C35.584 56.296 36.016 56.896 36.016 57.46C36.016 58.072 35.908 58.876 35.62 59.608C35.08 61.132 33.748 63.304 32.272 63.304C31.3 63.304 30.412 61.84 30.412 60.268C30.412 59.152 30.964 57.712 32.188 56.692C33.148 55.852 34.36 55.408 35.836 55.408C38.596 55.408 40.564 57.34 40.564 59.848C40.564 62.116 38.968 64.06 34.936 64.216ZM39.34 71.64C38.584 71.64 37.972 71.028 37.972 70.272C37.972 69.516 38.584 68.916 39.34 68.916C40.096 68.916 40.708 69.516 40.708 70.272C40.708 71.028 40.096 71.64 39.34 71.64ZM39.34 69.408C38.86 69.408 38.476 69.792 38.476 70.272C38.476 70.752 38.86 71.136 39.34 71.136C39.82 71.136 40.204 70.752 40.204 70.272C40.204 69.792 39.82 69.408 39.34 69.408ZM33.508 72.336C33.508 72 33.172 71.664 32.716 71.436L32.764 71.256C33.004 71.208 33.388 71.148 33.7 71.172C34.54 71.22 35.356 72.288 35.356 72.828C35.356 73.14 34.972 73.344 34.708 73.656C33.688 74.904 31.732 76.452 29.812 77.28L29.68 77.088C31.564 75.72 33.508 73.176 33.508 72.336ZM40.66 75.528C40.684 76.128 40.336 76.656 39.832 76.668C39.34 76.68 39.136 76.272 38.968 75.672C38.452 73.944 37.696 72.528 36.244 71.316L36.388 71.136C38.452 71.964 40.588 73.776 40.66 75.528ZM31.564 83.744L31.684 83.54C33.34 83.732 35.32 84.428 35.32 85.688C35.32 86.12 34.996 86.492 34.528 86.492C34.132 86.492 33.88 86.276 33.58 85.856C33.004 85.064 32.716 84.608 31.564 83.744ZM32.884 90.308C34.18 90.308 38.896 87.032 40.612 84.728L40.84 84.884C39.484 87.512 37.3 89.624 34.516 91.328C34.12 91.58 33.964 91.976 33.616 91.976C32.92 91.976 32.08 91.256 31.828 90.776C31.684 90.488 31.564 90.02 31.576 89.672L31.732 89.564C32.02 89.852 32.44 90.308 32.884 90.308ZM34.36 99.04C34.168 98.596 33.808 97.936 33.52 97.624L33.688 97.456C34.168 97.636 34.54 97.816 34.972 98.092C35.644 98.524 36.088 99.112 36.088 99.868C36.088 100.36 35.716 100.624 35.344 100.624C34.684 100.624 34.756 99.928 34.36 99.04ZM39.616 99.808C38.296 102.496 35.74 105.352 31.768 106.516L31.624 106.288C35.584 104.26 38.404 99.748 38.404 98.476C38.404 98.2 38.08 97.96 37.54 97.756L37.576 97.552C37.852 97.468 38.188 97.432 38.524 97.456C39.268 97.48 40.228 98.392 40.228 98.944C40.228 99.292 39.808 99.436 39.616 99.808ZM31.612 99.976C31.348 99.364 31.06 98.884 30.772 98.512L30.928 98.332C31.384 98.488 31.852 98.764 32.128 98.968C32.944 99.472 33.412 100.144 33.424 100.84C33.424 101.26 33.172 101.572 32.68 101.572C32.044 101.572 32.02 100.84 31.612 99.976ZM33.352 119.712H37.72V116.904H33.352V119.712ZM37.6 116.556L38.284 115.788L39.724 116.892C39.64 116.988 39.472 117.108 39.22 117.156V120.6C39.208 120.684 38.464 120.936 37.972 120.936H37.72V120.06H33.352V120.6C33.352 120.732 32.704 121.056 32.092 121.056H31.876V115.932L33.448 116.556H37.6ZM36.16 114.444L36.952 113.412C36.952 113.412 37.84 114.108 38.38 114.6C38.344 114.732 38.224 114.792 38.044 114.792H32.812L32.716 114.444H36.16ZM34.6 109.752L36.712 110.28C36.664 110.436 36.508 110.508 36.124 110.544C37.192 112.02 39.352 112.872 41.2 113.376L41.188 113.568C40.576 113.736 40.192 114.336 40.084 114.864C38.26 113.964 36.664 112.572 35.932 110.688C34.792 112.512 32.332 114.408 29.92 115.332L29.848 115.188C31.912 113.928 34.096 111.48 34.6 109.752ZM33.088 130.496L32.14 131.948C32.38 132.176 32.668 132.416 32.776 132.524C32.932 132.668 33.04 132.632 33.052 132.404C33.064 132.008 33.064 131.276 33.088 130.496ZM32.416 124.64V124.448C32.74 124.304 33.028 124.196 33.376 124.196C34.084 124.196 34.876 124.892 34.876 125.348C34.876 125.576 34.708 125.792 34.588 126.188C34.54 126.308 34.492 126.476 34.444 126.68C34.48 126.692 34.516 126.704 34.552 126.728C34.804 126.86 35.068 127.124 35.068 127.268C35.068 127.436 34.96 127.568 34.78 127.76C34.588 127.952 34.348 128.204 34.12 128.468C35.332 127.772 36.436 127.4 37.516 127.4C39.148 127.4 40.756 128.504 40.756 130.316C40.756 132.008 39.616 133.748 35.74 134.408L35.644 134.204C38.74 132.944 39.244 131.168 39.244 129.956C39.244 128.66 38.476 127.904 37.216 127.904C36.208 127.904 34.9 128.48 33.976 129.308C33.916 130.28 34.024 131.564 34.084 132.296C34.132 132.788 34.192 133.028 34.192 133.364C34.192 134.084 33.832 134.72 33.376 134.72C32.944 134.72 32.788 134.504 32.74 134.156C32.668 133.832 32.608 133.52 32.476 133.16C32.368 132.896 32.176 132.56 31.96 132.236L31.612 132.764C31.396 133.112 31.204 133.4 30.904 133.412C30.628 133.424 30.364 133.172 30.364 132.728C30.364 132.38 30.472 132.116 30.724 131.864C31.276 131.288 32.356 129.992 33.184 128.768C33.196 128.564 33.22 128.348 33.232 128.144C32.932 128.312 32.632 128.504 32.452 128.624C32.212 128.792 32.116 129.08 31.852 129.08C31.324 129.08 30.724 128.456 30.568 127.952C30.508 127.76 30.532 127.532 30.544 127.328L30.7 127.268C30.916 127.556 31.084 127.736 31.348 127.736C31.684 127.736 32.632 127.364 33.34 127.052C33.4 126.308 33.46 125.684 33.46 125.384C33.46 125.12 33.388 125.036 33.172 124.928C33.004 124.832 32.752 124.736 32.416 124.64ZM36.112 139.036L36.1 138.868C36.412 138.64 36.784 138.448 37.084 138.448C37.84 138.448 38.704 139.096 38.704 139.504C38.704 139.756 38.452 139.924 38.404 140.368C38.38 140.632 38.344 140.956 38.308 141.316C39.208 141.112 39.592 141.04 39.748 141.04C40.372 141.04 41.128 141.352 41.128 141.952C41.128 142.36 40.864 142.48 40.408 142.48C39.832 142.48 39.472 142.288 38.38 142.384L38.236 142.396C38.2 143.176 38.128 144.232 37.996 144.76C37.84 145.36 37.408 145.816 36.784 145.816C36.484 145.816 36.316 145.708 36.184 145.372C36.028 144.94 35.488 144.628 34.996 144.34L35.044 144.16C35.644 144.304 36.292 144.448 36.532 144.448C36.784 144.448 36.928 144.424 37.012 144.064C37.084 143.788 37.132 143.092 37.168 142.54C36.148 142.708 35.008 142.984 34.12 143.26C34.072 144.28 34.024 145.408 34.036 145.912C34.06 146.92 34.264 147.136 35.56 147.136C37.06 147.136 38.212 146.752 38.464 146.752C38.992 146.752 39.556 146.98 39.556 147.496C39.556 147.796 39.328 148.012 38.824 148.144C38.296 148.276 37.396 148.348 36.268 148.348C34.228 148.348 33.076 148.012 33.004 146.392C32.968 145.732 32.98 144.748 32.968 143.692C31.888 144.148 31.348 144.472 31.012 144.472C30.604 144.472 30.148 144.016 29.908 143.512C29.812 143.296 29.812 142.972 29.824 142.624L29.98 142.564C30.244 142.888 30.508 143.08 30.808 143.08C31.048 143.08 32.08 142.84 32.956 142.612C32.944 141.916 32.932 141.256 32.884 140.8C32.86 140.464 32.788 140.368 32.62 140.272C32.428 140.152 32.164 140.128 31.912 140.08L31.9 139.9C32.2 139.72 32.608 139.528 32.944 139.528C33.7 139.528 34.588 140.212 34.588 140.608C34.588 140.872 34.348 140.968 34.252 141.436C34.216 141.616 34.204 141.928 34.18 142.288C35.08 142.06 36.304 141.784 37.192 141.58C37.204 140.932 37.216 140.092 37.18 139.588C37.168 139.372 37.048 139.252 36.808 139.168C36.58 139.096 36.376 139.072 36.112 139.036ZM30.172 154.188L30.316 154.14C30.532 154.452 30.796 154.752 31.108 154.752C31.828 154.752 33.556 154.308 35.668 153.792C36.94 153.48 38.212 153.18 38.584 153.18C38.944 153.18 39.304 153.228 39.616 153.372C39.94 153.516 40.18 153.744 40.18 154.068C40.18 154.368 39.928 154.62 39.532 154.62C39.22 154.62 38.812 154.572 38.476 154.572C37.936 154.572 37.204 154.608 36.556 155.076C36.136 155.376 35.14 156.36 35.14 158.376C35.14 159.78 35.74 160.224 36.172 160.452C36.844 160.812 37.816 160.752 38.164 160.752C38.572 160.752 39.1 161.148 39.1 161.604C39.1 162.168 38.476 162.3 37.936 162.3C37 162.3 36.124 162.18 35.38 161.7C34.552 161.184 34.012 160.356 34.012 158.82C34.012 157.092 34.816 155.604 36.172 154.68C36.28 154.62 36.268 154.548 36.136 154.572C34.72 154.896 33.076 155.484 32.344 155.916C32.092 156.06 31.84 156.336 31.504 156.336C30.94 156.336 30.1 155.544 30.076 154.956C30.052 154.668 30.124 154.38 30.172 154.188ZM38.824 155.328L38.932 155.172C39.616 155.316 40.168 155.508 40.504 155.76C40.804 155.988 40.924 156.216 40.924 156.504C40.924 156.768 40.78 156.924 40.516 156.924C40.288 156.924 40.156 156.744 39.916 156.444C39.7 156.168 39.46 155.82 38.824 155.328ZM37.732 156.12L37.852 155.964C38.512 156.144 39.088 156.372 39.46 156.72C39.712 156.948 39.796 157.164 39.796 157.392C39.796 157.644 39.604 157.836 39.34 157.836C39.148 157.824 38.992 157.656 38.8 157.368C38.584 157.044 38.284 156.6 37.732 156.12Z" fill="white"/>
<path d="M5.012 205.086L5.712 205.59C6.188 205.94 6.314 206.276 6.314 206.654C6.314 207.228 5.852 207.62 5.348 207.62C4.984 207.62 4.718 207.466 4.494 207.312C4.284 206.934 4.172 206.514 4.172 206.08C4.172 204.792 5.11 203.63 6.426 203.056L6.608 203.392C5.81 203.868 5.32 204.33 5.012 205.086ZM1.918 205.086L2.618 205.59C3.094 205.94 3.22 206.276 3.22 206.654C3.22 207.228 2.758 207.62 2.24 207.62C1.89 207.62 1.624 207.466 1.4 207.312C1.176 206.934 1.078 206.514 1.078 206.08C1.078 204.792 2.016 203.63 3.332 203.056L3.514 203.392C2.716 203.868 2.226 204.33 1.918 205.086Z" fill="white"/>
</svg>
