<svg width="147" height="47" viewBox="0 0 147 47" fill="none" xmlns="http://www.w3.org/2000/svg">
<rect width="145.243" height="22" transform="translate(0 25.2212) rotate(-10)" fill="#FFD5E0"/>
<path d="M11.9798 36.5436C12.0067 36.696 12.0402 36.8092 12.0803 36.8833C12.1205 36.9575 12.1823 37.0008 12.2657 37.0131C12.3491 37.0255 12.4722 37.0173 12.635 36.9886C12.6508 36.9858 12.6614 37.0002 12.667 37.0317C12.6726 37.0632 12.6675 37.0804 12.6517 37.0832C12.5151 37.1072 12.3624 37.1315 12.1934 37.1559C12.0244 37.1802 11.8401 37.21 11.6405 37.2452C11.4514 37.2786 11.2707 37.3131 11.0983 37.349C10.9259 37.3848 10.7714 37.4147 10.6348 37.4388C10.6243 37.4406 10.6163 37.4258 10.6107 37.3943C10.6052 37.3628 10.6076 37.3461 10.6181 37.3443C10.781 37.3155 10.8995 37.2811 10.9736 37.241C11.053 37.1999 11.0989 37.1376 11.1113 37.0542C11.1289 36.9699 11.1243 36.8515 11.0974 36.6992L10.4542 33.0515C10.4274 32.8992 10.3917 32.789 10.3472 32.7211C10.3071 32.6469 10.2427 32.6041 10.154 32.5927C10.0697 32.575 9.94607 32.5806 9.78325 32.6093C9.77274 32.6112 9.76471 32.5963 9.75916 32.5648C9.7536 32.5333 9.75607 32.5166 9.76658 32.5148C9.90314 32.4907 10.059 32.4686 10.2342 32.4486C10.4084 32.4232 10.5901 32.3939 10.7792 32.3606C10.9788 32.3254 11.1621 32.2903 11.3293 32.2555C11.5008 32.2144 11.6522 32.1823 11.7835 32.1591C11.7992 32.1563 11.8099 32.1707 11.8154 32.2022C11.821 32.2337 11.8159 32.2509 11.8001 32.2537C11.6426 32.2815 11.5245 32.3185 11.4461 32.3648C11.3728 32.4102 11.33 32.4747 11.3177 32.5581C11.3053 32.6415 11.3125 32.7594 11.3394 32.9117L11.9798 36.5436ZM14.4631 36.8613C14.337 36.8835 14.2046 36.8852 14.0659 36.8663C13.9324 36.8465 13.8118 36.792 13.704 36.7027C13.6014 36.6124 13.5335 36.4728 13.5001 36.2837L13.1917 34.5347C13.1723 34.4244 13.1439 34.34 13.1065 34.2816C13.0691 34.2232 13.0192 34.186 12.9568 34.1699C12.8944 34.1538 12.8133 34.1546 12.7135 34.1722C12.6925 34.1759 12.6779 34.1541 12.6695 34.1069C12.6612 34.0596 12.6675 34.0341 12.6885 34.0304C12.9545 33.9727 13.1623 33.8764 13.3119 33.7418C13.4605 33.6018 13.5583 33.4194 13.6053 33.1945C13.6121 33.1716 13.6313 33.1574 13.6628 33.1519C13.6995 33.1454 13.7198 33.1526 13.7235 33.1737L14.2028 35.8917C14.2398 36.1018 14.3187 36.2422 14.4395 36.313C14.5655 36.3829 14.7074 36.4039 14.8649 36.3761C14.9857 36.3548 15.0945 36.3113 15.1912 36.2455C15.2922 36.1735 15.3744 36.1021 15.4378 36.0314C15.4507 36.0129 15.4701 36.0149 15.4957 36.0374C15.5257 36.0538 15.5315 36.0717 15.5133 36.0912C15.3532 36.3198 15.1896 36.4976 15.0225 36.6245C14.8596 36.7453 14.6732 36.8242 14.4631 36.8613ZM14.887 33.9677C14.6634 33.9584 14.4477 33.9639 14.2401 33.9843C14.0368 33.9984 13.8222 34.0255 13.5964 34.0653L13.5603 33.8604C13.7756 33.8225 13.9843 33.7775 14.1864 33.7257C14.3937 33.6729 14.6137 33.6151 14.8463 33.5524C14.8568 33.5506 14.871 33.5697 14.8889 33.6099C14.9112 33.6439 14.9265 33.6845 14.9348 33.7318C14.9441 33.7843 14.9428 33.8387 14.9311 33.8949C14.9237 33.945 14.909 33.9692 14.887 33.9677ZM17.5115 36.3237C17.1701 36.3839 16.8661 36.3644 16.5995 36.2652C16.3382 36.1651 16.1241 36.0106 15.9573 35.8017C15.7948 35.5866 15.6899 35.3452 15.6427 35.0773C15.5881 34.7674 15.6147 34.473 15.7225 34.194C15.8304 33.9151 16.0048 33.6758 16.2458 33.4763C16.4869 33.2767 16.7807 33.1464 17.1273 33.0852C17.4372 33.0306 17.6966 33.058 17.9054 33.1674C18.1195 33.2758 18.2548 33.4903 18.3113 33.8107C18.3233 33.879 18.3283 33.9377 18.3261 33.9868C18.3239 34.0359 18.3045 34.0637 18.2677 34.0702L17.5114 34.2035C17.4691 33.9023 17.3981 33.6684 17.2983 33.5019C17.1976 33.3301 17.0501 33.2613 16.8557 33.2956C16.6457 33.3326 16.4966 33.47 16.4085 33.7075C16.3256 33.9442 16.3157 34.2411 16.3787 34.5982C16.4324 34.9029 16.526 35.1571 16.6594 35.3611C16.7929 35.565 16.9622 35.7112 17.1673 35.7995C17.3724 35.8879 17.6089 35.9085 17.8768 35.8613C18.0344 35.8335 18.1624 35.792 18.261 35.7367C18.3639 35.6752 18.4749 35.5988 18.5942 35.5073C18.6029 35.495 18.6169 35.4979 18.6364 35.5161C18.6611 35.5334 18.6696 35.5509 18.6619 35.5685C18.5018 35.7971 18.3268 35.9715 18.1367 36.0916C17.951 36.2056 17.7426 36.283 17.5115 36.3237ZM16.071 34.4656L16.0367 34.3173L17.7566 33.9816L17.7871 34.1549L16.071 34.4656ZM23.3326 35.1998C23.3168 35.2026 23.3061 35.1883 23.3006 35.1567C23.295 35.1252 23.3001 35.1081 23.3159 35.1053C23.4787 35.0766 23.5825 35.0204 23.6273 34.9367C23.6765 34.8468 23.6825 34.6968 23.6455 34.4867L23.4454 33.3522C23.3473 32.7954 23.1012 32.5518 22.7073 32.6212C22.5445 32.65 22.3938 32.7171 22.2554 32.8228C22.117 32.9284 22.0126 33.0579 21.9421 33.2111L21.886 33.1235C22.0183 32.8294 22.1808 32.5841 22.3737 32.3876C22.5708 32.185 22.8007 32.0605 23.0633 32.0142C23.3417 31.9651 23.5714 32.0086 23.7524 32.1445C23.9325 32.2752 24.0522 32.5087 24.1114 32.8448L24.3782 34.3575C24.4152 34.5676 24.4696 34.7069 24.5412 34.7755C24.6172 34.8379 24.7366 34.8548 24.8995 34.8261C24.9205 34.8224 24.9338 34.8363 24.9393 34.8678C24.9449 34.8993 24.9371 34.9169 24.9161 34.9206C24.8111 34.9391 24.6898 34.9578 24.5523 34.9766C24.4148 34.9955 24.2699 35.0183 24.1176 35.0452C23.9706 35.0711 23.8292 35.0987 23.6936 35.1281C23.5579 35.1574 23.4376 35.1813 23.3326 35.1998ZM21.2684 35.5638C21.2526 35.5666 21.242 35.5522 21.2364 35.5207C21.2309 35.4892 21.236 35.472 21.2517 35.4693C21.4146 35.4406 21.5184 35.3843 21.5632 35.3006C21.6123 35.2107 21.6184 35.0607 21.5813 34.8506L21.3813 33.7161C21.2831 33.1594 21.0371 32.9158 20.6431 32.9852C20.4803 33.0139 20.3297 33.0811 20.1913 33.1867C20.0528 33.2924 19.9484 33.4218 19.8779 33.575L19.8219 33.4875C19.9541 33.1933 20.1167 32.9481 20.3095 32.7516C20.5066 32.549 20.7365 32.4245 20.9991 32.3782C21.2775 32.3291 21.5063 32.3673 21.6855 32.4927C21.8646 32.6182 21.9801 32.828 22.032 33.1221L22.314 34.7214C22.3511 34.9315 22.4054 35.0709 22.4771 35.1395C22.5531 35.2019 22.6725 35.2188 22.8353 35.19C22.8563 35.1863 22.8696 35.2002 22.8752 35.2318C22.8807 35.2633 22.873 35.2809 22.852 35.2846C22.7469 35.3031 22.6257 35.3218 22.4882 35.3406C22.3507 35.3594 22.2058 35.3823 22.0535 35.4091C21.9064 35.4351 21.7651 35.4627 21.6294 35.492C21.4938 35.5214 21.3734 35.5453 21.2684 35.5638ZM19.2436 35.9208C19.2279 35.9236 19.2172 35.9092 19.2117 35.8777C19.2061 35.8462 19.2112 35.8291 19.227 35.8263C19.3898 35.7976 19.4936 35.7414 19.5384 35.6576C19.5823 35.5687 19.5857 35.4191 19.5487 35.209L19.2875 33.7279C19.2588 33.5651 19.2196 33.4501 19.1698 33.3831C19.1192 33.3108 19.0492 33.2825 18.9599 33.2983C18.9127 33.3066 18.8594 33.3268 18.8 33.3589C18.7398 33.3858 18.6735 33.4246 18.6012 33.4752C18.582 33.4894 18.5644 33.4817 18.5484 33.4521C18.5323 33.4224 18.5291 33.404 18.5387 33.3969L19.5393 32.6681C19.569 32.652 19.5864 32.6435 19.5917 32.6426C19.6494 32.6324 19.7183 32.6852 19.7983 32.8011C19.8783 32.917 19.9392 33.0931 19.9808 33.3294L20.2892 35.0785C20.3263 35.2886 20.3806 35.4279 20.4523 35.4965C20.5283 35.5589 20.6477 35.5758 20.8105 35.5471C20.8263 35.5443 20.837 35.5587 20.8425 35.5902C20.8481 35.6217 20.843 35.6388 20.8272 35.6416C20.7222 35.6601 20.6009 35.6788 20.4634 35.6976C20.3259 35.7165 20.181 35.7393 20.0287 35.7662C19.8816 35.7921 19.7403 35.8197 19.6047 35.849C19.469 35.8784 19.3487 35.9023 19.2436 35.9208Z" fill="#222222"/>
<line x1="26.9531" y1="31.6947" x2="23.5116" y2="36.6096" stroke="#222222" stroke-width="0.5"/>
<path d="M29.7938 27.817C30.1217 27.8336 30.4274 27.8779 30.7108 27.9498C31.0008 28.0205 31.2704 28.1287 31.5195 28.2743C31.6087 28.3195 31.6602 28.3815 31.6741 28.4603C31.6934 28.5313 31.7104 28.5892 31.7251 28.634C31.7478 28.7248 31.7814 28.8577 31.8258 29.0326C31.869 29.201 31.9169 29.3956 31.9694 29.6165C32.0219 29.8375 32.0744 30.0584 32.1268 30.2793C32.1859 30.499 32.2355 30.7035 32.2756 30.8928C32.3158 31.082 32.3463 31.2357 32.3671 31.3539C32.3949 31.5114 32.3897 31.6545 32.3514 31.7831C32.3197 31.9106 32.1988 31.9928 31.9887 32.0298C31.8377 32.0565 31.6999 32.0232 31.5751 31.9302C31.4493 31.8305 31.3435 31.7104 31.2577 31.5698C31.1786 31.4281 31.1286 31.2981 31.1078 31.1799C31.0881 31.0683 31.0727 30.9424 31.0615 30.8022C31.0557 30.6543 31.0345 30.4956 30.9978 30.326C30.977 30.2079 30.9467 30.0744 30.9069 29.9257C30.8737 29.7759 30.8334 29.6239 30.7859 29.4698C30.7438 29.308 30.6937 29.1578 30.6354 29.0191C30.5624 28.8357 30.4489 28.6526 30.2948 28.4699C30.1396 28.2807 29.9473 28.1115 29.7179 27.9624L29.7938 27.817ZM31.3659 28.3826C31.5289 28.3471 31.7465 28.2952 32.0188 28.2268C32.2911 28.1585 32.589 28.0823 32.9127 27.9982C33.2363 27.914 33.5567 27.8304 33.8737 27.7475C34.1897 27.6579 34.4766 27.5768 34.7346 27.5043C34.9914 27.4251 35.1843 27.3674 35.3133 27.3312C35.3767 27.3064 35.447 27.2636 35.5242 27.2026C35.6003 27.135 35.677 27.0707 35.7542 27.0097C35.8303 26.9421 35.9012 26.9026 35.9668 26.891C36.0784 26.8713 36.214 26.8914 36.3735 26.9513C36.5318 27.0046 36.687 27.0788 36.8392 27.1738C36.9979 27.2677 37.1336 27.3656 37.2464 27.4676C37.3591 27.5695 37.4225 27.6599 37.4363 27.7387C37.4502 27.8175 37.4307 27.8988 37.3778 27.9826C37.3249 28.0664 37.2654 28.1513 37.1993 28.2374C37.1333 28.3235 37.0914 28.4122 37.0736 28.5033C36.9557 29.2552 36.7841 29.9522 36.5589 30.5944C36.3325 31.2301 36.0476 31.8219 35.7042 32.3698C35.3608 32.9178 34.9464 33.4275 34.4609 33.899C33.9742 34.3639 33.4072 34.7955 32.7599 35.194L32.5873 35.0214C33.2883 34.39 33.8698 33.6952 34.3318 32.9368C34.8004 32.1772 35.1519 31.3875 35.3864 30.5676C35.621 29.7478 35.7422 28.9378 35.75 28.1376C35.7438 28.0642 35.7292 28.0194 35.706 28.0032C35.6882 27.9792 35.6498 27.9725 35.5907 27.9829C35.4791 28.0026 35.3489 28.0323 35.2003 28.072C35.0504 28.1052 34.8919 28.1467 34.7247 28.1965C34.5628 28.2386 34.3983 28.2845 34.2311 28.3343C34.0639 28.3841 33.9032 28.4328 33.7491 28.4802C33.454 28.5729 33.1804 28.6719 32.9282 28.7773C32.6749 28.8761 32.4858 28.9365 32.3611 28.9585C32.2298 28.9817 32.0942 28.9616 31.9544 28.8982C31.8212 28.8337 31.6351 28.7379 31.396 28.6108L31.3659 28.3826ZM43.3491 24.9496L43.3688 24.7735C43.5056 24.7426 43.6494 24.7138 43.8004 24.6872C43.9503 24.654 44.102 24.651 44.2557 24.678C44.4488 24.6981 44.6417 24.7555 44.8344 24.8501C45.0271 24.9448 45.192 25.0545 45.3291 25.1792C45.4727 25.3028 45.555 25.4237 45.5758 25.5419C45.592 25.6338 45.5785 25.7107 45.5352 25.7725C45.4974 25.8265 45.4431 25.8835 45.3724 25.9433C45.3083 26.002 45.2384 26.0854 45.1627 26.1935C44.9854 26.455 44.7675 26.7743 44.5091 27.1516C44.2507 27.5289 43.9546 27.9229 43.6209 28.3338C43.505 28.4828 43.3304 28.6829 43.0972 28.9339C42.8639 29.1848 42.5875 29.4604 42.2681 29.7604C41.9487 30.0604 41.5887 30.3608 41.1882 30.6616C40.7942 30.9612 40.3709 31.2288 39.9183 31.4643L39.7769 31.2963C40.1477 30.9804 40.5106 30.6389 40.8656 30.2717C41.2194 29.8979 41.555 29.5172 41.8725 29.1295C42.1889 28.7352 42.4762 28.3495 42.7347 27.9722C42.9919 27.5884 43.2165 27.2306 43.4085 26.8989C43.5993 26.5606 43.7506 26.2665 43.8622 26.0167C43.9866 25.724 44.0366 25.5087 44.0123 25.3708C43.9961 25.2789 43.9208 25.1974 43.7864 25.1263C43.6521 25.0552 43.5063 24.9963 43.3491 24.9496ZM43.1772 28.1785L43.5886 27.6896C43.867 27.8098 44.1103 27.9226 44.3184 28.028C44.5331 28.1323 44.6515 28.2468 44.6735 28.3716C44.6885 28.4569 44.6883 28.5518 44.6728 28.656C44.6639 28.7591 44.6689 28.8835 44.6879 29.0291C44.7523 29.4713 44.826 29.9085 44.909 30.3406C44.9919 30.7728 45.0668 31.159 45.1336 31.4992C45.2069 31.8383 45.2586 32.0932 45.2887 32.2639C45.3257 32.474 45.3093 32.6495 45.2394 32.7905C45.1695 32.9314 45.0459 33.0175 44.8686 33.0488C44.6979 33.0789 44.5481 33.0545 44.4191 32.9757C44.2913 32.9035 44.1878 32.7965 44.1086 32.6547C44.0283 32.5064 43.9737 32.3502 43.9448 32.1861C43.9274 32.0876 43.922 31.9802 43.9286 31.864C43.934 31.7412 43.9321 31.596 43.9229 31.4284C43.909 31.2345 43.8912 31.0379 43.8697 30.8387C43.8535 30.6317 43.8319 30.4324 43.8049 30.2408C43.7844 30.0481 43.7591 29.8664 43.729 29.6957C43.7055 29.5238 43.6816 29.369 43.6573 29.2311C43.633 29.0932 43.61 28.9822 43.5884 28.898C43.5594 28.7339 43.5127 28.6033 43.4483 28.5064C43.3826 28.4029 43.2923 28.2936 43.1772 28.1785ZM54.984 24.939C54.8744 24.8162 54.7356 24.6816 54.5676 24.5352C54.4062 24.3877 54.1899 24.2362 53.9189 24.081L53.9948 23.9356C54.2832 23.9592 54.5478 24.0005 54.7884 24.0596C55.0344 24.111 55.2444 24.1891 55.4186 24.2938C55.541 24.3737 55.63 24.4562 55.6856 24.5412C55.7478 24.625 55.787 24.7128 55.8032 24.8047C55.8217 24.9098 55.8045 25.0042 55.7516 25.088C55.6975 25.1652 55.6147 25.2137 55.503 25.2334C55.4243 25.2473 55.343 25.2278 55.2592 25.1748C55.1808 25.1142 55.0891 25.0356 54.984 24.939ZM55.7303 23.8732C55.6176 23.7713 55.4861 23.6591 55.3359 23.5366C55.1857 23.4142 54.9652 23.2771 54.6744 23.1252L54.7404 22.9816C55.032 22.9843 55.2937 23.0093 55.5254 23.0564C55.7559 23.097 55.9494 23.1577 56.1058 23.2384C56.2456 23.3018 56.351 23.3813 56.422 23.4771C56.4919 23.5663 56.5373 23.67 56.5581 23.7882C56.5766 23.8933 56.5616 23.9805 56.5129 24.05C56.4708 24.1184 56.3972 24.1618 56.2922 24.1803C56.2003 24.1966 56.1124 24.1782 56.0286 24.1253C55.9502 24.0646 55.8508 23.9806 55.7303 23.8732ZM50.5724 23.8181C50.7052 23.727 50.842 23.6385 50.9825 23.5528C51.1297 23.466 51.2755 23.4098 51.4199 23.3843C51.5381 23.3635 51.6806 23.3654 51.8474 23.3902C52.0143 23.4149 52.1774 23.4572 52.3369 23.5171C52.5018 23.5693 52.6383 23.6332 52.7464 23.7089C52.8546 23.7846 52.9156 23.8619 52.9295 23.9406C52.9468 24.0391 52.9416 24.1247 52.9138 24.1973C52.8925 24.2687 52.8653 24.3446 52.8321 24.4249C52.8054 24.5041 52.7932 24.6078 52.7955 24.736C52.8013 24.8839 52.8111 25.0548 52.825 25.2486C52.8454 25.4414 52.8715 25.6466 52.9031 25.8644C52.9348 26.0823 52.9708 26.3061 53.0114 26.5358C53.0523 26.8062 53.0949 27.0864 53.1393 27.3764C53.189 27.6587 53.2394 27.9443 53.2903 28.2332C53.3478 28.5209 53.403 28.7955 53.4559 29.0569C53.5088 29.3184 53.5549 29.5607 53.5942 29.784C53.6525 30.0377 53.6994 30.2461 53.7349 30.409C53.7704 30.572 53.794 30.6863 53.8055 30.752C53.8507 31.008 53.847 31.1982 53.7945 31.3226C53.7485 31.4458 53.627 31.5247 53.4301 31.5595C53.2659 31.5884 53.1149 31.5575 52.9771 31.4667C52.8404 31.3825 52.7224 31.251 52.6232 31.0722C52.5305 30.8922 52.4628 30.6807 52.4199 30.4378C52.3968 30.3065 52.3901 30.1723 52.3997 30.0352C52.4082 29.8916 52.4065 29.7091 52.3946 29.4878C52.3819 29.3005 52.3612 29.0875 52.3327 28.8488C52.303 28.6036 52.2661 28.3562 52.2222 28.1068C52.1836 27.8495 52.1446 27.6093 52.1052 27.3861C52.0724 27.1617 52.0427 26.974 52.0161 26.823C51.9802 26.6195 51.9376 26.3969 51.8882 26.1551C51.8453 25.9122 51.7965 25.6737 51.7417 25.4397C51.6935 25.2045 51.646 24.9928 51.5993 24.8047C51.5514 24.6101 51.5078 24.4587 51.4684 24.3506C51.4067 24.1922 51.3011 24.0924 51.1516 24.051C51.001 24.0031 50.8205 23.9774 50.61 23.9739L50.5724 23.8181ZM52.7293 26.2606C53.2823 26.2105 53.81 26.2088 54.3125 26.2556C54.8137 26.2959 55.2244 26.3792 55.5446 26.5055C55.7844 26.5986 55.9844 26.7156 56.1447 26.8566C56.3038 26.991 56.4065 27.1896 56.4528 27.4522C56.4817 27.6163 56.4541 27.7667 56.3699 27.9034C56.2922 28.039 56.1648 28.1224 55.9875 28.1536C55.8299 28.1814 55.6967 28.1744 55.5878 28.1327C55.4777 28.0844 55.3702 28.012 55.2652 27.9154C55.1601 27.8189 55.0352 27.7055 54.8904 27.5753C54.7445 27.4386 54.5612 27.3017 54.3407 27.1645C54.1446 27.0502 53.9227 26.9438 53.6752 26.8453C53.4342 26.7456 53.1374 26.6558 52.7849 26.5758L52.7293 26.2606ZM59.713 23.0085L59.8683 22.9101C59.9567 22.9892 60.0517 23.0673 60.1532 23.1441C60.2536 23.2144 60.3583 23.2705 60.4672 23.3122C60.5749 23.3473 60.6846 23.3551 60.7962 23.3354C60.9275 23.3122 61.0926 23.2696 61.2915 23.2074C61.497 23.1441 61.7117 23.0758 61.9357 23.0025C62.1663 22.928 62.3897 22.8513 62.606 22.7726C62.8277 22.6861 63.0242 22.6108 63.1957 22.5467C63.3738 22.4815 63.5064 22.4276 63.5937 22.3852C63.6756 22.3504 63.7447 22.301 63.8011 22.2369C63.8564 22.1662 63.9127 22.1021 63.9703 22.0446C64.0267 21.9805 64.0877 21.9427 64.1534 21.9311C64.2584 21.9126 64.3901 21.93 64.5484 21.9833C64.7133 22.0354 64.8751 22.1085 65.0338 22.2023C65.1991 22.295 65.3387 22.3957 65.4526 22.5042C65.5719 22.605 65.6385 22.6948 65.6524 22.7736C65.6686 22.8655 65.6437 22.9545 65.5777 23.0406C65.5105 23.1202 65.4361 23.1976 65.3546 23.2729C65.272 23.3416 65.2162 23.409 65.1872 23.475C65.0991 23.6666 64.9923 23.9054 64.8667 24.1916C64.7466 24.47 64.6091 24.765 64.4542 25.0767C64.3047 25.3806 64.1337 25.6781 63.9414 25.9693C63.7587 26.2384 63.5352 26.5452 63.271 26.8896C63.0122 27.2264 62.7086 27.5778 62.3602 27.9438C62.0118 28.3099 61.6047 28.6694 61.1389 29.0223C60.672 29.3686 60.1407 29.6958 59.5452 30.0039L59.4004 29.8162C59.8237 29.4911 60.2362 29.1239 60.6379 28.7146C61.0384 28.2987 61.4179 27.8595 61.7764 27.3969C62.1402 26.9266 62.4657 26.4495 62.7527 25.9656C63.0462 25.4806 63.2971 25.0031 63.5054 24.5331C63.7124 24.0566 63.8579 23.6146 63.9418 23.2072C63.9723 23.0732 63.9252 23.0172 63.8004 23.0392C63.7043 23.0697 63.565 23.1247 63.3827 23.2043C63.2059 23.2761 63.0116 23.3645 62.7999 23.4695C62.5937 23.5668 62.3979 23.6656 62.2125 23.766C62.026 23.8598 61.8738 23.9374 61.756 23.9988C61.6502 24.0513 61.5664 24.1135 61.5046 24.1853C61.4482 24.2494 61.3912 24.3102 61.3337 24.3678C61.2749 24.4187 61.1963 24.4529 61.0979 24.4703C60.9534 24.4957 60.7997 24.4687 60.6368 24.3891C60.4804 24.3084 60.3369 24.205 60.2064 24.0791C60.0747 23.9466 59.9788 23.8248 59.9186 23.7135C59.8672 23.6143 59.8245 23.5067 59.7906 23.3909C59.7554 23.2684 59.7296 23.141 59.713 23.0085ZM63.4316 25.9576L63.5544 25.7329C64.0206 25.7657 64.4793 25.8338 64.9308 25.937C65.3888 26.039 65.8061 26.1786 66.1826 26.356C66.5645 26.5255 66.8782 26.7308 67.1238 26.9719C67.3682 27.2063 67.5165 27.4713 67.5686 27.7667C67.5952 27.9177 67.5682 28.0714 67.4874 28.2278C67.4067 28.3842 67.2678 28.4798 67.0709 28.5145C66.9396 28.5376 66.8156 28.5257 66.699 28.4785C66.5824 28.4314 66.4644 28.3574 66.3451 28.2566C66.2312 28.1481 66.1001 28.0189 65.9518 27.869C65.7379 27.6156 65.5191 27.3733 65.2956 27.1419C65.072 26.9106 64.8135 26.6921 64.52 26.4866C64.2265 26.2811 63.8637 26.1048 63.4316 25.9576ZM70.2396 20.3401C70.3724 20.2489 70.5091 20.1605 70.6497 20.0748C70.7957 19.9814 70.9409 19.9219 71.0854 19.8965C71.2035 19.8756 71.3466 19.8809 71.5146 19.9122C71.6814 19.9369 71.844 19.9759 72.0024 20.0292C72.1673 20.0814 72.3043 20.1486 72.4136 20.2309C72.5217 20.3066 72.5828 20.3838 72.5966 20.4626C72.614 20.5611 72.6088 20.6466 72.581 20.7192C72.5597 20.7907 72.5325 20.8666 72.4993 20.9469C72.4726 21.0261 72.4604 21.1297 72.4627 21.258C72.4685 21.4059 72.4783 21.5768 72.4922 21.7706C72.5126 21.9633 72.5387 22.1686 72.5703 22.3864C72.6019 22.6042 72.638 22.828 72.6785 23.0578C72.7183 23.3216 72.7603 23.5985 72.8047 23.8885C72.8556 24.1774 72.9066 24.4663 72.9575 24.7552C73.015 25.0429 73.0702 25.3175 73.1231 25.5789C73.176 25.8404 73.2221 26.0827 73.2614 26.306C73.3186 26.5531 73.3654 26.7615 73.4021 26.931C73.4376 27.094 73.4612 27.2083 73.4727 27.274C73.5179 27.53 73.5142 27.7202 73.4616 27.8446C73.4157 27.9678 73.2942 28.0467 73.0972 28.0814C72.9331 28.1104 72.7821 28.0795 72.6443 27.9887C72.5064 27.8979 72.3884 27.7664 72.2904 27.5942C72.1977 27.4142 72.13 27.2027 72.0871 26.9598C72.064 26.8285 72.0572 26.6943 72.0669 26.5572C72.0754 26.4135 72.0737 26.2311 72.0618 26.0098C72.0491 25.8225 72.0284 25.6095 71.9999 25.3708C71.9702 25.1256 71.9327 24.8749 71.8876 24.6189C71.849 24.3617 71.81 24.1215 71.7707 23.8982C71.7379 23.6739 71.7088 23.4895 71.6833 23.345C71.6462 23.1349 71.6036 22.9123 71.5554 22.6771C71.5125 22.4342 71.4637 22.1957 71.4089 21.9616C71.3607 21.7265 71.3126 21.5115 71.2648 21.3169C71.2169 21.1222 71.1733 20.9708 71.1339 20.8627C71.0721 20.7044 70.9665 20.6045 70.8171 20.5632C70.6676 20.5218 70.4877 20.4994 70.2772 20.4959L70.2396 20.3401ZM72.3965 22.7826C72.9429 22.7337 73.4674 22.7326 73.9698 22.7794C74.4776 22.8185 74.8916 22.9012 75.2118 23.0275C75.4504 23.114 75.6499 23.2278 75.8101 23.3688C75.9704 23.5097 76.0736 23.7115 76.1199 23.9742C76.1477 24.1317 76.1201 24.2821 76.037 24.4254C75.9594 24.561 75.8319 24.6444 75.6547 24.6756C75.4971 24.7034 75.3639 24.6964 75.255 24.6547C75.1449 24.6064 75.0374 24.534 74.9323 24.4374C74.8262 24.3343 74.7007 24.2176 74.5559 24.0875C74.4111 23.9573 74.2284 23.8237 74.0079 23.6865C73.8117 23.5722 73.5899 23.4658 73.3424 23.3673C73.1014 23.2676 72.8046 23.1778 72.452 23.0978L72.3965 22.7826ZM79.0239 19.6543C79.1425 19.5589 79.2736 19.4579 79.4173 19.3513C79.5664 19.2371 79.7066 19.1683 79.8379 19.1452C79.9889 19.1186 80.149 19.1242 80.3181 19.162C80.4927 19.1922 80.6576 19.2444 80.8128 19.3185C80.9734 19.385 81.1057 19.4632 81.2096 19.5532C81.3189 19.6355 81.3799 19.7127 81.3926 19.7849C81.4076 19.8703 81.3997 19.9597 81.3688 20.0531C81.3433 20.1389 81.3118 20.229 81.2743 20.3236C81.2423 20.4105 81.2284 20.5044 81.2326 20.6052C81.238 20.7125 81.2505 20.8796 81.2702 21.1063C81.2953 21.3252 81.3228 21.5776 81.3529 21.8634C81.3896 22.148 81.4247 22.4431 81.4582 22.7486C81.4972 23.0463 81.5344 23.3342 81.5699 23.6123C81.6108 23.8826 81.648 24.113 81.6816 24.3034C81.7048 24.4347 81.7665 24.478 81.867 24.4332C82.1539 24.2946 82.4695 24.1069 82.8136 23.8702C83.1631 23.6258 83.5239 23.349 83.8958 23.0397C84.2678 22.7304 84.6324 22.3987 84.9896 22.0446C85.3535 21.6894 85.6997 21.3305 86.0284 20.9679C86.356 20.5987 86.6447 20.2398 86.8946 19.8911L87.0667 20.003C86.6031 21.0595 85.9777 22.043 85.1905 22.9536C84.4099 23.8629 83.5426 24.703 82.5886 25.4737C82.4754 25.5613 82.3963 25.6497 82.3511 25.7389C82.3059 25.8282 82.2616 25.9036 82.2184 25.9654C82.1751 26.0272 82.101 26.0674 81.9959 26.0859C81.9106 26.1009 81.7914 26.0779 81.6385 26.0169C81.4921 25.9547 81.3456 25.8722 81.1989 25.7695C81.051 25.6602 80.9228 25.5474 80.8143 25.4311C80.7058 25.3149 80.644 25.2141 80.6289 25.1287C80.6093 25.0171 80.6263 24.9024 80.68 24.7846C80.7402 24.6657 80.7609 24.5334 80.742 24.3878C80.7297 24.2411 80.7038 24.0561 80.6644 23.8329C80.6317 23.6085 80.5921 23.365 80.5458 23.1024C80.5049 22.832 80.4601 22.559 80.4115 22.2832C80.3617 22.0009 80.311 21.7323 80.2593 21.4774C80.213 21.2148 80.168 20.9791 80.1244 20.7701C80.0808 20.5612 80.0447 20.3949 80.0161 20.2713C79.9899 20.1609 79.9513 20.0763 79.9003 20.0176C79.8559 19.9577 79.77 19.912 79.6426 19.8803C79.5217 19.8474 79.3269 19.8175 79.0581 19.7904L79.0239 19.6543ZM88.6249 20.1445C88.7465 20.2585 88.8554 20.3577 88.9516 20.4423C89.0543 20.5257 89.1667 20.5872 89.2887 20.6266C89.4096 20.6594 89.5554 20.6608 89.7261 20.6307C89.9033 20.5994 90.1227 20.5574 90.3841 20.5045C90.651 20.4439 90.9409 20.3793 91.2537 20.3106C91.5653 20.2353 91.877 20.16 92.1887 20.0848C92.5069 20.0083 92.8087 19.9348 93.0941 19.8642C93.3795 19.7936 93.6261 19.7331 93.8339 19.683C94.0471 19.6251 94.2062 19.5869 94.3112 19.5683C94.6337 19.4776 94.9043 19.3995 95.1229 19.3338C95.3403 19.2617 95.5081 19.2151 95.6263 19.1943C95.8298 19.1584 96.0194 19.1588 96.1951 19.1955C96.3697 19.2257 96.516 19.2879 96.6342 19.3821C96.7578 19.4687 96.8323 19.5841 96.8578 19.7286C96.8832 19.873 96.8465 19.9912 96.7476 20.0831C96.6476 20.1684 96.4925 20.2296 96.2825 20.2667C96.0921 20.3002 95.8912 20.3322 95.68 20.3627C95.4741 20.3855 95.1972 20.4275 94.8493 20.4889C94.6983 20.5155 94.4992 20.5574 94.252 20.6145C94.0103 20.6639 93.7434 20.7245 93.4514 20.7963C93.1583 20.8615 92.8657 20.93 92.5738 21.0018C92.2818 21.0736 92.0128 21.1414 91.7668 21.205C91.5208 21.2687 91.324 21.3237 91.1765 21.3701C90.9436 21.4314 90.7661 21.5 90.6441 21.5756C90.5209 21.6447 90.4141 21.711 90.3237 21.7743C90.2322 21.831 90.1241 21.8704 89.9993 21.8924C89.8746 21.9144 89.7197 21.8808 89.5347 21.7915C89.3552 21.6946 89.1814 21.5729 89.0134 21.4265C88.8443 21.2736 88.7163 21.1235 88.6294 20.9764C88.5638 20.8729 88.5227 20.7549 88.5061 20.6224C88.4883 20.4834 88.4756 20.3536 88.4679 20.2331L88.6249 20.1445ZM99.7838 15.1306C99.9166 15.0395 100.053 14.9511 100.194 14.8654C100.34 14.7719 100.485 14.7125 100.63 14.687C100.748 14.6662 100.891 14.6714 101.059 14.7027C101.226 14.7274 101.388 14.7665 101.547 14.8198C101.711 14.872 101.849 14.9392 101.958 15.0214C102.066 15.0971 102.127 15.1744 102.141 15.2532C102.158 15.3517 102.153 15.4372 102.125 15.5098C102.104 15.5812 102.077 15.6571 102.043 15.7374C102.017 15.8166 102.005 15.9203 102.007 16.0485C102.013 16.1964 102.023 16.3673 102.036 16.5612C102.057 16.7539 102.083 16.9592 102.115 17.177C102.146 17.3948 102.182 17.6186 102.223 17.8484C102.263 18.1122 102.305 18.3891 102.349 18.6791C102.4 18.968 102.451 19.2569 102.502 19.5457C102.559 19.8334 102.614 20.108 102.667 20.3695C102.72 20.631 102.766 20.8733 102.806 21.0965C102.863 21.3437 102.91 21.552 102.946 21.7216C102.982 21.8846 103.005 21.9989 103.017 22.0645C103.062 22.3206 103.058 22.5108 103.006 22.6351C102.96 22.7583 102.838 22.8373 102.641 22.872C102.477 22.9009 102.326 22.87 102.188 22.7793C102.051 22.6885 101.933 22.557 101.835 22.3847C101.742 22.2047 101.674 21.9933 101.631 21.7504C101.608 21.6191 101.601 21.4849 101.611 21.3478C101.62 21.2041 101.618 21.0216 101.606 20.8003C101.593 20.613 101.573 20.4 101.544 20.1614C101.514 19.9161 101.477 19.6655 101.432 19.4094C101.393 19.1522 101.354 18.912 101.315 18.6888C101.282 18.4644 101.253 18.28 101.228 18.1356C101.19 17.9255 101.148 17.7028 101.1 17.4676C101.057 17.2247 101.008 16.9862 100.953 16.7522C100.905 16.517 100.857 16.3021 100.809 16.1074C100.761 15.9128 100.718 15.7614 100.678 15.6533C100.616 15.4949 100.511 15.3951 100.361 15.3537C100.212 15.3124 100.032 15.29 99.8214 15.2865L99.7838 15.1306ZM101.941 17.5732C102.487 17.5242 103.012 17.5231 103.514 17.5699C104.022 17.609 104.436 17.6917 104.756 17.818C104.995 17.9046 105.194 18.0183 105.354 18.1593C105.515 18.3003 105.618 18.5021 105.664 18.7647C105.692 18.9223 105.664 19.0727 105.581 19.216C105.504 19.3515 105.376 19.4349 105.199 19.4662C105.041 19.4939 104.908 19.487 104.799 19.4453C104.689 19.397 104.582 19.3245 104.477 19.228C104.37 19.1248 104.245 19.0082 104.1 18.878C103.955 18.7479 103.773 18.6142 103.552 18.4771C103.356 18.3628 103.134 18.2563 102.887 18.1578C102.646 18.0581 102.349 17.9683 101.996 17.8883L101.941 17.5732ZM113.761 13.8643C113.707 13.5557 113.769 13.274 113.947 13.0191C114.125 12.7643 114.372 12.6091 114.687 12.5535C114.996 12.4991 115.278 12.5611 115.533 12.7396C115.787 12.918 115.942 13.1615 115.996 13.4701C116.052 13.7852 115.991 14.0702 115.812 14.3251C115.634 14.58 115.39 14.7346 115.082 14.789C114.766 14.8446 114.481 14.7831 114.227 14.6047C113.972 14.4262 113.816 14.1794 113.761 13.8643ZM114.165 13.7931C114.201 13.9966 114.3 14.1552 114.462 14.2687C114.631 14.3811 114.813 14.42 115.01 14.3852C115.207 14.3505 115.363 14.252 115.476 14.0899C115.59 13.9277 115.629 13.7448 115.593 13.5413C115.558 13.3443 115.459 13.1891 115.297 13.0755C115.135 12.9619 114.956 12.9225 114.759 12.9573C114.562 12.992 114.403 13.091 114.283 13.2544C114.169 13.4166 114.13 13.5961 114.165 13.7931ZM109.636 15.5767L109.639 15.4237C109.741 15.3855 109.859 15.3477 109.995 15.3102C110.129 15.2662 110.259 15.2365 110.385 15.2211C110.558 15.2041 110.732 15.231 110.907 15.3017C111.089 15.3712 111.255 15.4672 111.405 15.5896C111.562 15.7109 111.689 15.8374 111.786 15.9691C111.891 16.0997 111.953 16.2208 111.972 16.3324C111.994 16.4571 111.952 16.5797 111.844 16.7002C111.742 16.8129 111.647 16.9448 111.559 17.0958C111.394 17.3889 111.188 17.6994 110.941 18.0272C110.701 18.3539 110.427 18.6831 110.12 19.0148C109.813 19.3465 109.487 19.6646 109.141 19.9693C108.801 20.2662 108.452 20.5342 108.095 20.7732L107.947 20.6266C108.216 20.349 108.477 20.0424 108.729 19.7068C108.98 19.3647 109.21 19.0195 109.42 18.6712C109.636 18.3217 109.82 17.9846 109.972 17.6598C110.132 17.3339 110.249 17.0423 110.326 16.7851C110.409 16.5268 110.438 16.3287 110.414 16.1908C110.398 16.0989 110.353 16.0155 110.279 15.9405C110.203 15.859 110.109 15.7876 109.997 15.7262C109.891 15.6636 109.771 15.6137 109.636 15.5767ZM116.219 18.8227C116.017 18.8652 115.853 18.8196 115.728 18.6859C115.603 18.5523 115.482 18.3671 115.366 18.1304C115.033 17.4715 114.641 16.8773 114.189 16.3477C113.743 15.817 113.181 15.3576 112.504 14.9694L112.594 14.791C113.039 14.8953 113.488 15.0429 113.941 15.2337C114.4 15.4169 114.826 15.643 115.219 15.9123C115.61 16.1749 115.939 16.4656 116.205 16.7842C116.47 17.0963 116.644 17.4279 116.726 17.7789C116.76 17.9353 116.76 18.091 116.727 18.2458C116.7 18.3995 116.641 18.5283 116.551 18.6322C116.468 18.7349 116.357 18.7984 116.219 18.8227ZM118.353 12.4352C118.694 12.4156 119.047 12.4211 119.411 12.4516C119.776 12.4822 120.118 12.5436 120.439 12.636C120.76 12.7283 121.027 12.8606 121.24 13.0329C121.452 13.1986 121.581 13.4095 121.626 13.6655C121.657 13.8428 121.625 14.0075 121.53 14.1596C121.435 14.3118 121.293 14.4046 121.102 14.4382C120.945 14.466 120.799 14.4476 120.666 14.3831C120.538 14.3109 120.397 14.2004 120.242 14.0517C120.095 13.9084 119.96 13.7798 119.839 13.6659C119.717 13.5519 119.586 13.4397 119.444 13.3292C119.31 13.2176 119.148 13.1073 118.96 12.9984C118.777 12.8817 118.551 12.7556 118.284 12.62L118.353 12.4352ZM125.832 12.1217L126.03 12.2087C125.789 12.9957 125.462 13.7506 125.048 14.4735C124.64 15.1887 124.162 15.8755 123.614 16.5338C123.066 17.1856 122.452 17.8118 121.772 18.4122C121.679 18.4964 121.604 18.5875 121.546 18.6856C121.488 18.7771 121.428 18.8588 121.366 18.9306C121.311 19.0013 121.234 19.0453 121.136 19.0626C120.952 19.0951 120.749 19.0767 120.527 19.0075C120.31 18.9306 120.11 18.8306 119.926 18.7074C119.741 18.5842 119.605 18.4627 119.516 18.343C119.431 18.2429 119.353 18.111 119.284 17.9473C119.213 17.7769 119.166 17.6229 119.141 17.485L119.264 17.372C119.356 17.4369 119.461 17.5099 119.576 17.591C119.691 17.6656 119.814 17.7286 119.945 17.7799C120.075 17.8248 120.195 17.8373 120.307 17.8177C120.484 17.7864 120.715 17.6779 121.001 17.4922C121.292 17.2987 121.613 17.0491 121.966 16.7433C122.324 16.4363 122.69 16.0909 123.062 15.7071C123.435 15.3233 123.797 14.9242 124.151 14.5099C124.511 14.0944 124.834 13.682 125.121 13.2727C125.414 12.8622 125.651 12.4786 125.832 12.1217ZM129.72 10.502L129.833 10.3398C130.044 10.3839 130.238 10.4308 130.416 10.4807C130.594 10.5305 130.779 10.5995 130.971 10.6876C131.278 10.8162 131.535 10.9875 131.742 11.2015C131.948 11.4089 132.077 11.6636 132.13 11.9656C132.166 12.1692 132.131 12.3344 132.025 12.4615C131.917 12.582 131.788 12.6555 131.637 12.6821C131.467 12.7122 131.332 12.6784 131.233 12.5807C131.14 12.4753 131.051 12.332 130.965 12.1508C130.884 11.962 130.766 11.7559 130.612 11.5327C130.538 11.4172 130.448 11.2942 130.344 11.1636C130.24 11.0331 130.133 10.9097 130.025 10.7934C129.915 10.6706 129.813 10.5735 129.72 10.502ZM129.577 18.0414L129.424 17.8653C129.92 17.4934 130.375 17.0781 130.788 16.6194C131.208 16.1595 131.588 15.683 131.927 15.1899C132.267 14.6968 132.563 14.2112 132.818 13.7331C133.071 13.2485 133.278 12.7922 133.439 12.3644C133.6 11.9299 133.713 11.5546 133.779 11.2383C133.851 10.9143 133.871 10.6669 133.841 10.4962C133.82 10.378 133.739 10.284 133.598 10.2141C133.463 10.1364 133.273 10.0752 133.028 10.0304L133.038 9.856C133.144 9.80349 133.261 9.7591 133.39 9.72281C133.524 9.67881 133.658 9.65179 133.792 9.64177C133.944 9.62171 134.11 9.63988 134.289 9.69629C134.467 9.74613 134.636 9.82127 134.796 9.9217C134.956 10.0221 135.091 10.1338 135.2 10.2566C135.31 10.3794 135.374 10.4966 135.394 10.6082C135.41 10.7002 135.392 10.788 135.339 10.8718C135.292 10.9479 135.235 11.029 135.169 11.1151C135.102 11.1946 135.051 11.2916 135.017 11.4059C134.844 11.9983 134.609 12.6049 134.312 13.2259C134.014 13.8403 133.644 14.4438 133.2 15.0366C132.756 15.6293 132.234 16.1817 131.634 16.6937C131.032 17.1991 130.347 17.6484 129.577 18.0414ZM127.583 11.6302L127.695 11.4581C127.897 11.4902 128.092 11.5437 128.282 11.6187C128.476 11.6859 128.64 11.7485 128.772 11.8064C129.144 11.9575 129.442 12.152 129.667 12.3899C129.897 12.6201 130.037 12.8764 130.086 13.1587C130.115 13.3228 130.091 13.4726 130.013 13.6082C129.935 13.7372 129.793 13.8196 129.59 13.8555C129.419 13.8856 129.281 13.8491 129.175 13.7459C129.074 13.6351 128.973 13.487 128.873 13.3016C128.772 13.1162 128.646 12.9152 128.492 12.6985C128.343 12.4675 128.192 12.264 128.039 12.0879C127.885 11.9052 127.733 11.7526 127.583 11.6302Z" fill="#222222"/>
</svg>
