<svg width="118" height="42" viewBox="0 0 118 42" fill="none" xmlns="http://www.w3.org/2000/svg">
<rect width="115.243" height="22" transform="translate(0 20.0117) rotate(-10)" fill="#FFD5E0"/>
<path d="M11.9798 31.3342C12.0067 31.4865 12.0402 31.5997 12.0803 31.6739C12.1205 31.748 12.1823 31.7913 12.2657 31.8037C12.3491 31.816 12.4722 31.8079 12.635 31.7792C12.6508 31.7764 12.6614 31.7907 12.667 31.8223C12.6726 31.8538 12.6675 31.8709 12.6517 31.8737C12.5151 31.8978 12.3624 31.922 12.1934 31.9464C12.0244 31.9708 11.8401 32.0006 11.6405 32.0358C11.4514 32.0691 11.2707 32.1037 11.0983 32.1395C10.9259 32.1753 10.7714 32.2052 10.6348 32.2293C10.6243 32.2312 10.6163 32.2163 10.6107 32.1848C10.6052 32.1533 10.6076 32.1366 10.6181 32.1348C10.781 32.1061 10.8995 32.0716 10.9736 32.0315C11.053 31.9904 11.0989 31.9282 11.1113 31.8447C11.1289 31.7604 11.1243 31.6421 11.0974 31.4898L10.4542 27.842C10.4274 27.6897 10.3917 27.5796 10.3472 27.5116C10.3071 27.4374 10.2427 27.3946 10.154 27.3832C10.0697 27.3656 9.94607 27.3711 9.78325 27.3998C9.77274 27.4017 9.76471 27.3868 9.75916 27.3553C9.7536 27.3238 9.75607 27.3071 9.76658 27.3053C9.90314 27.2812 10.059 27.2591 10.2342 27.2391C10.4084 27.2138 10.5901 27.1844 10.7792 27.1511C10.9788 27.1159 11.1621 27.0809 11.3293 27.046C11.5008 27.0049 11.6522 26.9728 11.7835 26.9497C11.7992 26.9469 11.8099 26.9612 11.8154 26.9928C11.821 27.0243 11.8159 27.0414 11.8001 27.0442C11.6426 27.072 11.5245 27.109 11.4461 27.1554C11.3728 27.2008 11.33 27.2652 11.3177 27.3486C11.3053 27.432 11.3125 27.5499 11.3394 27.7022L11.9798 31.3342ZM14.4631 31.6518C14.337 31.674 14.2046 31.6757 14.0659 31.6568C13.9324 31.637 13.8118 31.5825 13.704 31.4932C13.6014 31.403 13.5335 31.2633 13.5001 31.0742L13.1917 29.3252C13.1723 29.2149 13.1439 29.1306 13.1065 29.0722C13.0691 29.0138 13.0192 28.9765 12.9568 28.9604C12.8944 28.9444 12.8133 28.9451 12.7135 28.9627C12.6925 28.9664 12.6779 28.9447 12.6695 28.8974C12.6612 28.8501 12.6675 28.8246 12.6885 28.8209C12.9545 28.7632 13.1623 28.667 13.3119 28.5323C13.4605 28.3924 13.5583 28.2099 13.6053 27.985C13.6121 27.9622 13.6313 27.948 13.6628 27.9424C13.6995 27.9359 13.7198 27.9432 13.7235 27.9642L14.2028 30.6823C14.2398 30.8923 14.3187 31.0328 14.4395 31.1035C14.5655 31.1734 14.7074 31.1944 14.8649 31.1666C14.9857 31.1453 15.0945 31.1018 15.1912 31.036C15.2922 30.964 15.3744 30.8927 15.4378 30.8219C15.4507 30.8034 15.4701 30.8054 15.4957 30.828C15.5257 30.8443 15.5315 30.8623 15.5133 30.8817C15.3532 31.1103 15.1896 31.2881 15.0225 31.415C14.8596 31.5358 14.6732 31.6147 14.4631 31.6518ZM14.887 28.7582C14.6634 28.7489 14.4477 28.7544 14.2401 28.7748C14.0368 28.789 13.8222 28.816 13.5964 28.8558L13.5603 28.651C13.7756 28.613 13.9843 28.5681 14.1864 28.5162C14.3937 28.4634 14.6137 28.4056 14.8463 28.343C14.8568 28.3411 14.871 28.3603 14.8889 28.4004C14.9112 28.4344 14.9265 28.4751 14.9348 28.5223C14.9441 28.5748 14.9428 28.6292 14.9311 28.6854C14.9237 28.7355 14.909 28.7597 14.887 28.7582ZM17.5115 31.1143C17.1701 31.1745 16.8661 31.1549 16.5995 31.0557C16.3382 30.9556 16.1241 30.8011 15.9573 30.5922C15.7948 30.3772 15.6899 30.1357 15.6427 29.8678C15.5881 29.558 15.6147 29.2635 15.7225 28.9846C15.8304 28.7056 16.0048 28.4663 16.2458 28.2668C16.4869 28.0672 16.7807 27.9369 17.1273 27.8758C17.4372 27.8211 17.6966 27.8485 17.9054 27.9579C18.1195 28.0664 18.2548 28.2808 18.3113 28.6012C18.3233 28.6695 18.3283 28.7282 18.3261 28.7773C18.3239 28.8264 18.3045 28.8542 18.2677 28.8607L17.5114 28.9941C17.4691 28.6928 17.3981 28.459 17.2983 28.2924C17.1976 28.1206 17.0501 28.0519 16.8557 28.0861C16.6457 28.1232 16.4966 28.2605 16.4085 28.4981C16.3256 28.7347 16.3157 29.0316 16.3787 29.3888C16.4324 29.6934 16.526 29.9477 16.6594 30.1516C16.7929 30.3555 16.9622 30.5017 17.1673 30.5901C17.3724 30.6785 17.6089 30.699 17.8768 30.6518C18.0344 30.624 18.1624 30.5825 18.261 30.5272C18.3639 30.4657 18.4749 30.3893 18.5942 30.2978C18.6029 30.2855 18.6169 30.2884 18.6364 30.3067C18.6611 30.324 18.6696 30.3414 18.6619 30.359C18.5018 30.5876 18.3268 30.762 18.1367 30.8822C17.951 30.9961 17.7426 31.0735 17.5115 31.1143ZM16.071 29.2562L16.0367 29.1079L17.7566 28.7721L17.7871 28.9455L16.071 29.2562ZM23.3326 29.9904C23.3168 29.9931 23.3061 29.9788 23.3006 29.9473C23.295 29.9158 23.3001 29.8986 23.3159 29.8958C23.4787 29.8671 23.5825 29.8109 23.6273 29.7272C23.6765 29.6373 23.6825 29.4873 23.6455 29.2772L23.4454 28.1427C23.3473 27.586 23.1012 27.3423 22.7073 27.4118C22.5445 27.4405 22.3938 27.5077 22.2554 27.6133C22.117 27.7189 22.0126 27.8484 21.9421 28.0016L21.886 27.914C22.0183 27.6199 22.1808 27.3746 22.3737 27.1782C22.5708 26.9755 22.8007 26.851 23.0633 26.8047C23.3417 26.7556 23.5714 26.7991 23.7524 26.935C23.9325 27.0658 24.0522 27.2992 24.1114 27.6353L24.3782 29.148C24.4152 29.3581 24.4696 29.4974 24.5412 29.566C24.6172 29.6285 24.7366 29.6453 24.8995 29.6166C24.9205 29.6129 24.9338 29.6268 24.9393 29.6583C24.9449 29.6898 24.9371 29.7074 24.9161 29.7111C24.8111 29.7297 24.6898 29.7483 24.5523 29.7672C24.4148 29.786 24.2699 29.8088 24.1176 29.8357C23.9706 29.8616 23.8292 29.8893 23.6936 29.9186C23.5579 29.9479 23.4376 29.9718 23.3326 29.9904ZM21.2684 30.3543C21.2526 30.3571 21.242 30.3427 21.2364 30.3112C21.2309 30.2797 21.236 30.2626 21.2517 30.2598C21.4146 30.2311 21.5184 30.1749 21.5632 30.0912C21.6123 30.0013 21.6184 29.8513 21.5813 29.6412L21.3813 28.5067C21.2831 27.9499 21.0371 27.7063 20.6431 27.7757C20.4803 27.8044 20.3297 27.8716 20.1913 27.9773C20.0528 28.0829 19.9484 28.2123 19.8779 28.3656L19.8219 28.278C19.9541 27.9839 20.1167 27.7386 20.3095 27.5421C20.5066 27.3395 20.7365 27.215 20.9991 27.1687C21.2775 27.1196 21.5063 27.1578 21.6855 27.2833C21.8646 27.4087 21.9801 27.6185 22.032 27.9126L22.314 29.512C22.3511 29.7221 22.4054 29.8614 22.4771 29.93C22.5531 29.9924 22.6725 30.0093 22.8353 29.9806C22.8563 29.9769 22.8696 29.9908 22.8752 30.0223C22.8807 30.0538 22.873 30.0714 22.852 30.0751C22.7469 30.0936 22.6257 30.1123 22.4882 30.1311C22.3507 30.15 22.2058 30.1728 22.0535 30.1997C21.9064 30.2256 21.7651 30.2532 21.6294 30.2826C21.4938 30.3119 21.3734 30.3358 21.2684 30.3543ZM19.2436 30.7114C19.2279 30.7141 19.2172 30.6998 19.2117 30.6683C19.2061 30.6367 19.2112 30.6196 19.227 30.6168C19.3898 30.5881 19.4936 30.5319 19.5384 30.4482C19.5823 30.3592 19.5857 30.2097 19.5487 29.9996L19.2875 28.5184C19.2588 28.3556 19.2196 28.2407 19.1698 28.1736C19.1192 28.1013 19.0492 28.073 18.9599 28.0888C18.9127 28.0971 18.8594 28.1173 18.8 28.1495C18.7398 28.1763 18.6735 28.2151 18.6012 28.2658C18.582 28.28 18.5644 28.2722 18.5484 28.2426C18.5323 28.2129 18.5291 28.1945 18.5387 28.1874L19.5393 27.4586C19.569 27.4425 19.5864 27.434 19.5917 27.4331C19.6494 27.4229 19.7183 27.4758 19.7983 27.5916C19.8783 27.7075 19.9392 27.8836 19.9808 28.12L20.2892 29.869C20.3263 30.0791 20.3806 30.2184 20.4523 30.287C20.5283 30.3494 20.6477 30.3663 20.8105 30.3376C20.8263 30.3348 20.837 30.3492 20.8425 30.3807C20.8481 30.4122 20.843 30.4294 20.8272 30.4321C20.7222 30.4507 20.6009 30.4693 20.4634 30.4882C20.3259 30.507 20.181 30.5298 20.0287 30.5567C19.8816 30.5826 19.7403 30.6102 19.6047 30.6396C19.469 30.6689 19.3487 30.6928 19.2436 30.7114Z" fill="#222222"/>
<line x1="26.9531" y1="26.4852" x2="23.5116" y2="31.4001" stroke="#222222" stroke-width="0.5"/>
<path d="M29.766 26.928C29.5934 26.7553 29.5042 26.5375 29.4371 26.2143L29.5396 26.1048C29.7678 26.2473 30.0215 26.3041 30.1496 26.2816C30.2874 26.2572 30.4392 26.1391 30.649 25.8889C31.0748 25.367 31.7481 24.2328 31.9897 23.8755C32.1989 23.5644 32.3959 23.3571 32.6815 23.3067C33.0163 23.2477 33.3378 23.3433 33.7398 23.6075C35.3095 24.6203 36.9337 25.654 38.0134 26.1338C38.4293 26.3041 38.7206 26.6894 38.7918 27.0932C38.8491 27.4182 38.7002 27.6678 38.4048 27.7199C38.0305 27.7859 37.4606 27.4904 36.55 26.8183C35.8561 26.2806 34.0177 24.8379 33.3591 24.3854C33.1372 24.2215 32.9872 24.1768 32.8789 24.1959C32.7804 24.2133 32.6941 24.2996 32.5793 24.5128C32.3354 24.9721 31.8382 26.126 31.618 26.6624C31.4685 27.0238 31.3613 27.3372 31.0068 27.3997C30.6128 27.4692 30.0863 27.2472 29.766 26.928ZM44.487 21.154L44.5699 21.048C44.9232 21.0365 45.1636 21.0753 45.4625 21.2155C45.9398 21.4462 46.2607 21.8262 46.3041 22.0724C46.3475 22.3186 46.0787 22.4066 45.7259 22.6516C44.9107 23.2117 43.6878 23.935 42.1363 24.696C42.2133 25.1901 42.2799 25.6252 42.3384 25.8992C42.4923 26.7148 42.6412 26.8104 43.7146 26.6212C45.1524 26.3676 46.0139 25.84 46.2109 25.8053C46.9495 25.6751 47.3747 25.7829 47.4424 26.1669C47.5032 26.5116 47.3323 26.6941 47.0623 26.8331C46.5814 27.1006 45.4877 27.4052 44.1681 27.6379C42.0113 28.0182 41.7073 27.6758 41.4138 26.1841C41.1342 24.7712 40.736 21.7646 40.5722 21.4686C40.4633 21.2542 40.1684 21.1945 39.7143 21.1527L39.6934 21.0346C39.9107 20.8846 40.2716 20.628 40.5572 20.5776C41.14 20.485 41.9579 20.9196 42.0187 21.2643C42.0638 21.5203 41.8628 21.6472 41.8575 21.9629C41.8685 22.428 41.9691 23.3445 42.0808 24.2082C43.141 23.4831 44.1804 22.6398 44.6659 21.9957C44.7893 21.8318 44.8212 21.7246 44.7355 21.5265C44.6683 21.3759 44.5501 21.2241 44.487 21.154ZM45.0485 20.0192L45.1227 19.864C45.6903 19.9162 46.1862 20.0217 46.5418 20.2535C46.7834 20.414 46.8917 20.5675 46.9148 20.7564C46.9513 20.9632 46.8215 21.1485 46.6147 21.185C46.4456 21.2047 46.3031 21.0876 46.1038 20.8791C45.8698 20.6461 45.571 20.3333 45.0485 20.0192ZM45.8179 19.1423L45.884 18.9987C46.4563 19.0196 46.9388 19.1071 47.251 19.2653C47.532 19.4189 47.6536 19.5904 47.6953 19.8267C47.7317 20.0335 47.628 20.194 47.4311 20.2287C47.2324 20.2536 47.098 20.125 46.8657 19.9019C46.6485 19.7067 46.4012 19.4558 45.8179 19.1423ZM52.2612 24.0683C53.1533 23.8298 54.4423 23.4806 55.3674 23.2566C55.36 22.1206 55.2884 20.6202 55.2085 20.1672C55.1894 20.0589 55.1512 20.0149 55.0429 20.034C54.5308 20.1243 53.4434 20.4074 52.9255 20.5799C52.6191 20.6847 52.3114 20.8405 52.1145 20.8753C51.9865 20.8978 51.797 20.8602 51.6024 20.7929C51.7674 21.5559 52.1078 23.3135 52.2612 24.0683ZM49.5397 20.1514L49.5941 19.9996C50.1897 19.8641 50.7301 19.8196 51.3302 20.1707C51.3864 20.2014 51.4212 20.2258 51.4478 20.2617C52.4008 20.0226 54.1422 19.5328 54.5338 19.3926C54.9468 19.2589 54.9961 18.9049 55.2719 18.8563C55.6264 18.7938 56.8243 19.4254 56.8989 19.8489C56.9493 20.1344 56.5565 20.3256 56.5385 20.6841C56.5176 21.2565 56.4653 22.1694 56.4177 23.0511C56.7629 23.0511 57.103 23.1942 57.1533 23.4798C57.2002 23.7457 57.0953 23.9572 56.7802 24.0127C56.4552 24.07 55.9095 24.085 55.3679 24.1805C54.6096 24.3142 53.4695 24.5863 52.418 24.8428L52.4528 25.0398C52.5066 25.3451 52.4336 25.622 52.0692 25.6862C51.7442 25.7435 51.3625 25.364 51.2844 24.9209C51.2392 24.6648 51.2225 24.2819 51.1501 23.9291C51.0511 23.3678 50.5874 21.6015 50.3146 20.9185C50.1733 20.5778 49.9944 20.4266 49.5397 20.1514ZM60.4069 17.169L60.4897 17.063C60.9369 17.238 61.2885 17.2166 61.6135 17.1593C62.3324 17.0325 63.056 16.7019 63.4505 16.5206C63.9105 16.3075 64.0339 16.1436 64.1718 16.1193C64.8218 16.0047 65.2718 16.1385 65.3413 16.5325C65.376 16.7294 65.31 16.8731 65.007 16.9976C64.2504 17.3138 62.7117 17.8592 61.8845 18.0051C61.2641 18.1145 60.8847 17.8057 60.4069 17.169ZM59.3882 19.5115L59.4977 19.4414C59.7954 19.6326 60.0056 19.7885 60.3109 19.7346C60.9806 19.6165 63.7897 18.6744 65.0931 18.2923C65.7489 18.0954 65.9349 17.9408 66.0334 17.9234C66.6538 17.814 67.3709 18.0227 67.4404 18.4166C67.4977 18.7416 67.3638 18.8464 67.0979 18.8933C66.8813 18.9315 66.3599 18.9117 65.7986 19.0107C65.3653 19.0871 64.7402 19.2278 64.0827 19.4148C64.4754 19.569 64.7483 19.7341 64.7865 19.9507C64.8299 20.1969 64.6028 20.3487 64.4613 20.8712C64.1669 22.0807 63.4443 23.7414 61.3952 25.0775L61.2162 24.9263C63.1044 23.0804 63.469 20.772 63.3336 20.0038C63.3145 19.8955 63.274 19.7808 63.1958 19.6829C62.5533 19.8977 61.872 20.1803 61.5743 20.3344C61.2585 20.5017 60.9335 20.7317 60.6497 20.7919C60.3148 20.8509 59.7391 20.465 59.5619 20.151C59.4617 19.9859 59.4101 19.7513 59.3882 19.5115ZM76.5634 15.4473C76.4058 15.4751 76.2633 15.358 76.0542 15.1512C75.8202 14.9183 75.5132 14.617 74.9809 14.3047L75.0551 14.1495C75.6326 14.2 76.1285 14.3055 76.4824 14.5274C76.7222 14.678 76.8322 14.8414 76.8652 15.0285C76.9017 15.2353 76.78 15.4091 76.5634 15.4473ZM77.3293 14.5507C77.1422 14.5837 77.0078 14.455 76.7674 14.2436C76.5502 14.0483 76.2931 13.7992 75.6999 13.4875L75.7677 13.3536C76.3482 13.363 76.8208 13.4523 77.1412 13.5989C77.4221 13.7524 77.5536 13.9222 77.5935 14.1487C77.63 14.3555 77.5361 14.5142 77.3293 14.5507ZM69.3031 16.1385C69.6275 16.3656 69.9171 16.5684 70.2814 16.5042C71.0693 16.3653 73.5041 15.6618 74.0151 15.4498C74.4032 15.29 74.3951 15.129 74.6709 15.0803C75.1239 15.0005 76.3177 15.7242 76.3802 16.0787C76.4375 16.4037 76.0922 16.5763 75.9902 16.9192C75.2322 19.5305 73.7582 21.7095 70.7497 23.3062L70.5968 23.1301C73.037 21.2478 74.5696 18.4796 74.662 16.2395C74.6661 16.1474 74.6215 16.1248 74.5526 16.1369C73.8927 16.2533 71.7979 17.0999 71.2626 17.3466C71.0465 17.4456 70.8351 17.686 70.6086 17.7259C70.1654 17.8041 69.519 17.2479 69.3563 16.9009C69.2538 16.6651 69.2225 16.4878 69.1756 16.2219L69.3031 16.1385ZM81.4274 14.0108L81.3881 13.8452C81.6737 13.6222 81.8718 13.5365 82.1475 13.4878C82.6793 13.3941 83.5639 13.7458 83.6212 14.0708C83.668 14.3367 83.4305 14.4294 83.4455 14.8024C83.4675 15.3875 83.7649 17.4776 83.8981 18.1751C83.9259 18.3326 84.0133 18.368 84.1506 18.2829C85.1639 17.6371 86.3481 16.4636 87.2821 15.2531L87.4622 15.3533C86.8764 16.868 85.7066 18.3537 84.633 19.4062C84.4326 19.5938 84.3045 19.9616 84.0287 20.0103C83.6644 20.0745 82.9548 19.4482 82.9045 19.1626C82.8645 18.9361 82.97 18.7855 82.9399 18.3846C82.9041 17.8934 82.5006 15.3752 82.2731 14.4304C82.2048 14.1581 81.9094 14.0375 81.4274 14.0108ZM80.3201 16.0237C80.2646 15.7086 79.8672 15.5857 79.5063 15.497L79.4768 15.3296C79.6796 15.2126 79.9101 15.0806 80.2056 15.0285C80.6603 14.9584 81.6317 15.2847 81.7029 15.6885C81.7463 15.9347 81.5725 16.1583 81.5667 16.4131C81.5271 18.1464 80.754 20.0394 78.8816 21.456L78.7275 21.3309C79.9865 19.7177 80.5702 17.4418 80.3201 16.0237ZM95.5877 11.91C95.4302 11.9378 95.2761 11.8126 95.0769 11.6041C94.8429 11.3712 94.5359 11.0699 94.0036 10.7576L94.0777 10.6023C94.6553 10.6528 95.1494 10.7485 95.505 10.9802C95.7547 11.1291 95.8531 11.2844 95.8879 11.4814C95.9243 11.6882 95.8044 11.8718 95.5877 11.91ZM96.4475 11.0273C96.2506 11.062 96.1145 10.9236 95.8839 10.7103C95.6667 10.5151 95.4096 10.266 94.8181 9.96408L94.8842 9.82042C95.4664 9.83962 95.9472 9.91731 96.2594 10.0755C96.5386 10.2192 96.6718 10.3988 96.7117 10.6253C96.7482 10.8321 96.6543 10.9908 96.4475 11.0273ZM95.1044 13.4879C94.4025 16.3026 92.8758 18.4706 89.9739 20.0383L89.8245 19.8819C92.738 17.4591 94.0083 14.2397 93.8869 12.6872C93.8701 12.4769 93.6946 12.3454 93.0128 12.2219L93.003 12.051C93.2254 11.9305 93.5707 11.7579 93.8302 11.7325C94.3556 11.6602 95.4064 12.206 95.4863 12.659C95.5297 12.9052 95.1977 13.0957 95.1044 13.4879ZM89.5223 14.3097C89.0983 13.8057 88.7201 13.4459 88.2318 13.0954L88.324 12.9268C89.68 13.0735 91.1038 13.6044 91.2926 14.617C91.3603 15.0011 91.1302 15.3665 90.7856 15.4273C90.3129 15.5107 90.0557 14.9163 89.5223 14.3097ZM98.6818 10.8567L98.7427 10.6835C100.13 10.6015 101.847 10.8977 102.026 11.9121C102.088 12.2666 101.886 12.617 101.502 12.6847C101.187 12.7403 100.949 12.5995 100.642 12.2982C100.064 11.7299 99.754 11.4089 98.6818 10.8567ZM100.707 16.0642C101.77 15.8766 105.149 12.519 106.232 10.3683L106.43 10.4552C105.697 12.8081 104.211 14.8574 102.172 16.6587C101.892 16.9113 101.821 17.2588 101.536 17.3092C100.974 17.4082 100.183 16.9487 99.9161 16.5895C99.758 16.3838 99.5918 16.0171 99.5414 15.7315L99.6637 15.6186C99.9417 15.8132 100.352 16.1267 100.707 16.0642Z" fill="#222222"/>
</svg>
