<svg width="59" height="199" viewBox="0 0 59 199" fill="none" xmlns="http://www.w3.org/2000/svg">
<g filter="url(#filter0_d_4202_9845)">
<path d="M50.4707 6.53412L49.7707 6.03012C49.2947 5.68012 49.1687 5.34412 49.1687 4.96612C49.1687 4.39212 49.6307 4.00012 50.1347 4.00012C50.4987 4.00012 50.7647 4.15412 50.9887 4.30812C51.1987 4.68612 51.3107 5.10612 51.3107 5.54012C51.3107 6.82812 50.3727 7.99012 49.0567 8.56412L48.8747 8.22812C49.6727 7.75212 50.1627 7.29012 50.4707 6.53412ZM53.5647 6.53412L52.8647 6.03012C52.3887 5.68012 52.2627 5.34412 52.2627 4.96612C52.2627 4.39212 52.7247 4.00012 53.2427 4.00012C53.5927 4.00012 53.8587 4.15412 54.0827 4.30812C54.3067 4.68612 54.4047 5.10612 54.4047 5.54012C54.4047 6.82812 53.4667 7.99012 52.1507 8.56412L51.9687 8.22812C52.7667 7.75212 53.2567 7.29012 53.5647 6.53412Z" fill="white"/>
<path d="M13.7461 18.3381L13.7181 18.1561C14.0821 17.9461 14.6001 17.6381 14.9781 17.6381C15.8461 17.6381 16.9941 18.4781 16.9941 18.9121C16.9941 19.2761 16.6021 19.5841 16.5601 20.0041C16.4621 20.7461 16.2801 23.8261 16.2801 25.1841C16.2801 25.3661 16.3501 25.4501 16.5041 25.4081C18.6181 24.8201 22.3701 22.4681 24.5541 20.3681L24.7501 20.5641C22.9721 23.2801 20.2561 25.3801 17.2461 27.0461C16.7141 27.3541 16.7421 27.7601 16.2801 27.7601C15.7481 27.7601 14.6001 26.5841 14.6001 26.0801C14.6001 25.7581 14.9221 25.4921 14.9501 25.0861C15.0341 23.8401 15.0061 20.2981 14.9361 19.2481C14.8941 18.7721 14.8241 18.6601 13.7461 18.3381ZM16.4341 34.2881V34.1061C16.7421 33.9661 17.2601 33.7841 17.7361 33.7841C18.5621 33.7841 19.7521 34.5541 19.7521 35.0441C19.7521 35.4361 19.4721 35.7301 19.3881 36.2341C19.3041 36.7381 19.2761 37.9561 19.2761 38.9361C19.2761 39.7761 19.3321 43.1361 19.3321 44.0041C19.3321 44.6481 19.1221 45.0681 18.4361 45.0681C17.7081 45.0681 17.4141 44.1441 17.4141 43.3601C17.4141 42.9821 17.5401 42.3661 17.5961 41.7081C17.6661 40.8261 17.6941 39.4121 17.6941 38.5861C17.6941 37.4241 17.6801 36.0521 17.6101 35.3381C17.5541 34.7081 17.0781 34.5121 16.4341 34.2881ZM14.2921 52.0721L14.5161 51.9881C14.8381 52.3801 15.2301 52.7861 15.7061 52.7861C16.6861 52.7861 19.1221 52.3241 19.7941 52.1561C20.1301 52.0861 20.3821 51.6661 20.6761 51.6661C21.2781 51.6661 22.5661 52.7581 22.5661 53.2201C22.5661 53.6121 21.8941 53.8361 21.7401 54.0741C21.2501 54.7601 20.5361 55.9641 19.6261 56.9721C21.9221 57.6581 23.9801 58.9881 23.9801 60.5561C23.9801 60.9901 23.6581 61.4801 23.0981 61.4801C22.5381 61.4801 22.1741 61.0601 21.7121 60.3181C21.0821 59.2541 20.5361 58.2461 19.2341 57.3781C17.9461 58.6941 15.7761 60.6541 12.3461 61.7041L12.1781 61.4241C15.4821 59.7161 18.9261 56.1321 20.0601 53.3881C20.1441 53.1921 20.0601 53.1221 19.9061 53.1361C19.3601 53.1781 17.5821 53.7101 16.8821 53.9481C16.4061 54.1161 16.2521 54.4521 15.8461 54.4521C15.2161 54.4521 14.5581 53.6261 14.3901 53.1081C14.2921 52.8141 14.2641 52.4641 14.2921 52.0721ZM15.4541 68.2321L15.4261 68.0361C15.8741 67.7841 16.4621 67.5321 16.7701 67.5321C17.3581 67.5321 18.4501 67.9521 18.5061 68.3441C18.5621 68.6941 18.3661 68.8901 18.3941 69.2821C18.4221 69.5901 18.4781 69.9121 18.5481 70.3321C19.0241 70.2061 19.3601 70.1081 19.6821 69.9961C20.2981 69.7861 20.6481 69.5201 20.7741 69.5061C21.2641 69.4921 22.2581 69.7861 22.2581 70.2061C22.2581 70.5561 22.1181 70.8221 21.5581 70.9201C20.7321 71.0741 19.5981 71.3121 18.7861 71.5081C18.9541 72.2501 19.1081 72.9221 19.2481 73.5241C20.3261 73.2301 21.4181 72.9361 22.0341 72.7121C22.3841 72.5861 22.5241 72.4601 22.6501 72.4601C23.4761 72.4601 24.3161 72.7961 24.3161 73.2441C24.3161 73.5241 24.2041 73.8601 23.6301 73.9161C22.1321 74.0421 21.0261 74.2101 19.4861 74.6021C19.7381 75.6661 19.9201 76.4221 20.0461 76.9121C20.2701 77.7381 20.4381 78.1441 20.4381 78.6901C20.4381 79.0681 20.2141 79.3761 19.6821 79.3761C19.1501 79.3901 18.7581 78.7181 18.6461 78.1161C18.5621 77.8501 18.5481 77.1081 18.3941 76.3241C18.3241 75.9041 18.2261 75.4281 18.1281 74.9521C17.2041 75.2321 16.1261 75.5961 15.5101 75.9041C15.0621 76.1001 14.8521 76.3521 14.5021 76.3521C13.9561 76.3661 13.1301 75.7921 12.9341 75.4841C12.8081 75.2741 12.7381 74.9801 12.7101 74.5741L12.8641 74.4761C13.2841 74.7841 13.4941 74.8821 13.7741 74.8821C14.1661 74.8821 16.3361 74.2941 17.9041 73.8741C17.7361 73.0901 17.5681 72.3621 17.4421 71.8441C16.8961 71.9981 16.3501 72.1661 15.9441 72.3201C15.5241 72.5021 15.2721 72.6981 14.9221 72.6981C14.5301 72.6981 13.8301 72.1941 13.5501 71.7601C13.4101 71.5361 13.3821 71.3821 13.3261 71.0601L13.4801 70.9761C13.8021 71.1721 13.9701 71.3121 14.3201 71.3121C14.6561 71.3121 16.0141 70.9761 17.1621 70.6961C16.9801 69.9401 16.8121 69.3101 16.6861 69.0161C16.5181 68.6241 16.3221 68.5541 15.4541 68.2321ZM17.6381 86.2541L17.6241 86.1281C17.9601 85.9741 18.2401 85.8201 18.7021 85.8201C19.1781 85.8201 20.2421 86.0721 20.2421 86.4361C20.2421 86.6881 20.1301 87.0101 20.1581 87.3041C20.1721 87.4721 20.2281 87.8081 20.2841 88.1721C21.2361 87.9201 22.4681 87.5701 22.8041 87.4721C23.0701 87.3741 23.3081 87.1361 23.4901 87.1361C23.9941 87.1361 25.0161 87.9761 25.0161 88.5221C25.0161 88.8161 24.4981 88.8441 24.3021 88.9981C23.7701 89.4601 22.8881 90.3001 21.8381 90.8741L21.6841 90.7761C22.2441 89.9781 22.7341 88.9841 22.9301 88.4661C22.9861 88.3261 22.9161 88.2981 22.7761 88.3261C22.3701 88.4101 21.4041 88.7041 20.4661 88.9841C20.8021 90.4121 21.2361 91.9521 21.4461 92.6941C21.5301 92.9881 21.7261 93.5341 21.7261 93.8561C21.7261 94.2901 21.5301 94.5141 21.0961 94.5141C20.4941 94.5141 20.0881 93.9961 20.0461 93.3661C19.9621 92.4981 19.6681 90.7621 19.3041 89.3481C18.8701 89.5021 18.4501 89.6701 18.2261 89.7541C17.7221 89.9921 17.5261 90.2721 17.2181 90.2721C16.7561 90.2721 16.1821 89.7401 16.0421 89.3761C15.9721 89.2081 15.9581 88.8721 16.0001 88.5781L16.0981 88.5361C16.3641 88.7321 16.5041 88.9141 16.8961 88.9141C17.2601 88.9141 18.1981 88.6901 19.0801 88.4661C18.8981 87.8081 18.7021 87.1641 18.5481 86.8561C18.4081 86.5901 18.0581 86.4081 17.6381 86.2541ZM20.2981 102.89C21.1941 103.296 21.4881 103.8 21.4881 104.388C21.4881 104.668 21.2781 105.116 20.7741 105.116C20.2701 105.13 20.0881 104.906 19.5421 104.458C18.3381 103.52 17.4561 103.072 15.7901 102.512L15.8461 102.288C17.1341 102.26 19.1361 102.358 20.2981 102.89ZM14.9361 105.9L14.9921 105.676C16.8821 105.62 18.4221 105.956 19.1221 106.236C19.7661 106.502 20.2981 106.894 20.2981 107.538C20.2981 107.944 20.0601 108.322 19.5421 108.322C19.1781 108.322 18.9121 108.14 18.3521 107.734C17.7501 107.328 16.7421 106.6 14.9361 105.9ZM14.6001 109.89L14.6561 109.652C16.5181 109.624 19.0521 110.058 20.4661 110.87C21.1661 111.276 21.6141 111.822 21.6141 112.298C21.6141 112.774 21.4041 113.152 20.7181 113.152C20.2701 113.152 19.7801 112.788 19.2061 112.284C17.9041 111.22 16.4621 110.492 14.6001 109.89Z" fill="#FFD5E0"/>
<path d="M13.0941 118.808L13.2381 118.76C13.4541 119.072 13.7181 119.372 14.0301 119.372C14.7501 119.372 16.4781 118.928 18.5901 118.412C19.8621 118.1 21.1341 117.8 21.5061 117.8C21.8661 117.8 22.2261 117.848 22.5381 117.992C22.8621 118.136 23.1021 118.364 23.1021 118.688C23.1021 118.988 22.8501 119.24 22.4541 119.24C22.1421 119.24 21.7341 119.192 21.3981 119.192C20.8581 119.192 20.1261 119.228 19.4781 119.696C19.0581 119.996 18.0621 120.98 18.0621 122.996C18.0621 124.4 18.6621 124.844 19.0941 125.072C19.7661 125.432 20.7381 125.372 21.0861 125.372C21.4941 125.372 22.0221 125.768 22.0221 126.224C22.0221 126.788 21.3981 126.92 20.8581 126.92C19.9221 126.92 19.0461 126.8 18.3021 126.32C17.4741 125.804 16.9341 124.976 16.9341 123.44C16.9341 121.712 17.7381 120.224 19.0941 119.3C19.2021 119.24 19.1901 119.168 19.0581 119.192C17.6421 119.516 15.9981 120.104 15.2661 120.536C15.0141 120.68 14.7621 120.956 14.4261 120.956C13.8621 120.956 13.0221 120.164 12.9981 119.576C12.9741 119.288 13.0461 119 13.0941 118.808ZM21.7461 119.948L21.8541 119.792C22.5381 119.936 23.0901 120.128 23.4261 120.38C23.7261 120.608 23.8461 120.836 23.8461 121.124C23.8461 121.388 23.7021 121.544 23.4381 121.544C23.2101 121.544 23.0781 121.364 22.8381 121.064C22.6221 120.788 22.3821 120.44 21.7461 119.948ZM20.6541 120.74L20.7741 120.584C21.4341 120.764 22.0101 120.992 22.3821 121.34C22.6341 121.568 22.7181 121.784 22.7181 122.012C22.7181 122.264 22.5261 122.456 22.2621 122.456C22.0701 122.444 21.9141 122.276 21.7221 121.988C21.5061 121.664 21.2061 121.22 20.6541 120.74ZM18.3501 134.656H16.2741V136.336H18.3501V134.656ZM16.2741 138.412H18.3501V136.672H16.2741V138.412ZM22.5981 131.68L23.8941 132.844C23.7981 132.952 23.6301 133.036 23.3541 133.072C23.2341 137.584 23.0301 140.272 22.3341 141.016C21.8781 141.496 21.3381 141.7 20.4141 141.7C20.4141 141.256 20.3181 140.884 20.0901 140.668C19.8381 140.452 19.2261 140.224 18.5301 140.104V139.936C19.2741 139.996 20.3421 140.08 20.7021 140.08C20.9541 140.08 21.0621 140.032 21.2061 139.9C21.6981 139.468 21.8661 136.684 21.9501 132.832H16.2621C15.9981 133.24 15.7341 133.612 15.4461 133.96L16.3341 134.32H18.2301L18.8781 133.612L20.2101 134.632C20.1261 134.728 19.9701 134.836 19.7301 134.884V139.036C19.7181 139.132 19.0581 139.432 18.5901 139.432H18.3501V138.748H16.2741V139.42C16.2741 139.54 15.6981 139.852 15.1221 139.852H14.9181V134.56C14.3061 135.196 13.6221 135.736 12.8901 136.18L12.7581 136.084C13.8741 134.752 14.9901 132.58 15.5541 130.36L17.5701 131.068C17.5221 131.224 17.3541 131.32 17.0781 131.308C16.8861 131.728 16.6821 132.124 16.4661 132.496H21.8181L22.5981 131.68ZM15.4581 147.756L16.0221 147.96C15.9861 148.068 15.8781 148.152 15.6501 148.188V155.256C15.6261 155.364 15.0501 155.664 14.4861 155.664H14.2221V149.448C13.7901 149.928 13.3341 150.36 12.8541 150.732L12.6981 150.648C13.7061 149.136 14.7141 146.76 15.2181 144.408L17.1621 145.008C17.1021 145.152 16.9461 145.26 16.6941 145.248C16.3341 146.16 15.9261 147 15.4581 147.756ZM23.7861 148.956H20.5101V154.716H21.6381L22.4541 153.648C22.4541 153.648 23.3661 154.368 23.9181 154.86C23.8821 154.992 23.7501 155.052 23.5821 155.052H16.4301L16.3341 154.716H19.0101V148.956H16.0941L15.9981 148.62H19.0101V144.588L20.9421 144.768C20.9181 144.948 20.8221 145.068 20.5101 145.128V148.62H21.8901L22.6941 147.576C22.6941 147.576 23.5821 148.284 24.1341 148.764C24.0981 148.896 23.9661 148.956 23.7861 148.956ZM21.6261 168.704L22.5021 167.588C22.5021 167.588 23.4741 168.344 24.0741 168.848C24.0381 168.98 23.9061 169.04 23.7261 169.04H12.8901L12.7941 168.704H17.2581V158.588L19.2501 158.78C19.2141 158.948 19.1301 159.068 18.8061 159.116V163.136H20.7741L21.6381 162.032C21.6381 162.032 22.5981 162.764 23.1741 163.28C23.1381 163.412 23.0181 163.472 22.8501 163.472H18.8061V168.704H21.6261ZM21.4941 173.32L21.6261 173.164C22.2261 173.392 22.7061 173.632 23.0301 174.028C23.2461 174.28 23.3061 174.436 23.2941 174.664C23.2941 174.892 23.1381 175.06 22.8981 175.048C22.6941 175.048 22.5741 174.868 22.4181 174.592C22.2261 174.268 21.9981 173.812 21.4941 173.32ZM16.2261 177.88L16.4781 177.988C16.2381 178.756 15.9741 179.704 15.8541 180.244C15.8061 180.508 15.7581 180.712 15.7581 181.048C15.7581 181.492 15.9741 181.9 15.9741 182.344C15.9741 182.74 15.7461 182.968 15.3261 182.968C14.9901 182.968 14.6781 182.704 14.4141 182.248C14.1021 181.696 13.7541 180.796 13.7541 179.464C13.7541 177.784 14.4621 176.296 14.4621 175C14.4621 174.436 14.1501 173.932 13.8261 173.572L13.9341 173.44C14.3541 173.536 14.6181 173.644 14.9061 173.824C15.2781 174.064 15.9501 174.748 15.9501 175.408C15.9501 175.756 15.7821 176.044 15.5301 176.476C15.0741 177.304 14.6661 178.252 14.6661 179.2C14.6661 179.56 14.7261 179.908 14.8461 180.112C14.9301 180.28 15.0501 180.292 15.1581 180.136C15.4581 179.68 15.9261 178.624 16.2261 177.88ZM19.0701 174.028L19.0461 173.848C19.4061 173.608 19.8621 173.404 20.1861 173.404C20.7621 173.404 21.6861 173.812 21.6861 174.244C21.6861 174.448 21.5421 174.64 21.5181 175.06C21.5061 175.276 21.5061 175.552 21.5061 175.84C21.6741 175.792 21.8181 175.732 21.9501 175.672C22.3581 175.492 22.4661 175.408 22.5381 175.408C23.0061 175.408 23.4861 175.672 23.4861 176.056C23.4861 176.308 23.3661 176.512 22.9701 176.692C22.6701 176.836 22.1541 176.992 21.5541 177.136C21.6261 178.42 21.7341 180.112 21.3501 181.12C20.7981 182.632 19.5141 183.256 17.8581 183.676L17.7621 183.484C18.9981 182.812 19.8021 182.008 20.1621 180.496C20.4021 179.608 20.3781 178.444 20.3301 177.364C19.9461 177.412 19.5621 177.448 19.2141 177.448C18.4701 177.448 17.5581 177.256 17.0061 175.864L17.1261 175.744C17.7981 176.152 18.3381 176.344 18.9501 176.344C19.3341 176.344 19.8021 176.284 20.2821 176.176C20.2461 175.66 20.2101 175.144 20.1741 174.808C20.1381 174.532 20.0661 174.424 19.9101 174.34C19.6701 174.184 19.3941 174.112 19.0701 174.028ZM22.3941 172.624L22.5141 172.468C23.1501 172.66 23.5941 172.84 23.9181 173.14C24.1821 173.38 24.2541 173.572 24.2541 173.836C24.2541 174.052 24.1221 174.232 23.8701 174.232C23.6661 174.232 23.5341 174.028 23.3421 173.752C23.1741 173.476 22.9461 173.104 22.3941 172.624Z" fill="white"/>
<path d="M42.3021 20.0361C42.1341 22.9041 40.4061 24.5961 37.4301 25.4361L37.3101 25.2201C39.5781 23.9841 40.7781 22.4121 40.9581 20.0361C41.0421 19.1481 41.0301 17.5041 40.9941 16.8201C40.9701 16.5321 40.9461 16.4121 40.7181 16.2801C40.5381 16.1601 40.2741 16.0761 39.9981 16.0041L39.9861 15.8121C40.3101 15.5601 40.8141 15.2841 41.1261 15.2841C41.6421 15.2841 42.7101 15.8841 42.7101 16.2561C42.7101 16.5681 42.4701 16.7001 42.4461 17.0601C42.4101 17.7561 42.3501 19.3041 42.3021 20.0361ZM36.6621 16.5801C36.4821 16.4721 36.2301 16.3641 35.9661 16.2681V16.0761C36.2541 15.9321 36.6141 15.7881 36.9261 15.7881C37.4661 15.7881 38.5821 16.4001 38.5821 16.8441C38.5821 17.1561 38.3181 17.3361 38.2941 17.8281C38.2581 18.3561 38.2701 20.4441 38.2701 21.2721C38.2701 21.9081 38.0181 22.1721 37.6101 22.1721C37.2021 22.1721 36.8061 21.5721 36.8061 20.8521C36.8061 20.5521 36.9861 20.2041 36.9861 19.3881C36.9981 18.8001 36.9861 17.5161 36.9261 17.0361C36.8901 16.7961 36.8301 16.6881 36.6621 16.5801ZM35.5101 33.0041C35.4141 32.7281 35.3901 32.5001 35.4141 32.2121L35.5821 32.1281C35.9301 32.5001 36.1701 32.7161 36.6381 32.7161C37.3581 32.7161 40.3701 32.3441 41.2941 32.1761C41.7381 32.0921 41.9061 31.8401 42.1821 31.8401C42.6861 31.8401 43.7181 32.6681 43.7181 33.1601C43.7181 33.4841 43.1661 33.6641 42.9021 34.1561C41.7741 36.2561 39.7821 38.2961 36.2181 39.3281L36.0861 39.0881C39.0501 37.5401 40.8861 35.1881 41.5461 33.2561C41.6061 33.1001 41.5461 33.0521 41.4141 33.0521C40.7781 33.0881 38.3421 33.5561 37.5861 33.7841C37.2381 33.8921 37.0101 34.1201 36.7341 34.1201C36.2301 34.1201 35.6181 33.3761 35.5101 33.0041ZM42.3021 30.0281C42.3021 30.2681 42.1701 30.4361 41.7861 30.5201C40.8261 30.7481 39.0621 31.0601 38.0421 31.0601C37.2741 31.0601 36.8781 30.6041 36.4461 29.7161L36.5661 29.6201C37.0701 29.9321 37.5021 29.9681 37.8981 29.9681C38.7981 29.9681 39.5061 29.7521 40.0101 29.6201C40.6101 29.4521 40.7781 29.2841 40.9581 29.2841C41.7741 29.2841 42.3021 29.5361 42.3021 30.0281ZM37.5741 43.3321L37.5981 43.1761C37.8261 43.1161 38.0541 43.0681 38.4381 43.0921C39.2541 43.1161 40.1901 43.6321 40.1901 43.9441C40.1901 44.1961 40.0221 44.2441 39.8301 44.5681C39.6981 44.7961 39.5421 45.0121 39.3861 45.2401C39.8061 45.2401 41.1741 45.0361 41.4861 44.9281C41.7981 44.8201 42.0141 44.5321 42.2781 44.5321C42.6381 44.5321 43.8741 45.1801 43.8741 45.6721C43.8741 46.0201 43.4061 46.1401 43.1901 46.5001C41.4141 49.5601 38.9421 51.9961 35.0061 53.3641L34.8621 53.1361C37.9101 51.4921 40.6941 48.4681 41.6901 45.9481C41.7621 45.7801 41.7021 45.7201 41.5581 45.7201C41.2941 45.7201 40.4541 45.9121 40.1061 46.0201C39.8541 46.1041 39.6621 46.1881 39.4341 46.1881C39.2901 46.1881 39.0981 46.0561 38.8821 45.8881C37.8381 47.1721 36.4341 48.3601 34.8861 49.0201L34.7301 48.8041C36.6621 47.1961 38.2341 44.8321 38.2341 44.0521C38.2341 43.8241 37.9581 43.5481 37.5741 43.3321ZM37.7421 58.9881C37.2741 58.5561 36.8421 58.2201 36.4581 57.9801L36.5301 57.7761C36.9261 57.7881 37.4901 57.8241 38.2341 57.9801C39.0621 58.1961 39.7821 58.6041 39.7821 59.3721C39.7821 59.7081 39.5181 60.0201 39.1821 60.0201C38.5941 60.0201 38.3781 59.5641 37.7421 58.9881ZM36.5781 65.2641C37.9821 65.2641 42.5181 62.1321 44.5581 59.6841L44.7621 59.8161C43.5741 62.2521 40.8621 64.7241 38.2341 66.2721C37.8381 66.5121 37.6821 66.9081 37.2621 66.9081C36.7461 66.9081 35.9421 66.3561 35.5821 65.8161C35.3901 65.5041 35.2941 64.9401 35.2941 64.6041L35.4501 64.5321C35.7021 64.7961 36.1101 65.2641 36.5781 65.2641ZM36.2901 61.6041C35.7501 61.0761 35.2941 60.7161 34.9341 60.5001L35.0061 60.2961C35.4981 60.3321 35.9781 60.3801 36.6141 60.5361C37.4781 60.7401 38.3181 61.2201 38.3181 61.9641C38.3181 62.2521 38.1741 62.6361 37.6701 62.6361C37.0941 62.6361 36.8541 62.1081 36.2901 61.6041ZM37.7181 71.7641V71.6081C37.9821 71.4881 38.4261 71.3321 38.8341 71.3321C39.5421 71.3321 40.5621 71.9921 40.5621 72.4121C40.5621 72.7481 40.3221 73.0001 40.2501 73.4321C40.1781 73.8641 40.1541 74.9081 40.1541 75.7481C40.1541 76.4681 40.2021 79.3481 40.2021 80.0921C40.2021 80.6441 40.0221 81.0041 39.4341 81.0041C38.8101 81.0041 38.5581 80.2121 38.5581 79.5401C38.5581 79.2161 38.6661 78.6881 38.7141 78.1241C38.7741 77.3681 38.7981 76.1561 38.7981 75.4481C38.7981 74.4521 38.7861 73.2761 38.7261 72.6641C38.6781 72.1241 38.2701 71.9561 37.7181 71.7641ZM38.1141 85.8001L38.1021 85.6201C38.3661 85.4521 38.8581 85.1401 39.2181 85.1401C39.9381 85.1401 40.8621 85.6801 40.8621 86.0641C40.8621 86.3761 40.6221 86.4121 40.5741 86.8921C40.5381 87.3121 40.5261 87.7921 40.5021 88.2481C42.6381 87.9601 42.7701 87.7801 43.0221 87.7801C43.5021 87.7801 44.6181 88.2241 44.6181 88.7161C44.6181 89.1361 44.3421 89.2681 44.0181 89.2681C43.5141 89.2681 42.2901 89.1121 40.4301 89.2201C40.1781 92.2561 38.8341 94.2241 35.8701 95.3281L35.7141 95.1121C37.8141 93.7321 38.9181 91.8241 39.0861 89.3521C38.2461 89.4721 37.3341 89.6881 36.8541 89.8201C36.4941 89.9281 36.2181 90.1561 35.8461 90.1681C35.4261 90.1681 34.6461 89.4601 34.4901 89.0401C34.4301 88.8841 34.3941 88.6681 34.3821 88.3561L34.5381 88.2841C34.8381 88.5961 35.0781 88.8241 35.4981 88.8241C35.9781 88.8241 37.7421 88.6081 39.1221 88.4281C39.1341 87.6841 39.1341 86.8201 39.0501 86.3761C39.0021 86.0521 38.5101 85.9081 38.1141 85.8001ZM35.5221 100.232C35.8581 100.568 36.1581 100.868 36.6141 100.868C37.5741 100.868 40.5741 100.544 41.2221 100.4C41.7261 100.292 41.8701 100.04 42.2061 100.04C42.7701 100.04 44.0061 101.108 44.0061 101.54C44.0061 101.948 43.4661 102.188 43.2741 102.572C41.8221 105.5 39.6381 107.768 35.7261 109.016L35.5941 108.776C38.8581 107.06 41.2581 104.06 41.8341 101.432C41.8581 101.324 41.8101 101.288 41.7261 101.288C40.9101 101.288 38.2941 101.828 37.6101 102.032C37.3341 102.116 37.0221 102.392 36.7341 102.392C36.2061 102.392 35.5461 101.6 35.4261 101.144C35.3421 100.844 35.3541 100.616 35.3541 100.304L35.5221 100.232ZM40.8381 114.364V114.268C41.0301 114.16 41.3661 114.016 41.6661 114.016C42.2541 114.016 42.8901 114.484 42.8901 114.7C42.8901 114.892 42.7221 114.964 42.6621 115.252C42.6141 115.516 42.5901 115.768 42.5781 115.984C43.4661 115.864 43.6341 115.684 43.7541 115.684C44.1741 115.684 44.9421 116.164 44.9421 116.476C44.9421 116.716 44.7741 116.884 44.5341 116.884C44.1861 116.884 43.5981 116.776 42.5541 116.812C42.5541 117.52 42.5781 118.6 42.6021 119.248C42.6141 119.572 42.6741 119.98 42.6741 120.412C42.6741 121.06 42.2061 121.612 41.8221 121.612C41.4381 121.612 41.4261 121.228 41.1021 120.916C40.8621 120.676 40.5741 120.508 40.1421 120.292L40.1901 120.172C40.6341 120.22 41.0541 120.268 41.3541 120.268C41.4861 120.268 41.5701 120.196 41.5701 120.052C41.5941 119.8 41.5821 119.068 41.5821 118.18C40.6461 119.308 39.0861 120.436 37.2501 121.012L37.1661 120.868C38.9421 119.776 40.2861 118.312 40.9941 116.968C40.5621 117.052 40.1901 117.136 39.8781 117.22C39.4341 117.34 39.0861 117.508 38.8341 117.508C38.4861 117.508 37.9821 116.932 37.8621 116.632C37.8021 116.452 37.7781 116.308 37.7781 116.044L37.8741 115.996C38.1501 116.236 38.3661 116.392 38.7141 116.392C39.4341 116.392 40.6101 116.212 41.5701 116.104C41.5581 115.78 41.5461 115.336 41.5341 115.06C41.5221 114.868 41.4861 114.76 41.3421 114.652C41.1741 114.532 41.0181 114.448 40.8381 114.364ZM38.4501 128.484L38.4381 128.292C38.8221 128.076 39.0861 128.004 39.4101 128.004C40.0701 128.004 41.0541 128.628 41.0541 129.024C41.0541 129.348 40.7421 129.408 40.6821 129.852C40.5861 130.56 40.5021 133.056 40.5261 133.908C40.5261 134.1 40.6221 134.16 40.7901 134.088C42.1101 133.548 43.7421 132.408 45.1221 131.172L45.3021 131.328C44.2941 132.996 42.6141 134.52 41.1261 135.54C40.8621 135.72 40.6221 136.14 40.2861 136.14C39.8301 136.14 39.1101 135.24 39.1101 134.88C39.1101 134.604 39.2781 134.436 39.3261 133.968C39.3741 133.38 39.4221 130.332 39.3501 129.168C39.3261 128.82 39.0141 128.616 38.4501 128.484ZM36.7101 130.644C36.7101 130.248 36.2661 130.02 35.8581 129.852V129.636C36.1341 129.54 36.4341 129.432 36.7941 129.432C37.3461 129.444 38.4381 130.032 38.4381 130.524C38.4381 130.836 38.1741 131.064 38.1261 131.376C37.7181 133.416 36.3981 135.492 33.8781 136.776L33.7221 136.596C35.5461 134.94 36.7101 132.384 36.7101 130.644ZM40.5741 146.096L40.7181 145.928C42.4941 146.612 44.1381 148.016 44.1381 149.612C44.1381 150.236 43.7301 150.56 43.2981 150.56C42.6381 150.56 42.6861 150.02 42.2781 148.832C40.5741 149.264 37.8141 149.792 36.9501 150.032C36.6861 150.104 36.3261 150.488 36.0741 150.488C35.5101 150.488 34.7541 149.564 34.7181 149.012C34.7181 148.772 34.7421 148.64 34.7781 148.436L34.9461 148.364C35.3181 148.628 35.5701 148.772 35.7981 148.772C35.8941 148.772 36.1701 148.748 36.5541 148.724C37.4181 146.996 38.7381 143.696 38.7381 143.012C38.7381 142.7 38.5821 142.412 38.1741 142.004L38.2461 141.848C38.5101 141.86 38.8461 141.86 39.1941 141.968C39.9261 142.196 40.7061 142.928 40.7061 143.3C40.7061 143.576 40.2861 143.792 40.0581 144.2C39.4701 145.292 38.4261 147.176 37.5261 148.628C38.9301 148.496 40.8621 148.292 42.0021 148.148C41.7141 147.5 41.2941 146.852 40.5741 146.096ZM42.0381 157.972L42.1341 157.768C42.7341 157.804 43.0461 157.864 43.3461 158.032C43.7661 158.272 44.2941 158.872 44.2941 159.34C44.2941 159.7 43.9341 159.688 43.3341 159.856C42.5181 160.084 41.3181 160.492 40.3341 160.888C40.3941 161.548 40.4061 162.232 40.4061 162.664C40.4061 163.084 40.1781 163.396 39.7581 163.396C39.3981 163.396 39.0861 163.192 39.0861 162.712C39.0861 162.4 39.1221 161.956 39.1461 161.452C38.1381 161.992 37.3341 162.664 37.3341 163.3C37.3341 163.78 37.7901 164.14 38.9541 164.14C40.7421 164.14 41.4501 163.732 41.9181 163.732C42.5061 163.732 43.0461 163.876 43.0461 164.392C43.0461 164.74 42.9021 164.932 42.4701 165.076C41.9061 165.244 40.7661 165.388 39.7581 165.388C37.4061 165.388 36.6621 164.548 36.6621 163.492C36.6621 162.46 37.9461 161.416 39.1581 160.648C39.1461 159.688 39.0141 159.352 38.4501 159.352C37.8381 159.352 37.0941 160.204 36.6861 160.732C36.2421 161.272 35.8701 162.028 35.4141 162.052C34.9941 162.064 34.8141 161.704 34.8021 161.212C34.7901 160.804 35.1981 160.564 35.6661 160.084C36.3141 159.436 36.8541 158.68 37.2501 157.984C36.9261 158.02 36.6141 158.032 36.2901 158.032C35.3421 158.032 35.1021 157.408 34.7781 156.46L34.9461 156.364C35.3661 156.7 35.7861 157.036 36.6141 157.012C36.9741 157 37.3941 156.94 37.8141 156.868C37.9581 156.52 38.0541 156.232 38.0901 156.064C38.1501 155.872 38.1381 155.716 37.9341 155.584C37.7541 155.464 37.5141 155.368 37.2021 155.26L37.2141 155.092C37.4901 154.972 37.8621 154.84 38.1021 154.84C38.6061 154.84 39.5901 155.008 39.5901 155.428C39.5901 155.596 39.4941 155.692 39.3741 155.92L39.0381 156.568C39.4461 156.448 39.8061 156.328 40.0581 156.22C40.4541 156.052 40.5741 155.896 40.7301 155.896C41.1741 155.896 41.5341 156.028 41.5341 156.46C41.5341 156.628 41.4381 156.82 41.1141 156.988C40.7181 157.192 39.6501 157.588 38.3661 157.828C38.1381 158.212 37.8501 158.692 37.4421 159.256C37.3821 159.34 37.4301 159.388 37.5261 159.328C37.9461 159.052 38.3421 158.86 38.8221 158.86C39.5541 158.86 40.0341 159.304 40.2141 160.048C41.0421 159.616 42.0141 159.16 42.5421 158.848C42.7581 158.728 42.7821 158.596 42.6261 158.404C42.5061 158.26 42.2541 158.092 42.0381 157.972Z" fill="white"/>
<path d="M7.93412 191.706L8.63412 192.21C9.11012 192.56 9.23612 192.896 9.23612 193.274C9.23612 193.848 8.77412 194.24 8.27012 194.24C7.90612 194.24 7.64012 194.086 7.41612 193.932C7.20612 193.554 7.09412 193.134 7.09412 192.7C7.09412 191.412 8.03212 190.25 9.34812 189.676L9.53012 190.012C8.73212 190.488 8.24212 190.95 7.93412 191.706ZM4.84012 191.706L5.54012 192.21C6.01612 192.56 6.14212 192.896 6.14212 193.274C6.14212 193.848 5.68012 194.24 5.16212 194.24C4.81212 194.24 4.54612 194.086 4.32212 193.932C4.09812 193.554 4.00012 193.134 4.00012 192.7C4.00012 191.412 4.93812 190.25 6.25412 189.676L6.43612 190.012C5.63812 190.488 5.14812 190.95 4.84012 191.706Z" fill="white"/>
</g>
<defs>
<filter id="filter0_d_4202_9845" x="0" y="0" width="58.9221" height="198.24" filterUnits="userSpaceOnUse" color-interpolation-filters="sRGB">
<feFlood flood-opacity="0" result="BackgroundImageFix"/>
<feColorMatrix in="SourceAlpha" type="matrix" values="0 0 0 0 0 0 0 0 0 0 0 0 0 0 0 0 0 0 127 0" result="hardAlpha"/>
<feOffset/>
<feGaussianBlur stdDeviation="2"/>
<feComposite in2="hardAlpha" operator="out"/>
<feColorMatrix type="matrix" values="0 0 0 0 0 0 0 0 0 0 0 0 0 0 0 0 0 0 0.5 0"/>
<feBlend mode="normal" in2="BackgroundImageFix" result="effect1_dropShadow_4202_9845"/>
<feBlend mode="normal" in="SourceGraphic" in2="effect1_dropShadow_4202_9845" result="shape"/>
</filter>
</defs>
</svg>
