<svg preserveAspectRatio="none" width="100%" height="100%" overflow="visible" style="display: block;" viewBox="0 0 103.405 49.8011" fill="none" xmlns="http://www.w3.org/2000/svg">
<g id="Group">
<path id="Vector" d="M63.3146 7.1021L59.1133 21.5615L60.3916 21.9257L64.5929 7.46628L63.3146 7.1021Z" fill="var(--fill-0, white)"/>
<path id="Vector_2" d="M80.3358 20.2721H76.1851V7.5166H74.8574V21.5136H80.3358V20.2721Z" fill="var(--fill-0, white)"/>
<path id="Vector_3" d="M5.09614 21.8618H5.27641C5.84165 21.8704 6.40261 21.7635 6.92408 21.5474C7.44556 21.3312 7.91628 21.0106 8.30675 20.6059C8.71656 20.1891 9.0378 19.6952 9.2514 19.1534C9.465 18.6115 9.56664 18.0329 9.55032 17.4514V7.51561H8.22109V17.4706C8.23811 17.8866 8.16973 18.3015 8.02008 18.6905C7.87043 19.0796 7.64264 19.4346 7.35046 19.734C6.77237 20.2993 5.99219 20.6157 5.17975 20.614C4.36731 20.6123 3.58842 20.2928 3.01269 19.7252C2.7196 19.4277 2.49057 19.0745 2.33947 18.6867C2.18837 18.299 2.11833 17.8847 2.13363 17.4694V7.51465H0.804397V17.4866C0.788217 18.0643 0.890262 18.6392 1.1044 19.1768C1.31854 19.7144 1.64033 20.2035 2.05041 20.6147C2.44473 21.018 2.9186 21.3368 3.44254 21.5512C3.96649 21.7655 4.52933 21.8709 5.09614 21.8608" fill="var(--fill-0, white)"/>
<path id="Vector_4" d="M45.3118 16.4956H48.6661V15.2515H45.3114V8.75844H49.4585V7.51572H43.9806V21.5118H45.3118V16.4956Z" fill="var(--fill-0, white)"/>
<path id="Vector_5" d="M31.0095 18.5782L21.1953 6.63965V21.5116H22.5255V10.4344L32.3397 22.3861V7.51506H31.0095V18.5782Z" fill="var(--fill-0, white)"/>
<path id="Vector_6" d="M2.05039 20.6152C2.44471 21.0185 2.91858 21.3373 3.44252 21.5516C3.96647 21.766 4.52931 21.8713 5.09612 21.8613H5.27639C5.84167 21.8699 6.40267 21.7628 6.92415 21.5466C7.44564 21.3304 7.91634 21.0098 8.30673 20.6049C8.71653 20.1882 9.03775 19.6944 9.25135 19.1526C9.46495 18.6109 9.56661 18.0323 9.5503 17.4509V7.51463H8.22107V17.4693C8.23815 17.8853 8.1698 18.3005 8.02015 18.6896C7.8705 19.0786 7.64267 19.4337 7.35044 19.7331C6.77248 20.2986 5.99224 20.6149 5.17973 20.6133C4.36721 20.6116 3.58828 20.292 3.01267 19.7242C2.71951 19.4267 2.49041 19.0735 2.3393 18.6857C2.18819 18.298 2.11823 17.8837 2.13361 17.4684V7.51367H0.804377V17.4856C0.7883 18.0634 0.8904 18.6384 1.10453 19.1761C1.31866 19.7138 1.64039 20.2029 2.05039 20.6142" fill="var(--fill-0, white)"/>
<path id="Vector_7" d="M22.5255 10.4358L32.3401 22.3875V7.5165H31.0095V18.5782L21.1953 6.63965V21.5116H22.5255V10.4358Z" fill="var(--fill-0, white)"/>
<path id="Vector_8" d="M63.3146 7.1021L59.1133 21.5615L60.3916 21.9257L64.5929 7.46628L63.3146 7.1021Z" fill="var(--fill-0, white)"/>
<path id="Vector_9" d="M80.3358 20.2721H76.1851V7.5166H74.8574V21.5136H80.3358V20.2721Z" fill="var(--fill-0, white)"/>
<path id="Vector_10" d="M95.9536 20.4586C94.7663 20.4586 93.6056 20.1099 92.6184 19.4567C91.6312 18.8036 90.8617 17.8753 90.4073 16.7891C89.953 15.7029 89.8341 14.5076 90.0657 13.3545C90.2973 12.2014 90.8691 11.1422 91.7087 10.3109C92.5483 9.47953 93.6179 8.91321 94.7825 8.68384C95.947 8.45447 97.1541 8.57225 98.251 9.02218C99.348 9.4721 100.286 10.2341 100.945 11.2117C101.605 12.1892 101.957 13.3384 101.957 14.5141C101.955 16.0899 101.321 17.6006 100.196 18.7149C99.0707 19.8292 97.5451 20.4562 95.9536 20.4586ZM95.9536 7.25195C94.5032 7.25127 93.0851 7.67668 91.8788 8.47408C90.6725 9.27149 89.732 10.4053 89.1765 11.732C88.6209 13.0587 88.4751 14.5186 88.7576 15.9273C89.0401 17.336 89.7381 18.63 90.7634 19.6459C91.7887 20.6618 93.0952 21.3539 94.5177 21.6345C95.9402 21.9151 97.4147 21.7715 98.7549 21.2222C100.095 20.6728 101.241 19.7423 102.047 18.5483C102.853 17.3542 103.283 15.9503 103.283 14.5141C103.283 12.5888 102.511 10.7422 101.137 9.38039C99.7625 8.01855 97.898 7.25286 95.9536 7.25195Z" fill="var(--fill-0, white)"/>
<path id="Vector_11" d="M45.3118 16.4956H48.6661V15.2515H45.3114V8.75844H49.4585V7.51572H43.9806V21.5118H45.3118V16.4956Z" fill="var(--fill-0, white)"/>
<path id="Vector_12" d="M9.07106 30.3003C8.85853 31.7721 8.17031 33.1362 7.10942 34.1882L6.85536 34.4305L7.73046 35.4951L7.80373 35.4314C9.37265 33.8372 10.2081 31.695 10.4285 28.6963H1.02344V30.2098H9.0869L9.07106 30.3003Z" fill="var(--fill-0, white)"/>
<path id="Vector_13" d="M1.6463 41.6473L1.3125 41.95L2.24503 43.0838L2.69967 42.6889C3.78143 41.6044 4.59856 40.2894 5.08869 38.8444C5.80134 36.6754 5.88108 34.4245 5.89693 32.1162H4.64C4.64 33.9306 4.64002 36.1865 3.99176 38.1083C3.53526 39.4701 2.72722 40.6901 1.64778 41.6473" fill="var(--fill-0, white)"/>
<path id="Vector_14" d="M22.5417 29.1987L21.7949 30.3574L25.8107 32.8952L26.5575 31.7364L22.5417 29.1987Z" fill="var(--fill-0, white)"/>
<path id="Vector_15" d="M22.8086 41.3537L23.1028 43.0854C25.3238 42.6907 27.3146 41.4853 28.6816 39.7075L28.6895 39.6944C30.4759 37.2949 31.2494 34.3662 31.8843 31.5671L30.7894 30.9424C30.3674 33.027 29.6196 36.0057 28.0086 38.2728C26.7017 40.1171 25.1932 41.0114 22.8086 41.3537Z" fill="var(--fill-0, white)"/>
<path id="Vector_16" d="M48.9824 30.6225C48.7507 34.0738 48.2396 37.5697 46.1066 39.7612C45.3901 40.5055 44.52 41.0882 43.5556 41.4694L43.0307 41.7072L44.035 42.9822L44.976 42.4961C46.9539 41.3192 48.3243 39.4706 49.1617 36.8534C49.9907 34.2622 50.17 31.2722 50.2334 28.9521H41.9609V30.5368H48.9879L48.9824 30.6225Z" fill="var(--fill-0, white)"/>
<path id="Vector_17" d="M58.877 38.9324C60.0095 38.2745 61.0749 37.5097 62.0584 36.6483L62.1912 36.5301V42.8756H63.3119V35.3836L63.3317 35.3611C64.0811 34.5298 64.7768 33.6526 65.4147 32.7346L65.7826 32.1461L64.9467 31.1279L64.495 31.847L64.4148 31.977C64.3608 32.0648 64.3068 32.1524 64.2499 32.2378L64.18 32.3496L64.1751 32.3462C62.731 34.5213 60.7759 36.3173 58.4774 37.5805L57.8633 37.9203L58.7468 38.9952L58.877 38.9324Z" fill="var(--fill-0, white)"/>
<path id="Vector_18" d="M82.7806 34.9246H73.631V36.355H82.7806V34.9246Z" fill="var(--fill-0, white)"/>
<path id="Vector_19" d="M93.5189 30.9714H99.5608V40.5526H93.5189V30.9714ZM99.5608 43.0747H100.697V29.5254H92.3828V43.0747H93.5189V42.0055H99.5608V43.0747Z" fill="var(--fill-0, white)"/>
<path id="Vector_20" d="M103.405 49.4637H2.83832e-09V49.8011H103.405V49.4637Z" fill="var(--fill-0, white)"/>
<path id="Vector_21" d="M103.405 0H0V0.335913H103.405V0Z" fill="var(--fill-0, white)"/>
</g>
</svg>
