<svg width="137" height="46" viewBox="0 0 137 46" fill="none" xmlns="http://www.w3.org/2000/svg">
<rect width="135.243" height="22" transform="translate(0 23.4849) rotate(-10)" fill="#FFD5E0"/>
<path d="M11.9798 34.8071C12.0067 34.9594 12.0402 35.0726 12.0803 35.1468C12.1205 35.2209 12.1823 35.2642 12.2657 35.2766C12.3491 35.2889 12.4722 35.2808 12.635 35.2521C12.6508 35.2493 12.6614 35.2636 12.667 35.2952C12.6726 35.3267 12.6675 35.3438 12.6517 35.3466C12.5151 35.3707 12.3624 35.3949 12.1934 35.4193C12.0244 35.4437 11.8401 35.4735 11.6405 35.5087C11.4514 35.542 11.2707 35.5766 11.0983 35.6124C10.9259 35.6482 10.7714 35.6781 10.6348 35.7022C10.6243 35.7041 10.6163 35.6892 10.6107 35.6577C10.6052 35.6262 10.6076 35.6095 10.6181 35.6077C10.781 35.579 10.8995 35.5445 10.9736 35.5044C11.053 35.4633 11.0989 35.4011 11.1113 35.3176C11.1289 35.2333 11.1243 35.115 11.0974 34.9627L10.4542 31.3149C10.4274 31.1626 10.3917 31.0525 10.3472 30.9845C10.3071 30.9103 10.2427 30.8675 10.154 30.8561C10.0697 30.8385 9.94607 30.844 9.78325 30.8727C9.77274 30.8746 9.76471 30.8597 9.75916 30.8282C9.7536 30.7967 9.75607 30.78 9.76658 30.7782C9.90314 30.7541 10.059 30.732 10.2342 30.712C10.4084 30.6867 10.5901 30.6573 10.7792 30.624C10.9788 30.5888 11.1621 30.5538 11.3293 30.5189C11.5008 30.4778 11.6522 30.4457 11.7835 30.4226C11.7992 30.4198 11.8099 30.4341 11.8154 30.4657C11.821 30.4972 11.8159 30.5143 11.8001 30.5171C11.6426 30.5449 11.5245 30.5819 11.4461 30.6283C11.3728 30.6737 11.33 30.7381 11.3177 30.8215C11.3053 30.9049 11.3125 31.0228 11.3394 31.1751L11.9798 34.8071ZM14.4631 35.1247C14.337 35.1469 14.2046 35.1486 14.0659 35.1297C13.9324 35.1099 13.8118 35.0554 13.704 34.9661C13.6014 34.8759 13.5335 34.7362 13.5001 34.5471L13.1917 32.7981C13.1723 32.6878 13.1439 32.6035 13.1065 32.5451C13.0691 32.4867 13.0192 32.4494 12.9568 32.4333C12.8944 32.4173 12.8133 32.418 12.7135 32.4356C12.6925 32.4393 12.6779 32.4176 12.6695 32.3703C12.6612 32.323 12.6675 32.2975 12.6885 32.2938C12.9545 32.2361 13.1623 32.1399 13.3119 32.0052C13.4605 31.8653 13.5583 31.6828 13.6053 31.4579C13.6121 31.4351 13.6313 31.4209 13.6628 31.4153C13.6995 31.4088 13.7198 31.4161 13.7235 31.4371L14.2028 34.1552C14.2398 34.3652 14.3187 34.5057 14.4395 34.5764C14.5655 34.6463 14.7074 34.6673 14.8649 34.6395C14.9857 34.6182 15.0945 34.5747 15.1912 34.5089C15.2922 34.4369 15.3744 34.3656 15.4378 34.2948C15.4507 34.2763 15.4701 34.2783 15.4957 34.3009C15.5257 34.3172 15.5315 34.3352 15.5133 34.3546C15.3532 34.5832 15.1896 34.761 15.0225 34.8879C14.8596 35.0087 14.6732 35.0876 14.4631 35.1247ZM14.887 32.2311C14.6634 32.2218 14.4477 32.2273 14.2401 32.2477C14.0368 32.2619 13.8222 32.2889 13.5964 32.3287L13.5603 32.1239C13.7756 32.0859 13.9843 32.041 14.1864 31.9891C14.3937 31.9363 14.6137 31.8785 14.8463 31.8159C14.8568 31.814 14.871 31.8332 14.8889 31.8733C14.9112 31.9073 14.9265 31.948 14.9348 31.9952C14.9441 32.0477 14.9428 32.1021 14.9311 32.1583C14.9237 32.2084 14.909 32.2326 14.887 32.2311ZM17.5115 34.5872C17.1701 34.6474 16.8661 34.6278 16.5995 34.5286C16.3382 34.4285 16.1241 34.274 15.9573 34.0651C15.7948 33.8501 15.6899 33.6086 15.6427 33.3407C15.5881 33.0309 15.6147 32.7364 15.7225 32.4575C15.8304 32.1785 16.0048 31.9392 16.2458 31.7397C16.4869 31.5401 16.7807 31.4098 17.1273 31.3487C17.4372 31.294 17.6966 31.3214 17.9054 31.4308C18.1195 31.5393 18.2548 31.7537 18.3113 32.0741C18.3233 32.1424 18.3283 32.2011 18.3261 32.2502C18.3239 32.2993 18.3045 32.3271 18.2677 32.3336L17.5114 32.467C17.4691 32.1657 17.3981 31.9319 17.2983 31.7653C17.1976 31.5935 17.0501 31.5248 16.8557 31.559C16.6457 31.5961 16.4966 31.7334 16.4085 31.971C16.3256 32.2076 16.3157 32.5045 16.3787 32.8617C16.4324 33.1663 16.526 33.4206 16.6594 33.6245C16.7929 33.8284 16.9622 33.9746 17.1673 34.063C17.3724 34.1514 17.6089 34.1719 17.8768 34.1247C18.0344 34.0969 18.1624 34.0554 18.261 34.0001C18.3639 33.9386 18.4749 33.8622 18.5942 33.7707C18.6029 33.7584 18.6169 33.7613 18.6364 33.7796C18.6611 33.7969 18.6696 33.8143 18.6619 33.8319C18.5018 34.0605 18.3268 34.2349 18.1367 34.3551C17.951 34.469 17.7426 34.5464 17.5115 34.5872ZM16.071 32.7291L16.0367 32.5808L17.7566 32.245L17.7871 32.4184L16.071 32.7291ZM23.3326 33.4633C23.3168 33.466 23.3061 33.4517 23.3006 33.4202C23.295 33.3887 23.3001 33.3715 23.3159 33.3687C23.4787 33.34 23.5825 33.2838 23.6273 33.2001C23.6765 33.1102 23.6825 32.9602 23.6455 32.7501L23.4454 31.6156C23.3473 31.0589 23.1012 30.8152 22.7073 30.8847C22.5445 30.9134 22.3938 30.9806 22.2554 31.0862C22.117 31.1918 22.0126 31.3213 21.9421 31.4745L21.886 31.3869C22.0183 31.0928 22.1808 30.8475 22.3737 30.6511C22.5708 30.4484 22.8007 30.3239 23.0633 30.2776C23.3417 30.2285 23.5714 30.272 23.7524 30.408C23.9325 30.5387 24.0522 30.7721 24.1114 31.1082L24.3782 32.6209C24.4152 32.831 24.4696 32.9703 24.5412 33.0389C24.6172 33.1014 24.7366 33.1182 24.8995 33.0895C24.9205 33.0858 24.9338 33.0997 24.9393 33.1312C24.9449 33.1627 24.9371 33.1803 24.9161 33.184C24.8111 33.2026 24.6898 33.2212 24.5523 33.2401C24.4148 33.2589 24.2699 33.2817 24.1176 33.3086C23.9706 33.3345 23.8292 33.3622 23.6936 33.3915C23.5579 33.4208 23.4376 33.4447 23.3326 33.4633ZM21.2684 33.8272C21.2526 33.83 21.242 33.8156 21.2364 33.7841C21.2309 33.7526 21.236 33.7355 21.2517 33.7327C21.4146 33.704 21.5184 33.6478 21.5632 33.5641C21.6123 33.4742 21.6184 33.3242 21.5813 33.1141L21.3813 31.9796C21.2831 31.4228 21.0371 31.1792 20.6431 31.2486C20.4803 31.2773 20.3297 31.3445 20.1913 31.4502C20.0528 31.5558 19.9484 31.6852 19.8779 31.8385L19.8219 31.7509C19.9541 31.4568 20.1167 31.2115 20.3095 31.015C20.5066 30.8124 20.7365 30.6879 20.9991 30.6416C21.2775 30.5925 21.5063 30.6307 21.6855 30.7562C21.8646 30.8816 21.9801 31.0914 22.032 31.3855L22.314 32.9849C22.3511 33.195 22.4054 33.3343 22.4771 33.4029C22.5531 33.4653 22.6725 33.4822 22.8353 33.4535C22.8563 33.4498 22.8696 33.4637 22.8752 33.4952C22.8807 33.5267 22.873 33.5443 22.852 33.548C22.7469 33.5665 22.6257 33.5852 22.4882 33.604C22.3507 33.6229 22.2058 33.6457 22.0535 33.6726C21.9064 33.6985 21.7651 33.7261 21.6294 33.7555C21.4938 33.7848 21.3734 33.8087 21.2684 33.8272ZM19.2436 34.1843C19.2279 34.187 19.2172 34.1727 19.2117 34.1412C19.2061 34.1096 19.2112 34.0925 19.227 34.0897C19.3898 34.061 19.4936 34.0048 19.5384 33.9211C19.5823 33.8321 19.5857 33.6826 19.5487 33.4725L19.2875 31.9913C19.2588 31.8285 19.2196 31.7136 19.1698 31.6465C19.1192 31.5742 19.0492 31.5459 18.9599 31.5617C18.9127 31.57 18.8594 31.5902 18.8 31.6224C18.7398 31.6492 18.6735 31.688 18.6012 31.7387C18.582 31.7529 18.5644 31.7451 18.5484 31.7155C18.5323 31.6858 18.5291 31.6674 18.5387 31.6603L19.5393 30.9315C19.569 30.9154 19.5864 30.9069 19.5917 30.906C19.6494 30.8958 19.7183 30.9487 19.7983 31.0645C19.8783 31.1804 19.9392 31.3565 19.9808 31.5929L20.2892 33.3419C20.3263 33.552 20.3806 33.6913 20.4523 33.7599C20.5283 33.8223 20.6477 33.8392 20.8105 33.8105C20.8263 33.8077 20.837 33.8221 20.8425 33.8536C20.8481 33.8851 20.843 33.9023 20.8272 33.905C20.7222 33.9236 20.6009 33.9422 20.4634 33.9611C20.3259 33.9799 20.181 34.0027 20.0287 34.0296C19.8816 34.0555 19.7403 34.0831 19.6047 34.1125C19.469 34.1418 19.3487 34.1657 19.2436 34.1843Z" fill="#222222"/>
<line x1="26.9531" y1="29.9583" x2="23.5116" y2="34.8732" stroke="#222222" stroke-width="0.5"/>
<path d="M31.4474 25.4946C31.5833 25.3826 31.7374 25.2776 31.9097 25.1796C32.0808 25.0749 32.2189 25.0133 32.3239 24.9948C32.429 24.9763 32.55 24.9719 32.6871 24.9815C32.8242 24.9912 32.9598 25.0113 33.0938 25.0418C33.2343 25.0712 33.3537 25.1145 33.4518 25.1717C33.5487 25.2223 33.6095 25.2792 33.6342 25.3426C33.6612 25.419 33.6707 25.4918 33.6626 25.561C33.6533 25.6235 33.6452 25.6927 33.6382 25.7683C33.6301 25.8375 33.6407 25.9168 33.67 26.0064C33.7144 26.1814 33.7748 26.3704 33.8513 26.5736C33.9277 26.7767 34.0271 27.0334 34.1495 27.3435C34.3514 27.8359 34.5354 28.2841 34.7014 28.6881C34.8739 29.0909 35.0258 29.4534 35.1571 29.7755C35.2938 30.0898 35.4136 30.3666 35.5167 30.6056C35.6252 30.837 35.713 31.028 35.7802 31.1786C35.9099 31.4536 36.0134 31.6756 36.0906 31.8448C36.1732 32.0062 36.2313 32.1822 36.2649 32.3726C36.2881 32.5039 36.2684 32.6224 36.2058 32.7282C36.1432 32.834 36.0173 32.907 35.8281 32.9471C35.7099 32.968 35.5934 32.9411 35.4788 32.8666C35.3652 32.7986 35.2602 32.702 35.1637 32.5769C35.0749 32.4572 35.0052 32.3307 34.9546 32.1974C34.9299 32.1341 34.8967 32.0418 34.855 31.9205C34.8187 31.7915 34.7757 31.6434 34.7259 31.4762C34.6827 31.3078 34.6257 31.1384 34.5551 30.9681C34.4775 30.7584 34.3904 30.5335 34.2939 30.2932C34.204 30.0518 34.1107 29.811 34.0142 29.5708C33.9165 29.324 33.8206 29.0871 33.7264 28.86C33.6322 28.6329 33.5448 28.4249 33.4641 28.2361C33.3822 28.0406 33.3127 27.8769 33.2556 27.7448C33.1436 27.4938 33.0373 27.2553 32.9365 27.0293C32.8346 26.7968 32.7412 26.5933 32.6562 26.4187C32.5713 26.2442 32.501 26.1144 32.4454 26.0294C32.3898 25.9445 32.3278 25.8809 32.2595 25.8388C32.1911 25.7967 32.0971 25.7625 31.9774 25.7363C31.8642 25.7088 31.6995 25.6769 31.4833 25.6406L31.4474 25.4946ZM30.3371 27.8939L30.4351 27.8157C30.566 27.8671 30.6749 27.9088 30.7618 27.9408C30.8475 27.9663 30.9494 27.9687 31.0676 27.9478C31.1398 27.9351 31.2617 27.8967 31.4332 27.8326C31.61 27.7608 31.8147 27.6739 32.0472 27.572C32.2797 27.4701 32.5188 27.367 32.7644 27.2628C33.0101 27.1585 33.2327 27.0584 33.4324 26.9622C33.7205 26.8302 33.9611 26.7167 34.1542 26.6217C34.3473 26.5267 34.5213 26.4385 34.6762 26.357C34.8867 26.2455 35.0447 26.1431 35.1501 26.0501C35.2609 25.9493 35.3361 25.8954 35.3755 25.8885C35.4597 25.8669 35.5632 25.8588 35.686 25.8642C35.8076 25.8631 35.9283 25.8756 36.048 25.9019C36.1666 25.9216 36.2677 25.9579 36.3515 26.0109C36.4342 26.0572 36.4819 26.1165 36.4946 26.1887C36.5154 26.3069 36.5011 26.4177 36.4517 26.5212C36.4011 26.6182 36.2835 26.6998 36.0989 26.7662C35.8575 26.8562 35.5883 26.9612 35.2913 27.0812C34.9943 27.2013 34.7104 27.319 34.4397 27.4345C34.1744 27.5422 33.9604 27.6341 33.7978 27.7101C33.5402 27.8232 33.2772 27.9441 33.0088 28.0727C32.7404 28.2012 32.5119 28.3261 32.3234 28.4474C32.1894 28.5319 32.0751 28.613 31.9805 28.6906C31.8847 28.7616 31.7744 28.8082 31.6497 28.8302C31.5643 28.8452 31.4502 28.8315 31.3073 28.789C31.171 28.7453 31.0351 28.6847 30.8995 28.607C30.7694 28.5217 30.6628 28.4355 30.5798 28.3486C30.5199 28.2779 30.4744 28.2115 30.4431 28.1493C30.4107 28.0806 30.3754 27.9954 30.3371 27.8939ZM30.3379 30.4323L30.444 30.3425C30.6069 30.4221 30.7351 30.4773 30.8286 30.5082C30.9275 30.5314 31.0261 30.5343 31.1246 30.517C31.1903 30.5054 31.3055 30.4681 31.4705 30.4052C31.6408 30.3346 31.8455 30.2477 32.0845 30.1446C32.3224 30.035 32.5729 29.9197 32.8359 29.7989C33.1043 29.6703 33.3673 29.5495 33.6249 29.4364C33.8814 29.3167 34.1122 29.2049 34.3172 29.1011C34.53 29.0026 34.7461 28.9036 34.9655 28.804C35.1914 28.7032 35.4108 28.6036 35.6236 28.5052C35.8418 28.399 36.0382 28.3034 36.2128 28.2185C36.3928 28.1258 36.5443 28.045 36.6676 27.9758C36.7776 27.909 36.8593 27.854 36.9126 27.8108C36.9659 27.7675 37.015 27.7386 37.0598 27.7239C37.2567 27.6892 37.4479 27.6792 37.6333 27.6939C37.8186 27.7086 37.9746 27.7487 38.1013 27.8144C38.2268 27.8735 38.2988 27.9556 38.3173 28.0606C38.3347 28.1591 38.3225 28.2628 38.2808 28.3717C38.2391 28.4806 38.1209 28.559 37.9262 28.6069C37.6223 28.6875 37.3386 28.768 37.0752 28.8483C36.8119 28.9286 36.5502 29.0187 36.2903 29.1187C36.0304 29.2187 35.7585 29.3276 35.4746 29.4453C35.1907 29.5631 34.8769 29.703 34.5332 29.8652C34.3073 29.9659 34.0645 30.0866 33.805 30.2271C33.5443 30.3611 33.294 30.4966 33.0542 30.6337C32.8209 30.7696 32.6232 30.8958 32.4609 31.0124C32.3161 31.1124 32.2008 31.2072 32.1151 31.2968C32.0282 31.3798 31.9256 31.4318 31.8075 31.4526C31.6827 31.4746 31.5358 31.4667 31.3666 31.4288C31.2029 31.3832 31.0505 31.3254 30.9096 31.2555C30.7675 31.179 30.6704 31.1082 30.6182 31.0429C30.5584 30.9722 30.5034 30.8905 30.4532 30.7978C30.4084 30.6974 30.37 30.5756 30.3379 30.4323ZM39.976 26.9863C40.0976 27.1002 40.2065 27.1995 40.3027 27.2841C40.4054 27.3675 40.5177 27.429 40.6398 27.4684C40.7606 27.5012 40.9064 27.5026 41.0771 27.4725C41.2544 27.4412 41.4738 27.3992 41.7352 27.3463C42.0021 27.2857 42.2919 27.221 42.6048 27.1523C42.9164 27.0771 43.2281 27.0018 43.5397 26.9266C43.858 26.8501 44.1598 26.7766 44.4452 26.706C44.7306 26.6353 44.9772 26.5749 45.185 26.5248C45.3982 26.4669 45.5573 26.4287 45.6623 26.4101C45.9848 26.3194 46.2553 26.2413 46.4739 26.1756C46.6914 26.1034 46.8592 26.0569 46.9773 26.0361C47.1809 26.0002 47.3705 26.0006 47.5462 26.0373C47.7208 26.0675 47.8671 26.1297 47.9853 26.2239C48.1088 26.3104 48.1834 26.4259 48.2088 26.5704C48.2343 26.7148 48.1976 26.833 48.0987 26.9249C47.9987 27.0102 47.8436 27.0714 47.6335 27.1084C47.4431 27.142 47.2423 27.174 47.0311 27.2045C46.8252 27.2273 46.5483 27.2693 46.2003 27.3307C46.0493 27.3573 45.8503 27.3992 45.6031 27.4563C45.3613 27.5057 45.0945 27.5663 44.8025 27.6381C44.5094 27.7033 44.2168 27.7718 43.9248 27.8436C43.6329 27.9154 43.3639 27.9831 43.1179 28.0468C42.8719 28.1105 42.6751 28.1655 42.5276 28.2118C42.2947 28.2732 42.1172 28.3417 41.9952 28.4174C41.872 28.4865 41.7652 28.5527 41.6748 28.6161C41.5833 28.6728 41.4751 28.7122 41.3504 28.7342C41.2256 28.7562 41.0708 28.7226 40.8858 28.6333C40.7062 28.5364 40.5325 28.4147 40.3645 28.2683C40.1954 28.1154 40.0674 27.9653 39.9805 27.8182C39.9149 27.7146 39.8738 27.5967 39.8572 27.4642C39.8394 27.3252 39.8267 27.1954 39.819 27.0749L39.976 26.9863ZM51.3558 21.314C51.647 21.2762 51.9351 21.2593 52.2201 21.2632C52.5117 21.2659 52.7778 21.2969 53.0184 21.356C53.2644 21.4074 53.4658 21.4937 53.6225 21.615C53.7847 21.7286 53.8832 21.8838 53.9179 22.0808C53.9469 22.2449 53.9127 22.3965 53.8153 22.5355C53.7234 22.6668 53.5855 22.7487 53.4017 22.7811C53.2835 22.8019 53.1837 22.7924 53.1022 22.7526C53.0207 22.7129 52.9385 22.6495 52.8554 22.5626C52.7724 22.4757 52.6657 22.3693 52.5351 22.2434C52.3869 22.0935 52.2069 21.956 51.9953 21.8308C51.7903 21.7045 51.5557 21.5834 51.2915 21.4675L51.3558 21.314ZM49.7015 29.323L49.5584 29.1451C50.023 28.7857 50.4861 28.3791 50.9477 27.9254C51.4158 27.4705 51.8515 27.0044 52.2547 26.5271C52.6646 26.0487 53.017 25.5905 53.3121 25.1526C53.6061 24.7082 53.8139 24.3128 53.9356 23.9664C53.9569 23.8949 53.9625 23.8499 53.9524 23.8314C53.9412 23.8063 53.9034 23.8028 53.8389 23.8209C53.7798 23.8314 53.6902 23.8607 53.5701 23.909C53.4565 23.9561 53.3218 24.0171 53.1657 24.092C53.0151 24.1591 52.8585 24.2308 52.6959 24.3068C52.5321 24.3763 52.3788 24.4473 52.2359 24.5199C52.093 24.5925 51.9785 24.6533 51.8924 24.7023C51.7877 24.7614 51.705 24.8301 51.6444 24.9085C51.5826 24.9804 51.5229 25.045 51.4654 25.1026C51.4078 25.1601 51.3331 25.197 51.2412 25.2132C51.1296 25.2329 50.9985 25.2188 50.8479 25.1708C50.6961 25.1164 50.5507 25.0405 50.4117 24.9431C50.2781 24.8381 50.1729 24.7212 50.096 24.5926C50.0547 24.5119 50.0153 24.4038 49.9779 24.2682C49.947 24.1315 49.9221 23.9903 49.9032 23.8447L50.0324 23.7712C50.1274 23.8492 50.2174 23.918 50.3023 23.9774C50.3939 24.0358 50.4825 24.0777 50.5682 24.1032C50.6605 24.1275 50.7526 24.1316 50.8445 24.1154C50.9561 24.0957 51.1087 24.0587 51.3022 24.0042C51.5022 23.9486 51.7208 23.883 51.958 23.8074C52.1939 23.7251 52.4326 23.639 52.674 23.5491C52.9154 23.4592 53.1376 23.376 53.3408 23.2995C53.5428 23.2165 53.7104 23.1497 53.8436 23.0992C53.9691 23.0432 54.0607 22.9864 54.1182 22.9289C54.1812 22.8636 54.2322 22.8073 54.2712 22.7598C54.309 22.7057 54.3641 22.6723 54.4363 22.6596C54.5282 22.6434 54.6417 22.6538 54.7769 22.6909C54.9186 22.7268 55.0605 22.783 55.2027 22.8595C55.3502 22.9283 55.4753 23.0044 55.578 23.0878C55.6861 23.1635 55.7471 23.2408 55.761 23.3196C55.7761 23.4049 55.7434 23.4885 55.6631 23.5704C55.5882 23.6445 55.5022 23.7138 55.4053 23.7783C55.3149 23.8416 55.2514 23.9036 55.2147 23.9642C54.9841 24.384 54.6853 24.8394 54.3183 25.3306C53.9568 25.8141 53.5383 26.3008 53.0628 26.7908C52.5928 27.2731 52.0748 27.7334 51.509 28.1716C50.9431 28.6099 50.3406 28.9937 49.7015 29.323ZM53.3449 26.7208C53.3137 26.5435 53.2766 26.391 53.2338 26.2631C53.1898 26.1287 53.1465 26.0179 53.1041 25.9306L53.3555 25.5715C53.4752 25.5978 53.6011 25.6399 53.7332 25.6978C53.8641 25.7492 53.9776 25.8172 54.0738 25.9018C54.1688 25.9798 54.2244 26.0648 54.2406 26.1567C54.251 26.2158 54.2605 26.2886 54.2689 26.3751C54.2774 26.4616 54.2905 26.5743 54.3083 26.7134C54.3249 26.8458 54.3484 27.0177 54.3789 27.229C54.4082 27.4336 54.4507 27.6935 54.5062 28.0087C54.5398 28.1991 54.5838 28.391 54.6382 28.5845C54.6926 28.778 54.7291 28.9273 54.7476 29.0323C54.765 29.1308 54.7731 29.2343 54.7719 29.3428C54.7708 29.4513 54.7366 29.5454 54.6694 29.6249C54.6099 29.7099 54.4981 29.7668 54.3339 29.7958C54.2026 29.8189 54.0785 29.7866 53.9615 29.699C53.8445 29.6113 53.7437 29.5004 53.6591 29.3664C53.5757 29.239 53.5236 29.1161 53.5028 28.998C53.4854 28.8995 53.4763 28.8097 53.4756 28.7286C53.4802 28.6398 53.4866 28.5033 53.4947 28.319C53.5029 28.2499 53.5031 28.1551 53.4954 28.0346C53.4877 27.9141 53.4744 27.7811 53.4554 27.6355C53.442 27.4822 53.4246 27.3261 53.4034 27.1674C53.3887 27.0075 53.3692 26.8586 53.3449 26.7208ZM54.6276 25.5299C55.1617 25.4493 55.6576 25.4397 56.1152 25.5012C56.5729 25.5627 56.9517 25.6956 57.2517 25.8999C57.5506 26.0977 57.7313 26.3738 57.7938 26.7283C57.8193 26.8728 57.7888 27.0068 57.7023 27.1304C57.6223 27.2528 57.5035 27.3279 57.346 27.3557C57.2212 27.3776 57.1044 27.3678 56.9955 27.3261C56.892 27.2766 56.7457 27.1569 56.5565 26.9668C56.3275 26.7432 56.1147 26.5539 55.9182 26.3991C55.7216 26.2442 55.5187 26.1107 55.3094 25.9987C55.1055 25.8789 54.8645 25.7793 54.5865 25.6997L54.6276 25.5299ZM61.7237 22.583L61.7932 22.459C61.9601 22.4837 62.1099 22.5081 62.2427 22.5321C62.3822 22.5549 62.5283 22.5968 62.6812 22.6578C62.9353 22.7552 63.1481 22.8869 63.3196 23.053C63.4976 23.2179 63.6097 23.4317 63.656 23.6943C63.685 23.8584 63.6517 23.9963 63.5563 24.1079C63.4663 24.2118 63.359 24.2747 63.2342 24.2967C63.0832 24.3233 62.9674 24.2997 62.8867 24.226C62.8048 24.1456 62.7309 24.0334 62.6649 23.8894C62.6042 23.7376 62.5178 23.5734 62.4054 23.3969C62.3498 23.312 62.2788 23.2162 62.1923 23.1096C62.1123 23.0018 62.0303 22.9012 61.9461 22.8077C61.8673 22.7066 61.7932 22.6316 61.7237 22.583ZM61.563 28.4094L61.4483 28.2773C61.8859 27.9564 62.2886 27.5909 62.6563 27.1809C63.0294 26.7631 63.3591 26.3292 63.6453 25.8794C63.9381 25.4283 64.1828 24.9925 64.3794 24.572C64.5749 24.1449 64.7132 23.7584 64.7944 23.4123C64.8821 23.0652 64.9086 22.7931 64.8738 22.5961C64.8576 22.5042 64.7966 22.427 64.6908 22.3644C64.5904 22.2941 64.4616 22.2356 64.3045 22.1888L64.2935 22.0689C64.3699 22.0419 64.4595 22.0125 64.5623 21.9809C64.6639 21.9427 64.7573 21.916 64.8427 21.901C64.9674 21.879 65.1012 21.8893 65.2441 21.9318C65.3936 21.9731 65.5366 22.0359 65.6733 22.1201C65.8089 22.1977 65.9226 22.286 66.0145 22.3849C66.1064 22.4837 66.161 22.5824 66.1784 22.6809C66.1957 22.7794 66.1639 22.8865 66.0828 23.0024C66.0071 23.1105 65.9528 23.225 65.9199 23.3459C65.7862 23.8162 65.5962 24.2932 65.3497 24.7766C65.1021 25.2535 64.7985 25.72 64.4389 26.1761C64.0781 26.6255 63.6573 27.0416 63.1765 27.4242C62.7022 27.8057 62.1643 28.1341 61.563 28.4094ZM60.1091 23.4464L60.1885 23.3208C60.3476 23.3401 60.4986 23.371 60.6415 23.4135C60.7909 23.4548 60.913 23.4943 61.0076 23.5317C61.3177 23.6395 61.57 23.7846 61.7646 23.9669C61.9593 24.1492 62.078 24.3618 62.1208 24.6047C62.1463 24.7492 62.1217 24.8787 62.0472 24.9934C61.978 25.1004 61.8581 25.1689 61.6874 25.199C61.543 25.2245 61.4265 25.1976 61.3381 25.1184C61.2551 25.0315 61.174 24.9172 61.0949 24.7755C61.0211 24.626 60.9254 24.4669 60.8076 24.2981C60.6918 24.1019 60.5746 23.9364 60.4561 23.8016C60.3441 23.6656 60.2284 23.5473 60.1091 23.4464ZM69.3568 23.2577C69.6322 22.9384 69.885 22.6061 70.1153 22.2609C70.3509 21.9079 70.5597 21.5563 70.7416 21.2061C70.9301 20.8547 71.0887 20.5255 71.2173 20.2185C71.346 19.9115 71.4404 19.641 71.5007 19.4069C71.5598 19.1664 71.5784 18.9837 71.5564 18.8589C71.539 18.7605 71.4686 18.668 71.345 18.5814C71.2214 18.4949 71.0734 18.4229 70.9007 18.3653L70.906 18.2222C70.9944 18.1863 71.0867 18.1531 71.1829 18.1226C71.2845 18.0844 71.4185 18.0574 71.5849 18.0416C71.8027 18.0099 72.0269 18.0144 72.2575 18.055C72.488 18.0956 72.6848 18.1557 72.8477 18.2352C73.0107 18.3148 73.0997 18.3973 73.1147 18.4826C73.1333 18.5877 73.1182 18.675 73.0695 18.7445C73.0263 18.8062 72.973 18.907 72.9096 19.0468C72.7041 19.5705 72.4356 20.1018 72.1042 20.6409C71.7727 21.18 71.389 21.691 70.9529 22.1741C70.5234 22.656 70.0445 23.0688 69.5161 23.4124L69.3568 23.2577ZM70.0903 26.7839C70.6615 26.338 71.1955 25.8343 71.6922 25.2728C72.1955 24.7102 72.6471 24.1229 73.0468 23.5108C73.452 22.891 73.7931 22.2724 74.0701 21.6549C74.3537 21.0363 74.5521 20.453 74.6653 19.905C74.6893 19.7721 74.6389 19.7167 74.5141 19.7387C74.4616 19.748 74.3845 19.7717 74.283 19.8099C74.1868 19.8404 74.0787 19.8798 73.9586 19.9281C73.8384 19.9763 73.7249 20.0234 73.6179 20.0694C73.5109 20.1153 73.4237 20.1578 73.3561 20.1968C73.2568 20.2481 73.1668 20.2944 73.0861 20.3358C73.0119 20.3759 72.9256 20.4047 72.8271 20.422C72.7418 20.4371 72.6286 20.4096 72.4877 20.3397C72.3533 20.2687 72.2073 20.1895 72.0498 20.1022L72.1744 19.7146C72.2818 19.7092 72.3688 19.704 72.4357 19.699C72.5079 19.6863 72.5768 19.6741 72.6425 19.6626C72.7278 19.6475 72.8514 19.619 73.0132 19.5769C73.1739 19.5282 73.3438 19.4746 73.523 19.4159C73.7088 19.3561 73.8781 19.2991 74.0311 19.2451C74.1828 19.1845 74.2892 19.1353 74.3503 19.0974C74.4681 19.036 74.5654 18.9546 74.6423 18.853C74.7257 18.7503 74.8199 18.6897 74.925 18.6711C74.9972 18.6584 75.1075 18.6694 75.2557 18.7042C75.4094 18.7313 75.5705 18.7807 75.7388 18.8526C75.9061 18.9179 76.052 18.9971 76.1768 19.0901C76.3003 19.1767 76.3708 19.2692 76.3882 19.3677C76.4044 19.4596 76.3821 19.5447 76.3215 19.6231C76.2597 19.6949 76.1919 19.7712 76.1181 19.8519C76.0509 19.9314 75.9932 20.0262 75.9449 20.1363C75.6138 21.0612 75.1956 21.9337 74.6904 22.7539C74.1851 23.5741 73.5687 24.3395 72.841 25.0499C72.1187 25.7527 71.2522 26.3861 70.2415 26.9502L70.0903 26.7839ZM84.9659 17.5099C84.8485 17.3817 84.7014 17.2384 84.5245 17.08C84.3465 16.9151 84.1301 16.7434 83.8752 16.565L83.9511 16.4196C84.2431 16.4629 84.5132 16.5168 84.7615 16.5813C85.0098 16.6458 85.2222 16.737 85.3987 16.8548C85.5211 16.9348 85.6101 17.0172 85.6657 17.1022C85.7279 17.186 85.7671 17.2739 85.7833 17.3658C85.8018 17.4708 85.7813 17.5658 85.7218 17.6508C85.6677 17.728 85.5882 17.7759 85.4831 17.7944C85.3978 17.8095 85.3132 17.7905 85.2294 17.7376C85.1522 17.6835 85.0643 17.6076 84.9659 17.5099ZM85.7764 16.4633C85.6703 16.3601 85.5343 16.2419 85.3687 16.1087C85.2096 15.9743 84.9862 15.8207 84.6985 15.6481L84.7744 15.5027C85.0749 15.5174 85.3415 15.5516 85.5744 15.6053C85.8073 15.659 86.0058 15.729 86.1699 15.8151C86.4321 15.9584 86.5829 16.1417 86.6222 16.3649C86.6407 16.47 86.6262 16.5605 86.5787 16.6366C86.5312 16.7127 86.4549 16.76 86.3499 16.7785C86.258 16.7947 86.1695 16.773 86.0846 16.7136C85.9996 16.6541 85.8969 16.5706 85.7764 16.4633ZM79.9 17.4588L79.9296 17.281C80.0949 17.2586 80.2948 17.2403 80.5292 17.226C80.769 17.2041 81.0424 17.1998 81.3494 17.2134C81.5897 17.232 81.8136 17.2737 82.0214 17.3386C82.2292 17.4035 82.4022 17.5016 82.5404 17.633C82.684 17.7566 82.7744 17.9234 82.8114 18.1335C82.8346 18.2648 82.81 18.3944 82.7378 18.5222C82.6644 18.6435 82.5588 18.7162 82.4209 18.7405C82.2633 18.7683 82.1224 18.756 81.998 18.7034C81.8725 18.6443 81.7424 18.5589 81.6076 18.4473C81.4729 18.3357 81.303 18.2167 81.0979 18.0904C80.8763 17.9467 80.6652 17.8248 80.4648 17.7248C80.2632 17.6182 80.075 17.5295 79.9 17.4588ZM86.7628 17.6805L86.9609 17.7674C86.7994 18.3104 86.5684 18.8622 86.2678 19.4229C85.9739 19.9824 85.6278 20.5343 85.2295 21.0784C84.8313 21.6224 84.4016 22.1416 83.9404 22.6359C83.4792 23.1301 83.0105 23.5817 82.5343 23.9906C82.4408 24.0748 82.3616 24.1632 82.2968 24.2559C82.2396 24.354 82.1768 24.4395 82.1085 24.5125C82.0401 24.5855 81.9501 24.6318 81.8385 24.6515C81.7006 24.6758 81.5349 24.6576 81.3415 24.597C81.1492 24.5429 80.9594 24.4646 80.7721 24.3623C80.5902 24.2522 80.4367 24.1303 80.3116 23.9967C80.2108 23.8858 80.1234 23.7354 80.0492 23.5454C79.9751 23.3554 79.9232 23.1953 79.8935 23.0651L80.0192 22.9719C80.0976 23.0325 80.1914 23.104 80.3007 23.1863C80.4165 23.2674 80.5366 23.3342 80.661 23.3867C80.7907 23.4316 80.918 23.443 81.0427 23.421C81.2331 23.3874 81.4743 23.2772 81.7663 23.0903C82.0583 22.9034 82.381 22.6604 82.7344 22.3611C83.0878 22.0619 83.4551 21.7263 83.8363 21.3545C84.2164 20.9761 84.5897 20.5785 84.9562 20.1619C85.3216 19.7387 85.6602 19.3168 85.9719 18.8963C86.2836 18.4758 86.5472 18.0705 86.7628 17.6805ZM79.014 19.7474L79.0418 19.5598C79.2488 19.5436 79.4564 19.5307 79.6646 19.521C79.8781 19.5037 80.1226 19.508 80.3979 19.5339C80.6436 19.5447 80.8807 19.5842 81.1093 19.6522C81.3379 19.7202 81.5318 19.8214 81.6908 19.9558C81.8488 20.0836 81.9457 20.2493 81.9816 20.4529C81.9943 20.5251 81.9918 20.6068 81.974 20.6979C81.9628 20.7879 81.923 20.8693 81.8546 20.9423C81.7928 21.0142 81.693 21.0622 81.5551 21.0865C81.3976 21.1143 81.2554 21.0954 81.1288 21.0297C81.0021 20.964 80.8753 20.8781 80.7482 20.7719C80.62 20.6591 80.465 20.5476 80.2831 20.4376C80.0217 20.2603 79.7863 20.1156 79.577 20.0036C79.3677 19.8915 79.1801 19.8062 79.014 19.7474ZM90.3196 17.2666L90.2924 17.1698C90.4002 17.0899 90.5097 17.0198 90.6209 16.9596C90.731 16.8928 90.8681 16.8449 91.0322 16.816C91.1176 16.8009 91.2211 16.7928 91.3427 16.7917C91.4709 16.7894 91.5976 16.7975 91.7227 16.8161C91.8544 16.8335 91.9643 16.8615 92.0523 16.9001C92.1404 16.9387 92.1902 16.9909 92.2018 17.0565C92.2191 17.155 92.2278 17.2618 92.2278 17.3769C92.2266 17.4854 92.2386 17.5916 92.2637 17.6955C92.2818 17.76 92.3079 17.8502 92.3418 17.966C92.3758 18.0819 92.4181 18.2064 92.4686 18.3397C92.5192 18.4729 92.5686 18.5996 92.6169 18.7197C92.7288 18.9708 92.842 19.2284 92.9562 19.4925C93.0771 19.7555 93.1962 20.0087 93.3135 20.252C93.4298 20.4888 93.5326 20.7076 93.6222 20.9084C93.7183 21.1081 93.7988 21.2767 93.8637 21.4141C93.9216 21.5122 93.9886 21.6426 94.0647 21.8052C94.1461 21.9601 94.1973 22.0966 94.2181 22.2148C94.2737 22.5299 94.1537 22.7135 93.8583 22.7656C93.6416 22.8038 93.4499 22.753 93.2831 22.6132C93.124 22.4788 93.0144 22.2984 92.9541 22.0721C92.9121 21.9103 92.8499 21.7114 92.7677 21.4754C92.692 21.2383 92.6036 20.9865 92.5025 20.72C92.4002 20.4469 92.2907 20.1717 92.1741 19.8944C92.0641 19.616 91.9537 19.3545 91.8429 19.1101C91.7769 18.966 91.707 18.8192 91.6333 18.6698C91.5649 18.5126 91.4951 18.3658 91.4236 18.2295C91.3576 18.0854 91.2912 17.9584 91.2244 17.8483C91.1565 17.7316 91.0997 17.6401 91.0541 17.5737C90.992 17.4899 90.8954 17.4223 90.7645 17.3709C90.6336 17.3195 90.4853 17.2847 90.3196 17.2666ZM89.5067 19.1057C89.6101 19.1551 89.7032 19.203 89.7858 19.2494C89.8739 19.288 89.9869 19.2952 90.1247 19.2709C90.2298 19.2523 90.3899 19.2004 90.605 19.1151C90.8267 19.0286 91.069 18.925 91.332 18.8041C91.6016 18.6821 91.8532 18.5734 92.0869 18.4781C92.2441 18.4098 92.4258 18.3269 92.632 18.2296C92.8448 18.1312 93.0576 18.0328 93.2704 17.9343C93.4886 17.8281 93.679 17.737 93.8416 17.661C94.0096 17.5772 94.128 17.5191 94.1968 17.4866C94.2829 17.4376 94.3628 17.3727 94.4366 17.292C94.5104 17.2113 94.5801 17.1652 94.6458 17.1536C94.7377 17.1374 94.8524 17.1544 94.9898 17.2046C95.1262 17.2483 95.2588 17.3095 95.3878 17.3883C95.5233 17.466 95.6409 17.5569 95.7405 17.6612C95.839 17.7589 95.8969 17.857 95.9143 17.9555C95.9259 18.0212 95.9023 18.0795 95.8436 18.1305C95.7837 18.1749 95.7134 18.2177 95.6327 18.259C95.5585 18.2992 95.502 18.343 95.463 18.3905C95.2949 18.5894 95.0831 18.8467 94.8274 19.1626C94.5717 19.4785 94.2687 19.7756 93.9183 20.054L93.806 19.9926C93.9103 19.7779 94.003 19.555 94.0841 19.3241C94.1653 19.0932 94.2323 18.8783 94.2852 18.6794C94.3436 18.4728 94.3853 18.3064 94.4104 18.1801C94.4209 18.1241 94.4151 18.0913 94.3931 18.0816C94.371 18.0719 94.3349 18.0783 94.2847 18.1007C94.1963 18.1366 94.0773 18.1914 93.9279 18.2652C93.7784 18.3389 93.6104 18.4227 93.4239 18.5165C93.2373 18.6103 93.0448 18.7086 92.8463 18.8113C92.6466 18.9074 92.4535 19.0024 92.2669 19.0962C92.136 19.1599 91.9964 19.2319 91.8481 19.3122C91.7063 19.3914 91.5745 19.4688 91.4524 19.5445C91.3358 19.6124 91.2442 19.6692 91.1778 19.7147C91.0079 19.8259 90.8812 19.9329 90.7977 20.0356C90.7209 20.1372 90.6299 20.1972 90.5249 20.2157C90.4133 20.2354 90.292 20.2196 90.1611 20.1682C90.0302 20.1168 89.9101 20.05 89.8008 19.9677C89.6904 19.8788 89.6112 19.7946 89.5633 19.7151C89.5321 19.6529 89.5039 19.5699 89.4788 19.466C89.4591 19.3544 89.4439 19.2487 89.4331 19.1491L89.5067 19.1057ZM98.7574 14.1541C99.0991 14.1344 99.4521 14.1399 99.8163 14.1704C100.18 14.201 100.523 14.2625 100.844 14.3548C101.165 14.4471 101.432 14.5794 101.645 14.7517C101.857 14.9174 101.986 15.1283 102.031 15.3844C102.062 15.5616 102.03 15.7263 101.935 15.8785C101.84 16.0306 101.697 16.1235 101.507 16.157C101.349 16.1848 101.204 16.1665 101.071 16.102C100.943 16.0297 100.802 15.9192 100.647 15.7705C100.5 15.6272 100.365 15.4986 100.244 15.3847C100.122 15.2707 99.9905 15.1585 99.8492 15.0481C99.7144 14.9364 99.5528 14.8262 99.3644 14.7172C99.1813 14.6006 98.956 14.4744 98.6884 14.3389L98.7574 14.1541ZM106.237 13.8406L106.435 13.9275C106.194 14.7145 105.867 15.4695 105.453 16.1924C105.044 16.9075 104.566 17.5943 104.019 18.2527C103.471 18.9045 102.857 19.5306 102.177 20.131C102.084 20.2152 102.008 20.3063 101.951 20.4044C101.893 20.4959 101.833 20.5776 101.771 20.6494C101.716 20.7201 101.639 20.7641 101.54 20.7815C101.357 20.8139 101.154 20.7955 100.932 20.7264C100.715 20.6495 100.515 20.5494 100.33 20.4262C100.146 20.303 100.01 20.1815 99.9209 20.0618C99.8356 19.9617 99.7581 19.8299 99.6887 19.6661C99.618 19.4958 99.5705 19.3417 99.5462 19.2038L99.6685 19.0909C99.7611 19.1558 99.8654 19.2288 99.9812 19.3099C100.096 19.3844 100.219 19.4474 100.35 19.4988C100.479 19.5436 100.6 19.5562 100.712 19.5365C100.889 19.5052 101.12 19.3967 101.406 19.211C101.697 19.0176 102.018 18.768 102.37 18.4621C102.729 18.1552 103.095 17.8098 103.467 17.426C103.839 17.0421 104.202 16.6431 104.556 16.2287C104.916 15.8132 105.239 15.4008 105.526 14.9915C105.819 14.581 106.056 14.1974 106.237 13.8406ZM108.564 12.6585L108.719 12.56C108.808 12.6392 108.903 12.7172 109.004 12.7941C109.105 12.8644 109.209 12.9204 109.318 12.9621C109.426 12.9973 109.535 13.005 109.647 12.9853C109.778 12.9622 109.944 12.9195 110.142 12.8574C110.348 12.7941 110.563 12.7257 110.787 12.6524C111.017 12.5779 111.241 12.5013 111.457 12.4225C111.679 12.336 111.875 12.2608 112.047 12.1967C112.225 12.1314 112.357 12.0776 112.445 12.0351C112.526 12.0004 112.596 11.9509 112.652 11.8868C112.707 11.8162 112.764 11.7521 112.821 11.6946C112.878 11.6305 112.939 11.5926 113.004 11.581C113.109 11.5625 113.241 11.5799 113.399 11.6332C113.564 11.6854 113.726 11.7584 113.885 11.8523C114.05 11.945 114.19 12.0456 114.304 12.1541C114.423 12.2549 114.489 12.3447 114.503 12.4235C114.52 12.5154 114.495 12.6045 114.429 12.6906C114.361 12.7701 114.287 12.8475 114.206 12.9228C114.123 12.9916 114.067 13.0589 114.038 13.125C113.95 13.3165 113.843 13.5554 113.718 13.8415C113.597 14.1199 113.46 14.415 113.305 14.7266C113.156 15.0305 112.985 15.328 112.792 15.6192C112.61 15.8883 112.386 16.1951 112.122 16.5396C111.863 16.8763 111.56 17.2277 111.211 17.5938C110.863 17.9598 110.456 18.3193 109.99 18.6722C109.523 19.0186 108.992 19.3458 108.396 19.6539L108.251 19.4662C108.675 19.1411 109.087 18.7739 109.489 18.3645C109.889 17.9487 110.269 17.5094 110.627 17.0468C110.991 16.5765 111.317 16.0994 111.604 15.6156C111.897 15.1305 112.148 14.6531 112.356 14.1831C112.563 13.7066 112.709 13.2646 112.793 12.8572C112.823 12.7232 112.776 12.6672 112.651 12.6892C112.555 12.7197 112.416 12.7747 112.234 12.8542C112.057 12.926 111.862 13.0144 111.651 13.1194C111.445 13.2167 111.249 13.3156 111.063 13.4159C110.877 13.5098 110.725 13.5874 110.607 13.6487C110.501 13.7013 110.417 13.7634 110.355 13.8352C110.299 13.8993 110.242 13.9602 110.185 14.0177C110.126 14.0687 110.047 14.1028 109.949 14.1202C109.804 14.1457 109.651 14.1186 109.488 14.039C109.331 13.9583 109.188 13.855 109.057 13.7291C108.926 13.5966 108.83 13.4747 108.769 13.3635C108.718 13.2642 108.675 13.1567 108.641 13.0408C108.606 12.9184 108.58 12.7909 108.564 12.6585ZM112.282 15.6075L112.405 15.3828C112.871 15.4157 113.33 15.4837 113.782 15.5869C114.24 15.6889 114.657 15.8286 115.033 16.0059C115.415 16.1755 115.729 16.3808 115.975 16.6218C116.219 16.8563 116.367 17.1212 116.419 17.4166C116.446 17.5676 116.419 17.7213 116.338 17.8777C116.258 18.0341 116.119 18.1297 115.922 18.1644C115.79 18.1876 115.667 18.1756 115.55 18.1285C115.433 18.0813 115.315 18.0074 115.196 17.9065C115.082 17.798 114.951 17.6688 114.803 17.519C114.589 17.2656 114.37 17.0232 114.146 16.7919C113.923 16.5605 113.664 16.3421 113.371 16.1366C113.077 15.9311 112.715 15.7547 112.282 15.6075ZM120.203 9.73296C120.312 9.6596 120.433 9.58064 120.567 9.49609C120.707 9.40381 120.845 9.34551 120.983 9.3212C121.121 9.29689 121.277 9.29981 121.452 9.32996C121.626 9.3601 121.797 9.40454 121.963 9.46326C122.129 9.52199 122.266 9.59248 122.376 9.67476C122.49 9.74931 122.555 9.82926 122.57 9.91461C122.588 10.0131 122.575 10.0965 122.533 10.1649C122.496 10.2255 122.454 10.2938 122.407 10.3699C122.359 10.446 122.328 10.5564 122.313 10.7012C122.305 10.8109 122.295 10.9447 122.282 11.1027C122.276 11.2595 122.263 11.4344 122.243 11.6275C122.228 11.8129 122.206 12.0164 122.178 12.2381C122.143 12.5014 122.091 12.822 122.022 13.1997C121.952 13.5708 121.841 13.9763 121.688 14.4161C121.541 14.8482 121.336 15.2941 121.071 15.7536C120.813 16.2054 120.479 16.6568 120.071 17.1078C119.662 17.5523 119.161 17.9724 118.567 18.3681L118.408 18.2134C118.905 17.6925 119.311 17.1741 119.627 16.6582C119.948 16.1412 120.204 15.6357 120.395 15.1418C120.584 14.6413 120.729 14.1588 120.83 13.6942C120.931 13.2296 121.002 12.7905 121.045 12.3769C121.072 12.2232 121.089 12.0543 121.097 11.8701C121.111 11.6781 121.122 11.4901 121.13 11.3058C121.137 11.1151 121.14 10.9419 121.14 10.7862C121.138 10.624 121.129 10.497 121.113 10.4051C121.095 10.3 121.071 10.223 121.042 10.1739C121.012 10.1183 120.961 10.0766 120.888 10.0488C120.792 10.0047 120.684 9.96957 120.565 9.94329C120.452 9.91586 120.34 9.89499 120.229 9.88068L120.203 9.73296ZM121.72 15.8018L121.782 15.6384C121.984 15.6705 122.172 15.6983 122.345 15.7219C122.525 15.7443 122.68 15.761 122.811 15.7718C122.947 15.7749 123.055 15.7728 123.135 15.7655C123.262 15.7566 123.356 15.7365 123.419 15.7053C123.48 15.6674 123.533 15.6039 123.578 15.5147C123.67 15.3429 123.741 15.1339 123.792 14.8879C123.843 14.6354 123.88 14.3681 123.905 14.0862C123.935 13.7966 123.953 13.5125 123.958 13.2341C123.963 12.9557 123.959 12.7025 123.946 12.4747C123.933 12.2468 123.915 12.0705 123.893 11.9458C123.878 11.8604 123.834 11.8241 123.762 11.8368C123.624 11.8612 123.459 11.9005 123.265 11.9549C123.078 12.0082 122.883 12.0698 122.678 12.1397C122.479 12.2018 122.281 12.2672 122.083 12.336C121.892 12.4035 121.71 12.466 121.538 12.5236C121.429 12.5629 121.302 12.6091 121.156 12.662C121.009 12.7148 120.857 12.7722 120.699 12.8339C120.547 12.8946 120.398 12.9546 120.253 13.014C120.115 13.0723 119.999 13.1266 119.906 13.1768C119.763 13.2494 119.642 13.3283 119.542 13.4136C119.447 13.4913 119.341 13.5405 119.223 13.5613C119.118 13.5798 118.99 13.5482 118.84 13.4663C118.697 13.3832 118.557 13.2826 118.422 13.1644C118.291 13.0385 118.196 12.9232 118.137 12.8185C118.07 12.7085 118.027 12.5943 118.006 12.4761C117.99 12.3502 117.98 12.2166 117.976 12.0753L118.107 12.0116C118.245 12.1429 118.376 12.2551 118.501 12.3482C118.631 12.4336 118.778 12.4618 118.942 12.4328C119.021 12.4189 119.155 12.3886 119.343 12.3419C119.53 12.2887 119.755 12.2252 120.02 12.1515C120.291 12.0766 120.578 11.9955 120.881 11.9083C121.189 11.8133 121.494 11.7222 121.797 11.635C122.105 11.54 122.398 11.4512 122.674 11.3686C122.956 11.2783 123.2 11.2015 123.405 11.1382C123.495 11.1088 123.569 11.0654 123.626 11.0079C123.689 10.9426 123.746 10.8818 123.797 10.8254C123.853 10.7613 123.914 10.7235 123.98 10.7119C124.059 10.698 124.167 10.7162 124.304 10.7664C124.449 10.8155 124.592 10.8815 124.735 10.9646C124.885 11.0465 125.016 11.1351 125.128 11.2305C125.239 11.3259 125.302 11.4163 125.318 11.5017C125.333 11.587 125.312 11.6617 125.256 11.7258C125.205 11.7822 125.151 11.8457 125.096 11.9164C125.041 11.9871 125.014 12.0865 125.017 12.2147C125.022 12.4372 125.023 12.6942 125.021 12.9857C125.023 13.2696 125.013 13.5727 124.988 13.8952C124.97 14.2165 124.936 14.5374 124.884 14.858C124.832 15.1785 124.764 15.4849 124.68 15.7773C124.62 15.9707 124.526 16.1667 124.398 16.3652C124.269 16.5571 124.123 16.7218 123.957 16.8593C123.791 16.9902 123.609 17.073 123.412 17.1077C123.261 17.1343 123.146 17.1173 123.068 17.0567C122.997 17.0014 122.925 16.8958 122.85 16.7398C122.804 16.6328 122.736 16.5364 122.646 16.4507C122.563 16.3638 122.448 16.269 122.302 16.1662C122.155 16.0635 121.961 15.942 121.72 15.8018Z" fill="#222222"/>
</svg>
