<svg width="90" height="247" viewBox="0 0 90 247" fill="none" xmlns="http://www.w3.org/2000/svg">
<g filter="url(#filter0_d_4202_9889)">
<path d="M65.4707 22.5341L64.7707 22.0301C64.2947 21.6801 64.1687 21.3441 64.1687 20.9661C64.1687 20.3921 64.6307 20.0001 65.1347 20.0001C65.4987 20.0001 65.7647 20.1541 65.9887 20.3081C66.1987 20.6861 66.3107 21.1061 66.3107 21.5401C66.3107 22.8281 65.3727 23.9901 64.0567 24.5641L63.8747 24.2281C64.6727 23.7521 65.1627 23.2901 65.4707 22.5341ZM68.5647 22.5341L67.8647 22.0301C67.3887 21.6801 67.2627 21.3441 67.2627 20.9661C67.2627 20.3921 67.7247 20.0001 68.2427 20.0001C68.5927 20.0001 68.8587 20.1541 69.0827 20.3081C69.3067 20.6861 69.4047 21.1061 69.4047 21.5401C69.4047 22.8281 68.4667 23.9901 67.1507 24.5641L66.9687 24.2281C67.7667 23.7521 68.2567 23.2901 68.5647 22.5341Z" fill="#222222"/>
<path d="M30.5101 33.7641H26.9821L26.8841 33.3721H30.5101V31.7201L32.5961 31.9021C32.5681 32.0841 32.4701 32.2241 32.1061 32.2661V33.3721H34.6261V31.7201L36.7401 31.8881C36.7261 32.0841 36.6141 32.2241 36.2501 32.2661V33.3721H37.6501L38.4761 32.2661C38.4761 32.2661 39.4141 33.0221 39.9601 33.5401C39.9181 33.6941 39.7781 33.7641 39.5821 33.7641H36.2501V34.7021C36.2501 34.8281 35.6341 35.0381 34.8921 35.0381H34.6261V33.7641H32.1061V34.7581C32.1061 34.8841 31.4901 35.1081 30.7761 35.1081H30.5101V33.7641ZM35.6481 40.0361V38.0621H34.1641V40.0361H35.6481ZM31.0841 40.0361H32.5401V38.0621H31.0841V40.0361ZM31.0841 35.7521V37.6701H32.5401V35.7521H31.0841ZM35.6481 35.7521H34.1641V37.6701H35.6481V35.7521ZM39.6941 38.0621H37.2441V40.0361H37.5661L38.3361 39.0701C38.3361 39.0701 39.1761 39.7421 39.7081 40.2181C39.6661 40.3721 39.5261 40.4421 39.3301 40.4421H34.1641V42.1361H37.2861L38.1541 41.0721C38.1541 41.0721 39.1341 41.8001 39.7361 42.3041C39.6941 42.4581 39.5401 42.5281 39.3441 42.5281H34.1641V44.4601C34.1641 44.5441 33.6741 44.8661 32.8341 44.8661H32.5401V42.5281H27.2201L27.1081 42.1361H32.5401V40.4421H27.5981L27.4861 40.0361H29.5161V38.0621H26.9681L26.8561 37.6701H29.5161V35.7521H27.7521L27.6401 35.3601H37.1461L37.9441 34.4081C37.9441 34.4081 38.8261 35.0521 39.3721 35.5281C39.3441 35.6821 39.1901 35.7521 38.9941 35.7521H37.2441V37.6701H37.7481L38.5741 36.6481C38.5741 36.6481 39.4981 37.3481 40.0721 37.8381C40.0441 37.9921 39.8901 38.0621 39.6941 38.0621ZM31.5041 49.6441L31.5741 49.4481C33.0441 49.3081 33.9401 49.7561 34.3741 50.2321C34.6961 50.5821 34.8361 50.9321 34.8361 51.3241C34.8361 51.7301 34.5701 51.9541 34.2061 51.9541C33.9261 51.9541 33.5341 51.8001 33.2541 51.7581C32.7921 51.6741 31.7701 51.6041 30.9721 51.6321C30.6221 51.6461 30.3981 51.7021 30.3981 52.0101C30.3981 52.2901 30.9721 52.9201 31.4481 53.5641C33.3241 52.6821 35.1721 52.0101 36.5721 52.0101C38.4901 52.0101 39.6521 53.1581 39.6521 54.6001C39.6521 56.0561 38.4341 57.1201 36.6001 57.1201C35.3261 57.1201 34.2341 56.3361 33.4221 54.9641L33.6181 54.8241C34.4441 55.5381 35.2981 55.8601 36.3061 55.8601C37.4261 55.8601 38.2521 55.2301 38.2521 54.1521C38.2521 53.2281 37.4401 52.5841 36.5021 52.5841C35.2981 52.5841 33.5901 53.4521 32.0361 54.4461C32.9041 55.8461 33.6601 57.4981 34.0521 58.4781C34.3321 59.1641 34.5981 60.0321 34.5981 60.5641C34.5981 61.1801 34.2761 61.5721 33.7581 61.5721C33.3241 61.5721 33.0861 61.3481 32.9321 60.8021C32.7781 60.3121 32.6661 59.5701 32.4421 58.7301C32.1901 57.8341 31.8121 56.4901 31.0001 55.1321C30.5941 55.4261 30.2021 55.7061 29.8521 55.9721C29.3621 56.3641 29.1381 56.7141 28.6621 56.7141C28.1861 56.7141 27.4441 56.2941 27.1781 55.8881C26.9821 55.5801 26.8981 55.2721 26.9821 54.6281L27.2061 54.5301C27.4441 54.8241 27.7101 55.1041 28.0321 55.1041C28.3681 55.1041 28.8721 54.8241 29.3761 54.5861C29.6981 54.4181 30.0061 54.2641 30.3281 54.0961C30.1321 53.8021 29.9501 53.5501 29.7821 53.3401C29.4601 52.9341 29.1101 52.6681 29.1521 52.1361C29.2081 51.1001 30.1741 51.1561 30.6921 51.1281C31.5041 51.0721 32.3581 50.9881 32.6661 50.9321C32.8621 50.8901 32.9321 50.7921 32.8621 50.5961C32.7221 50.2881 32.2461 49.8961 31.5041 49.6441ZM34.7101 70.7321L34.7801 70.7041C36.2781 70.2141 36.6281 69.8641 36.7681 69.8501C37.3141 69.7941 37.9721 69.9061 37.9721 70.4661C37.9721 70.6621 37.8881 70.9001 37.5521 71.1101C37.0621 71.4181 36.3201 71.7261 35.4381 71.9921C36.4881 73.6021 37.3281 73.9521 37.3281 74.5261C37.3281 75.2121 36.9221 75.8421 36.4601 75.8421C36.0121 75.8421 35.7881 75.5061 34.9621 75.0441C34.4721 74.7501 33.4501 74.3861 32.3441 74.3861C30.9301 74.3861 30.0901 75.0021 30.0901 75.7861C30.0901 76.7941 31.4481 77.0461 32.5961 77.0461C33.8701 77.0461 33.9821 76.8641 34.7941 76.8641C35.3961 76.8641 35.9281 77.0741 35.9281 77.6061C35.9281 78.3341 34.4721 78.5441 32.9601 78.5441C30.7341 78.5441 28.9981 77.6901 28.9981 76.1501C28.9981 74.9041 30.2861 73.7701 32.8061 73.7701C33.8001 73.7701 34.7941 73.9381 35.3261 74.0641C35.4941 74.1061 35.5081 74.0501 35.4381 73.9381C35.2281 73.6021 34.8221 73.0421 34.3601 72.2861C33.2541 72.5381 32.0081 72.7061 30.8041 72.7061C28.8861 72.7061 28.0461 71.2641 29.7961 70.1021L29.9781 70.2421C29.3901 70.9981 29.6141 71.4601 30.8181 71.4601C31.7001 71.4601 32.6661 71.3201 33.6881 71.0401C33.4781 70.6201 33.2541 70.1441 33.0441 69.6541C32.3301 69.7941 31.5741 69.8921 30.8741 69.8921C29.5161 69.8921 28.8721 69.5421 28.2841 68.2121L28.4381 68.0861C29.2221 68.5901 29.6281 68.7581 30.5801 68.7581C31.0981 68.7581 31.8541 68.6321 32.5541 68.4781C32.4561 68.2401 32.3721 68.0161 32.2881 67.8061C32.1341 67.4421 32.0221 67.2881 31.6021 67.1901C31.3641 67.1481 30.9861 67.0921 30.6781 67.0641L30.6221 66.8821C31.0421 66.5041 31.5181 66.2381 32.1061 66.2381C32.8901 66.2381 33.4501 66.3921 33.5341 66.9381C33.5761 67.2181 33.6321 67.7081 33.7301 68.1561C34.8921 67.7921 35.3121 67.3301 35.4661 67.3301C36.0261 67.3301 36.6561 67.4141 36.6561 67.9181C36.6561 68.1141 36.5441 68.3381 36.2501 68.5341C35.8441 68.8141 35.0601 69.1361 34.1221 69.4021C34.2901 69.8641 34.4721 70.2701 34.7101 70.7321ZM36.3901 66.7841L36.5161 66.5881C37.3001 66.8121 37.9581 67.0781 38.3921 67.4841C38.6861 67.7501 38.7981 68.0021 38.7841 68.2681C38.7841 68.5621 38.5741 68.7721 38.2661 68.7721C38.0421 68.7721 37.8461 68.5761 37.6221 68.2401C37.3701 67.8621 37.0341 67.3441 36.3901 66.7841ZM37.6781 65.9861L37.7901 65.8041C38.6021 65.9721 39.2321 66.1961 39.6241 66.4761C39.9881 66.7561 40.1141 67.0361 40.1141 67.3441C40.1141 67.6521 39.9461 67.8481 39.6521 67.8481C39.3861 67.8481 39.2181 67.6241 38.9521 67.2881C38.7001 66.9521 38.4061 66.5601 37.6781 65.9861ZM38.6721 85.9401C38.4481 85.9401 38.2661 85.7441 38.0421 85.4081C37.7761 85.0301 37.4261 84.5261 36.7681 83.9661L36.8941 83.7841C37.6781 83.9801 38.3501 84.2321 38.7841 84.6381C39.0921 84.9041 39.1901 85.1561 39.1901 85.4221C39.1901 85.7161 38.9801 85.9401 38.6721 85.9401ZM39.9461 84.8761C39.6661 84.8761 39.5121 84.6661 39.2461 84.3161C38.9941 83.9941 38.7001 83.5881 37.9581 83.0141L38.0841 82.8321C38.8821 83.0001 39.5261 83.2241 39.9181 83.5181C40.2821 83.7841 40.4081 84.0641 40.4081 84.3861C40.4081 84.6801 40.2401 84.8761 39.9461 84.8761ZM28.4941 85.1141C28.8721 85.5061 29.2221 85.8561 29.7541 85.8561C30.8741 85.8561 34.3741 85.4781 35.1301 85.3101C35.7181 85.1841 35.7461 84.9601 36.1381 84.9601C36.7961 84.9601 38.2801 86.2621 38.2801 86.7661C38.2801 87.2421 37.7621 87.3961 37.5381 87.8441C35.8441 91.2601 33.2821 93.9061 28.7181 95.3621L28.5641 95.0961C32.3861 93.0941 35.1581 89.6361 35.8441 86.5561C35.8721 86.4441 35.8161 86.4021 35.7181 86.4021C34.7661 86.4021 31.7001 87.0601 30.9021 87.2701C30.5801 87.3541 30.2301 87.6341 29.9081 87.6341C29.2781 87.6341 28.5081 86.7101 28.3681 86.1781C28.2841 85.8281 28.2841 85.5621 28.2841 85.1981L28.4941 85.1141ZM28.8581 105.068C28.7461 104.746 28.7181 104.48 28.7461 104.144L28.9421 104.046C29.3481 104.48 29.6281 104.732 30.1741 104.732C31.0141 104.732 34.5281 104.298 35.6061 104.102C36.1241 104.004 36.3201 103.71 36.6421 103.71C37.2301 103.71 38.4341 104.676 38.4341 105.25C38.4341 105.628 37.7901 105.838 37.4821 106.412C36.1661 108.862 33.8421 111.242 29.6841 112.446L29.5301 112.166C32.9881 110.36 35.1301 107.616 35.9001 105.362C35.9701 105.18 35.9001 105.124 35.7461 105.124C35.0041 105.166 32.1621 105.712 31.2801 105.978C30.8741 106.104 30.6081 106.37 30.2861 106.37C29.6981 106.37 28.9841 105.502 28.8581 105.068ZM36.7821 101.596C36.7821 101.876 36.6281 102.072 36.1801 102.17C35.0601 102.436 33.0021 102.8 31.8121 102.8C30.9161 102.8 30.4541 102.268 29.9501 101.232L30.0901 101.12C30.6781 101.484 31.1821 101.526 31.6441 101.526C32.6941 101.526 33.5201 101.274 34.1081 101.12C34.8081 100.924 35.0041 100.728 35.2141 100.728C36.1661 100.728 36.7821 101.022 36.7821 101.596ZM31.7841 117.938L31.7701 117.714C32.1061 117.546 32.4981 117.336 32.9461 117.336C33.7721 117.336 34.7241 117.98 34.7241 118.316C34.7241 118.694 34.4581 118.736 34.3881 119.156C34.3461 119.408 34.3041 119.8 34.2901 120.164C35.0321 120.108 35.8161 120.066 36.3061 119.996C36.5861 119.968 36.8381 119.534 37.1461 119.534C37.7481 119.534 38.9521 120.612 38.9521 121.06C38.9521 121.424 38.4201 121.648 38.2801 122.026C36.8381 125.596 34.6961 128.032 30.5941 129.572L30.4121 129.32C33.6321 127.43 35.8301 124.532 36.5021 121.228C36.5581 120.99 36.5161 120.934 36.3061 120.948C33.6041 121.06 31.7701 121.41 31.3501 121.41C31.1261 121.41 30.9581 121.326 30.7201 121.144C30.7761 121.928 30.9301 124.252 30.9301 124.77C30.9301 125.246 30.6781 125.47 30.2861 125.47C29.7121 125.484 29.2641 124.644 29.2501 124.084C29.2501 123.93 29.3061 123.692 29.3201 123.426C29.3341 122.936 29.1801 121.438 28.9981 120.934C28.8161 120.388 28.5221 120.08 28.1581 119.66L28.2841 119.45C28.8301 119.562 29.5301 119.786 30.0061 120.08C30.2441 120.22 30.3981 120.318 30.5101 120.43C31.2661 120.402 32.1201 120.318 32.8341 120.262C32.8341 119.814 32.8201 119.212 32.8061 118.834C32.7921 118.526 32.7781 118.372 32.5541 118.232C32.3301 118.106 32.0641 118.022 31.7841 117.938ZM29.2921 136.072L29.5161 135.988C29.8381 136.38 30.2301 136.786 30.7061 136.786C31.6861 136.786 34.1221 136.324 34.7941 136.156C35.1301 136.086 35.3821 135.666 35.6761 135.666C36.2781 135.666 37.5661 136.758 37.5661 137.22C37.5661 137.612 36.8941 137.836 36.7401 138.074C36.2501 138.76 35.5361 139.964 34.6261 140.972C36.9221 141.658 38.9801 142.988 38.9801 144.556C38.9801 144.99 38.6581 145.48 38.0981 145.48C37.5381 145.48 37.1741 145.06 36.7121 144.318C36.0821 143.254 35.5361 142.246 34.2341 141.378C32.9461 142.694 30.7761 144.654 27.3461 145.704L27.1781 145.424C30.4821 143.716 33.9261 140.132 35.0601 137.388C35.1441 137.192 35.0601 137.122 34.9061 137.136C34.3601 137.178 32.5821 137.71 31.8821 137.948C31.4061 138.116 31.2521 138.452 30.8461 138.452C30.2161 138.452 29.5581 137.626 29.3901 137.108C29.2921 136.814 29.2641 136.464 29.2921 136.072Z" fill="#F37C9D"/>
<path d="M28.0941 151.808L28.2381 151.76C28.4541 152.072 28.7181 152.372 29.0301 152.372C29.7501 152.372 31.4781 151.928 33.5901 151.412C34.8621 151.1 36.1341 150.8 36.5061 150.8C36.8661 150.8 37.2261 150.848 37.5381 150.992C37.8621 151.136 38.1021 151.364 38.1021 151.688C38.1021 151.988 37.8501 152.24 37.4541 152.24C37.1421 152.24 36.7341 152.192 36.3981 152.192C35.8581 152.192 35.1261 152.228 34.4781 152.696C34.0581 152.996 33.0621 153.98 33.0621 155.996C33.0621 157.4 33.6621 157.844 34.0941 158.072C34.7661 158.432 35.7381 158.372 36.0861 158.372C36.4941 158.372 37.0221 158.768 37.0221 159.224C37.0221 159.788 36.3981 159.92 35.8581 159.92C34.9221 159.92 34.0461 159.8 33.3021 159.32C32.4741 158.804 31.9341 157.976 31.9341 156.44C31.9341 154.712 32.7381 153.224 34.0941 152.3C34.2021 152.24 34.1901 152.168 34.0581 152.192C32.6421 152.516 30.9981 153.104 30.2661 153.536C30.0141 153.68 29.7621 153.956 29.4261 153.956C28.8621 153.956 28.0221 153.164 27.9981 152.576C27.9741 152.288 28.0461 152 28.0941 151.808ZM36.7461 152.948L36.8541 152.792C37.5381 152.936 38.0901 153.128 38.4261 153.38C38.7261 153.608 38.8461 153.836 38.8461 154.124C38.8461 154.388 38.7021 154.544 38.4381 154.544C38.2101 154.544 38.0781 154.364 37.8381 154.064C37.6221 153.788 37.3821 153.44 36.7461 152.948ZM35.6541 153.74L35.7741 153.584C36.4341 153.764 37.0101 153.992 37.3821 154.34C37.6341 154.568 37.7181 154.784 37.7181 155.012C37.7181 155.264 37.5261 155.456 37.2621 155.456C37.0701 155.444 36.9141 155.276 36.7221 154.988C36.5061 154.664 36.2061 154.22 35.6541 153.74ZM30.5541 165.58H29.4981V170.188H30.5541V165.58ZM30.5541 170.524H29.4981V171.928C29.4981 172.072 28.9581 172.372 28.4061 172.372H28.1901V164.668L29.5461 165.244H30.4341L31.0701 164.548L32.3421 165.556C32.2701 165.652 32.1021 165.748 31.8621 165.808V171.232C31.8501 171.34 31.2381 171.64 30.7701 171.64H30.5541V170.524ZM38.7621 168.916H35.9661C36.6621 170.476 37.9701 171.724 39.2661 172.336L39.2301 172.468C38.7141 172.588 38.3061 173.02 38.1021 173.716C36.9381 172.672 36.1941 171.088 35.7621 168.976V174.244C35.7621 174.364 35.1621 174.64 34.6101 174.64H34.3221V171.124C33.3261 172.348 31.9341 173.32 30.1461 174.028L30.0381 173.884C31.9221 172.696 33.2301 170.848 33.8781 168.916H32.0661L31.9701 168.568H34.3221V166.372H32.2221L32.1261 166.048H34.3221V163.54L36.2061 163.732C36.1701 163.9 36.0861 164.02 35.7621 164.068V166.048H36.6621L37.4301 165.004C37.4301 165.004 38.2701 165.712 38.7741 166.18C38.7381 166.312 38.6061 166.372 38.4381 166.372H35.7621V168.568H36.9621L37.7301 167.524C37.7301 167.524 38.5821 168.244 39.0981 168.724C39.0621 168.856 38.9421 168.916 38.7621 168.916ZM30.2061 177.408L32.1381 177.996C32.0781 178.152 31.9341 178.26 31.6701 178.248C31.2981 179.22 30.8661 180.108 30.3741 180.9L31.0581 181.14C31.0221 181.248 30.9141 181.332 30.6861 181.38V188.292C30.6621 188.388 30.0861 188.7 29.5341 188.7H29.2701V182.4C28.8381 182.904 28.3701 183.348 27.8781 183.732L27.7221 183.636C28.7181 182.136 29.7141 179.76 30.2061 177.408ZM31.9101 182.1L32.0181 182.028C35.6901 183.3 34.5621 186.012 33.2421 184.968C33.0861 183.996 32.4621 182.88 31.9101 182.1ZM37.3101 180.612L38.0061 179.568C38.0061 179.568 38.8101 180.288 39.2541 180.756C39.2301 180.888 39.0981 180.948 38.9301 180.948H37.1901V186.876C37.1901 187.908 36.9381 188.496 35.0901 188.664C35.0301 188.172 34.9341 187.836 34.6941 187.608C34.4181 187.38 34.0701 187.212 33.2661 187.08V186.912C33.2661 186.912 35.0421 187.02 35.3901 187.02C35.6421 187.02 35.7141 186.948 35.7141 186.768V180.948H31.3221L31.2261 180.612H35.7141V177.588L37.6221 177.768C37.5981 177.948 37.4901 178.056 37.1901 178.092V180.612H37.3101ZM31.3941 196.748L31.6461 196.856C31.4061 197.624 31.1421 198.572 31.0221 199.112C30.9741 199.376 30.9261 199.58 30.9261 199.916C30.9261 200.36 31.1421 200.768 31.1421 201.212C31.1421 201.608 30.9141 201.836 30.4941 201.836C30.1581 201.836 29.8461 201.572 29.5821 201.116C29.2701 200.564 28.9221 199.664 28.9221 198.332C28.9221 196.652 29.6301 195.164 29.6301 193.868C29.6301 193.304 29.3181 192.8 28.9941 192.44L29.1021 192.308C29.5221 192.404 29.7861 192.512 30.0741 192.692C30.4461 192.932 31.1181 193.616 31.1181 194.276C31.1181 194.624 30.9501 194.912 30.6981 195.344C30.2421 196.172 29.8341 197.12 29.8341 198.068C29.8341 198.428 29.8941 198.776 30.0141 198.98C30.0981 199.148 30.2181 199.16 30.3261 199.004C30.6261 198.548 31.0941 197.492 31.3941 196.748ZM34.2381 192.896L34.2141 192.716C34.5741 192.476 35.0301 192.272 35.3541 192.272C35.9301 192.272 36.8541 192.68 36.8541 193.112C36.8541 193.316 36.7101 193.508 36.6861 193.928C36.6741 194.144 36.6741 194.42 36.6741 194.708C36.8421 194.66 36.9861 194.6 37.1181 194.54C37.5261 194.36 37.6341 194.276 37.7061 194.276C38.1741 194.276 38.6541 194.54 38.6541 194.924C38.6541 195.176 38.5341 195.38 38.1381 195.56C37.8381 195.704 37.3221 195.86 36.7221 196.004C36.7941 197.288 36.9021 198.98 36.5181 199.988C35.9661 201.5 34.6821 202.124 33.0261 202.544L32.9301 202.352C34.1661 201.68 34.9701 200.876 35.3301 199.364C35.5701 198.476 35.5461 197.312 35.4981 196.232C35.1141 196.28 34.7301 196.316 34.3821 196.316C33.6381 196.316 32.7261 196.124 32.1741 194.732L32.2941 194.612C32.9661 195.02 33.5061 195.212 34.1181 195.212C34.5021 195.212 34.9701 195.152 35.4501 195.044C35.4141 194.528 35.3781 194.012 35.3421 193.676C35.3061 193.4 35.2341 193.292 35.0781 193.208C34.8381 193.052 34.5621 192.98 34.2381 192.896ZM36.0381 208.972L36.1341 208.768C36.7341 208.804 37.0461 208.864 37.3461 209.032C37.7661 209.272 38.2941 209.872 38.2941 210.34C38.2941 210.7 37.9341 210.688 37.3341 210.856C36.5181 211.084 35.3181 211.492 34.3341 211.888C34.3941 212.548 34.4061 213.232 34.4061 213.664C34.4061 214.084 34.1781 214.396 33.7581 214.396C33.3981 214.396 33.0861 214.192 33.0861 213.712C33.0861 213.4 33.1221 212.956 33.1461 212.452C32.1381 212.992 31.3341 213.664 31.3341 214.3C31.3341 214.78 31.7901 215.14 32.9541 215.14C34.7421 215.14 35.4501 214.732 35.9181 214.732C36.5061 214.732 37.0461 214.876 37.0461 215.392C37.0461 215.74 36.9021 215.932 36.4701 216.076C35.9061 216.244 34.7661 216.388 33.7581 216.388C31.4061 216.388 30.6621 215.548 30.6621 214.492C30.6621 213.46 31.9461 212.416 33.1581 211.648C33.1461 210.688 33.0141 210.352 32.4501 210.352C31.8381 210.352 31.0941 211.204 30.6861 211.732C30.2421 212.272 29.8701 213.028 29.4141 213.052C28.9941 213.064 28.8141 212.704 28.8021 212.212C28.7901 211.804 29.1981 211.564 29.6661 211.084C30.3141 210.436 30.8541 209.68 31.2501 208.984C30.9261 209.02 30.6141 209.032 30.2901 209.032C29.3421 209.032 29.1021 208.408 28.7781 207.46L28.9461 207.364C29.3661 207.7 29.7861 208.036 30.6141 208.012C30.9741 208 31.3941 207.94 31.8141 207.868C31.9581 207.52 32.0541 207.232 32.0901 207.064C32.1501 206.872 32.1381 206.716 31.9341 206.584C31.7541 206.464 31.5141 206.368 31.2021 206.26L31.2141 206.092C31.4901 205.972 31.8621 205.84 32.1021 205.84C32.6061 205.84 33.5901 206.008 33.5901 206.428C33.5901 206.596 33.4941 206.692 33.3741 206.92L33.0381 207.568C33.4461 207.448 33.8061 207.328 34.0581 207.22C34.4541 207.052 34.5741 206.896 34.7301 206.896C35.1741 206.896 35.5341 207.028 35.5341 207.46C35.5341 207.628 35.4381 207.82 35.1141 207.988C34.7181 208.192 33.6501 208.588 32.3661 208.828C32.1381 209.212 31.8501 209.692 31.4421 210.256C31.3821 210.34 31.4301 210.388 31.5261 210.328C31.9461 210.052 32.3421 209.86 32.8221 209.86C33.5541 209.86 34.0341 210.304 34.2141 211.048C35.0421 210.616 36.0141 210.16 36.5421 209.848C36.7581 209.728 36.7821 209.596 36.6261 209.404C36.5061 209.26 36.2541 209.092 36.0381 208.972Z" fill="#222222"/>
<path d="M50.8821 32.4361L51.0741 32.3641C51.3501 32.7001 51.6861 33.0481 52.0941 33.0481C52.9341 33.0481 55.0221 32.6521 55.5981 32.5081C55.8861 32.4481 56.1021 32.0881 56.3541 32.0881C56.8701 32.0881 57.9741 33.0241 57.9741 33.4201C57.9741 33.7561 57.3981 33.9481 57.2661 34.1521C56.8461 34.7401 56.2341 35.7721 55.4541 36.6361C57.4221 37.2241 59.1861 38.3641 59.1861 39.7081C59.1861 40.0801 58.9101 40.5001 58.4301 40.5001C57.9501 40.5001 57.6381 40.1401 57.2421 39.5041C56.7021 38.5921 56.2341 37.7281 55.1181 36.9841C54.0141 38.1121 52.1541 39.7921 49.2141 40.6921L49.0701 40.4521C51.9021 38.9881 54.8541 35.9161 55.8261 33.5641C55.8981 33.3961 55.8261 33.3361 55.6941 33.3481C55.2261 33.3841 53.7021 33.8401 53.1021 34.0441C52.6941 34.1881 52.5621 34.4761 52.2141 34.4761C51.6741 34.4761 51.1101 33.7681 50.9661 33.3241C50.8821 33.0721 50.8581 32.7721 50.8821 32.4361ZM50.4141 46.6641L50.3901 46.5081C50.7021 46.3281 51.1461 46.0641 51.4701 46.0641C52.2141 46.0641 53.1981 46.7841 53.1981 47.1561C53.1981 47.4681 52.8621 47.7321 52.8261 48.0921C52.7421 48.7281 52.5861 51.3681 52.5861 52.5321C52.5861 52.6881 52.6461 52.7601 52.7781 52.7241C54.5901 52.2201 57.8061 50.2041 59.6781 48.4041L59.8461 48.5721C58.3221 50.9001 55.9941 52.7001 53.4141 54.1281C52.9581 54.3921 52.9821 54.7401 52.5861 54.7401C52.1301 54.7401 51.1461 53.7321 51.1461 53.3001C51.1461 53.0241 51.4221 52.7961 51.4461 52.4481C51.5181 51.3801 51.4941 48.3441 51.4341 47.4441C51.3981 47.0361 51.3381 46.9401 50.4141 46.6641ZM50.4861 60.3641L50.6061 60.1601C52.2621 60.3521 54.2421 61.0481 54.2421 62.3081C54.2421 62.7401 53.9181 63.1121 53.4501 63.1121C53.0541 63.1121 52.8021 62.8961 52.5021 62.4761C51.9261 61.6841 51.6381 61.2281 50.4861 60.3641ZM51.8061 66.9281C53.1021 66.9281 57.8181 63.6521 59.5341 61.3481L59.7621 61.5041C58.4061 64.1321 56.2221 66.2441 53.4381 67.9481C53.0421 68.2001 52.8861 68.5961 52.5381 68.5961C51.8421 68.5961 51.0021 67.8761 50.7501 67.3961C50.6061 67.1081 50.4861 66.6401 50.4981 66.2921L50.6541 66.1841C50.9421 66.4721 51.3621 66.9281 51.8061 66.9281ZM56.7021 75.9241C56.7621 75.7561 56.7021 75.6961 56.5461 75.6961C56.2461 75.7081 55.3221 75.9001 54.9861 76.0201C54.7341 76.1041 54.5421 76.1761 54.3021 76.1761C54.1941 76.1761 54.0261 76.0801 53.8581 75.9481C53.4741 76.4401 53.0421 76.9201 52.5741 77.3881C53.3541 77.5921 54.4341 77.9281 55.3221 78.3841C55.9221 77.5441 56.4021 76.7041 56.7021 75.9241ZM52.4421 73.5481L52.4781 73.3921C52.7061 73.3321 52.9221 73.2841 53.3181 73.3081C54.1341 73.3321 55.0461 73.8481 55.0461 74.1601C55.0461 74.4121 54.9021 74.4601 54.6861 74.7841C54.5901 74.9281 54.4941 75.0841 54.3861 75.2401C54.9141 75.2041 56.1981 75.0001 56.4981 74.9041C56.7981 74.8081 57.0141 74.5081 57.2781 74.5081C57.6381 74.5081 58.7901 75.2401 58.7901 75.7321C58.7901 76.0441 58.2861 76.1881 58.1181 76.4761C57.5901 77.4121 57.0141 78.2641 56.3901 79.0561C57.0021 79.5121 57.4581 80.0401 57.4821 80.6281C57.4941 81.0841 57.2061 81.3961 56.7981 81.3961C56.2701 81.4201 56.1261 81.0121 55.4421 80.1241C53.9661 81.6241 52.1301 82.8001 49.6701 83.6041L49.5381 83.3641C51.5421 82.3561 53.3421 80.8201 54.6741 79.2121C53.9541 78.4561 53.1981 78.0361 52.3221 77.6281C51.4941 78.3961 50.5581 79.0921 49.5501 79.5721L49.4061 79.3561C51.2421 77.7961 53.1141 75.0481 53.1141 74.2681C53.1141 74.0401 52.8261 73.7641 52.4421 73.5481ZM57.2301 73.2841L57.3501 73.1281C57.9621 73.2841 58.5141 73.4641 58.8741 73.7881C59.1381 74.0161 59.2341 74.2081 59.2581 74.4721C59.2701 74.7001 59.1021 74.8801 58.8381 74.8921C58.6461 74.9041 58.4781 74.7481 58.2741 74.4841C58.0341 74.1481 57.7941 73.7881 57.2301 73.2841ZM58.2741 72.5641L58.3821 72.3961C59.0901 72.5401 59.5341 72.6601 59.8941 72.9001C60.1941 73.1161 60.3501 73.3441 60.3501 73.6321C60.3621 73.8961 60.2061 74.0761 59.9541 74.0761C59.7261 74.0881 59.5701 73.8961 59.3421 73.6201C59.1141 73.3441 58.9101 73.0681 58.2741 72.5641ZM52.7181 87.7641V87.6081C52.9821 87.4881 53.4261 87.3321 53.8341 87.3321C54.5421 87.3321 55.5621 87.9921 55.5621 88.4121C55.5621 88.7481 55.3221 89.0001 55.2501 89.4321C55.1781 89.8641 55.1541 90.9081 55.1541 91.7481C55.1541 92.4681 55.2021 95.3481 55.2021 96.0921C55.2021 96.6441 55.0221 97.0041 54.4341 97.0041C53.8101 97.0041 53.5581 96.2121 53.5581 95.5401C53.5581 95.2161 53.6661 94.6881 53.7141 94.1241C53.7741 93.3681 53.7981 92.1561 53.7981 91.4481C53.7981 90.4521 53.7861 89.2761 53.7261 88.6641C53.6781 88.1241 53.2701 87.9561 52.7181 87.7641ZM56.0541 103.444V103.228C56.7381 103 57.4461 103.024 57.9261 103.168C58.7421 103.42 59.2581 103.96 59.2581 104.632C59.2581 105.028 59.1261 105.316 58.7421 105.316C58.2621 105.316 57.9381 104.932 57.2661 104.956C56.9181 104.968 56.5461 105.1 56.3661 105.352C56.1981 105.604 56.2341 106.024 56.2941 106.492C56.3421 106.828 56.4741 107.428 56.5701 108.064C57.1941 108.208 57.6741 108.448 58.0701 108.664C58.8381 109.072 59.3781 109.564 59.3781 110.116C59.3781 110.596 59.1021 110.788 58.8141 110.788C58.4541 110.788 58.2741 110.452 57.8061 110.044C57.5061 109.768 57.1581 109.492 56.7261 109.264C56.7381 109.408 56.7381 109.552 56.7381 109.696C56.7381 110.764 55.9101 111.34 54.5301 111.34C53.1981 111.34 52.4181 110.656 52.4181 109.768C52.4181 108.796 53.3661 107.896 55.1301 107.896C55.2501 107.896 55.3701 107.896 55.4781 107.908C55.4661 107.536 55.4541 107.164 55.4541 106.84C55.4541 106.084 55.5861 105.556 55.9341 105.136C56.4021 104.572 57.0021 104.344 57.3861 104.14C57.4341 104.044 57.3861 103.948 57.2661 103.84C57.0021 103.624 56.5821 103.48 56.0541 103.444ZM55.5141 109.156V108.808C55.1781 108.736 54.8181 108.7 54.4221 108.7C53.4381 108.7 52.9941 109.156 52.9941 109.528C52.9941 109.924 53.3181 110.224 54.1581 110.224C55.0221 110.224 55.5141 109.84 55.5141 109.156ZM51.6021 101.308V101.128C51.8301 101.02 52.2621 100.888 52.5981 100.888C53.0661 100.888 53.4741 101.02 53.7261 101.212C53.9661 101.392 53.8461 101.776 53.5101 102.784C54.3621 102.496 54.6381 102.28 54.7941 102.28C55.0701 102.28 55.4181 102.472 55.4181 102.868C55.4181 103.132 55.2621 103.288 55.0581 103.42C54.6501 103.684 53.8821 103.936 53.0781 104.104C52.6701 105.316 51.9621 107.356 51.0621 108.784C50.7501 109.264 50.5221 109.588 50.1741 109.588C49.7661 109.588 49.5261 109.18 49.5261 108.772C49.5261 108.472 49.5981 108.244 49.8261 107.98C50.6181 107.032 51.4221 105.808 51.9501 104.284C51.6501 104.32 51.3741 104.332 51.1221 104.332C50.1141 104.332 49.6581 104.02 49.3341 102.676L49.5021 102.58C50.0061 102.964 50.3901 103.252 51.1581 103.252C51.5061 103.252 51.9261 103.192 52.2861 103.12C52.3701 102.748 52.4181 102.412 52.4301 102.136C52.4301 101.884 52.3341 101.74 52.1301 101.584C51.9261 101.428 51.7221 101.356 51.6021 101.308ZM57.9261 117.708C57.7341 117.708 57.5661 117.552 57.3741 117.264C57.1461 116.928 56.8221 116.448 56.2821 115.908L56.4141 115.764C57.0861 115.98 57.6741 116.22 58.0341 116.58C58.2861 116.82 58.3821 117.024 58.3821 117.264C58.3821 117.516 58.1901 117.708 57.9261 117.708ZM59.1741 116.688C58.9341 116.688 58.7901 116.496 58.5621 116.196C58.3461 115.908 58.0581 115.536 57.4461 114.996L57.5661 114.84C58.2621 115.008 58.8141 115.236 59.1501 115.5C59.4381 115.728 59.5821 115.968 59.5821 116.244C59.5821 116.508 59.4261 116.688 59.1741 116.688ZM52.6941 117.132C52.2261 116.7 51.7941 116.364 51.4101 116.124L51.4821 115.92C51.8781 115.932 52.4421 115.968 53.1861 116.124C54.0141 116.34 54.7341 116.748 54.7341 117.516C54.7341 117.852 54.4701 118.164 54.1341 118.164C53.5461 118.164 53.3301 117.708 52.6941 117.132ZM51.5301 123.408C52.9341 123.408 57.4701 120.276 59.5101 117.828L59.7141 117.96C58.5261 120.396 55.8141 122.868 53.1861 124.416C52.7901 124.656 52.6341 125.052 52.2141 125.052C51.6981 125.052 50.8941 124.5 50.5341 123.96C50.3421 123.648 50.2461 123.084 50.2461 122.748L50.4021 122.676C50.6541 122.94 51.0621 123.408 51.5301 123.408ZM51.2421 119.748C50.7021 119.22 50.2461 118.86 49.8861 118.644L49.9581 118.44C50.4501 118.476 50.9301 118.524 51.5661 118.68C52.4301 118.884 53.2701 119.364 53.2701 120.108C53.2701 120.396 53.1261 120.78 52.6221 120.78C52.0461 120.78 51.8061 120.252 51.2421 119.748ZM53.7501 130.592L53.7381 130.484C54.0261 130.352 54.2661 130.22 54.6621 130.22C55.0701 130.22 55.9821 130.436 55.9821 130.748C55.9821 130.964 55.8861 131.24 55.9101 131.492C55.9221 131.636 55.9701 131.924 56.0181 132.236C56.8341 132.02 57.8901 131.72 58.1781 131.636C58.4061 131.552 58.6101 131.348 58.7661 131.348C59.1981 131.348 60.0741 132.068 60.0741 132.536C60.0741 132.788 59.6301 132.812 59.4621 132.944C59.0061 133.34 58.2501 134.06 57.3501 134.552L57.2181 134.468C57.6981 133.784 58.1181 132.932 58.2861 132.488C58.3341 132.368 58.2741 132.344 58.1541 132.368C57.8061 132.44 56.9781 132.692 56.1741 132.932C56.4621 134.156 56.8341 135.476 57.0141 136.112C57.0861 136.364 57.2541 136.832 57.2541 137.108C57.2541 137.48 57.0861 137.672 56.7141 137.672C56.1981 137.672 55.8501 137.228 55.8141 136.688C55.7421 135.944 55.4901 134.456 55.1781 133.244C54.8061 133.376 54.4461 133.52 54.2541 133.592C53.8221 133.796 53.6541 134.036 53.3901 134.036C52.9941 134.036 52.5021 133.58 52.3821 133.268C52.3221 133.124 52.3101 132.836 52.3461 132.584L52.4301 132.548C52.6581 132.716 52.7781 132.872 53.1141 132.872C53.4261 132.872 54.2301 132.68 54.9861 132.488C54.8301 131.924 54.6621 131.372 54.5301 131.108C54.4101 130.88 54.1101 130.724 53.7501 130.592ZM50.4861 144.364L50.6061 144.16C52.2621 144.352 54.2421 145.048 54.2421 146.308C54.2421 146.74 53.9181 147.112 53.4501 147.112C53.0541 147.112 52.8021 146.896 52.5021 146.476C51.9261 145.684 51.6381 145.228 50.4861 144.364ZM51.8061 150.928C53.1021 150.928 57.8181 147.652 59.5341 145.348L59.7621 145.504C58.4061 148.132 56.2221 150.244 53.4381 151.948C53.0421 152.2 52.8861 152.596 52.5381 152.596C51.8421 152.596 51.0021 151.876 50.7501 151.396C50.6061 151.108 50.4861 150.64 50.4981 150.292L50.6541 150.184C50.9421 150.472 51.3621 150.928 51.8061 150.928ZM50.8821 158.436L51.0741 158.364C51.3501 158.7 51.6861 159.048 52.0941 159.048C52.9341 159.048 55.0221 158.652 55.5981 158.508C55.8861 158.448 56.1021 158.088 56.3541 158.088C56.8701 158.088 57.9741 159.024 57.9741 159.42C57.9741 159.756 57.3981 159.948 57.2661 160.152C56.8461 160.74 56.2341 161.772 55.4541 162.636C57.4221 163.224 59.1861 164.364 59.1861 165.708C59.1861 166.08 58.9101 166.5 58.4301 166.5C57.9501 166.5 57.6381 166.14 57.2421 165.504C56.7021 164.592 56.2341 163.728 55.1181 162.984C54.0141 164.112 52.1541 165.792 49.2141 166.692L49.0701 166.452C51.9021 164.988 54.8541 161.916 55.8261 159.564C55.8981 159.396 55.8261 159.336 55.6941 159.348C55.2261 159.384 53.7021 159.84 53.1021 160.044C52.6941 160.188 52.5621 160.476 52.2141 160.476C51.6741 160.476 51.1101 159.768 50.9661 159.324C50.8821 159.072 50.8581 158.772 50.8821 158.436ZM55.3221 173.9L56.7261 173.732C57.0621 173.708 57.2421 173.348 57.5061 173.348C57.8781 173.348 58.9341 174.176 58.9341 174.572C58.9341 174.908 58.4901 174.908 58.4301 175.364C58.2741 176.396 57.9381 178.172 57.2901 179.48C56.9421 180.164 56.2101 180.812 55.5021 180.812C55.1181 180.812 55.0101 180.656 54.9021 180.248C54.7941 179.84 54.5301 179.576 53.7621 178.892L53.8701 178.712C54.5781 178.976 55.1661 179.12 55.4541 179.144C55.7541 179.18 55.8741 179.132 56.0301 178.94C56.7021 178.04 57.1341 175.568 57.1341 174.8C57.1341 174.692 57.0861 174.656 57.0021 174.656C56.5101 174.656 55.7421 174.764 55.0341 174.872C54.5421 176.468 53.3541 179.612 49.5021 181.28L49.3461 181.076C51.9021 179.156 52.9581 176.96 53.5581 175.124C53.0661 175.208 52.5141 175.328 52.1901 175.436C51.8181 175.544 51.5901 175.736 51.2901 175.736C50.9061 175.736 50.3061 175.04 50.1501 174.62C50.0301 174.344 50.0541 174.068 50.1261 173.708L50.2941 173.66C50.5581 174.032 50.7861 174.332 51.2061 174.332C51.4941 174.332 52.6341 174.212 53.8581 174.068C54.0141 173.444 54.1581 172.736 54.1581 172.412C54.1701 172.148 54.1341 172.04 53.9661 171.932C53.7621 171.788 53.4861 171.68 53.2461 171.584L53.2341 171.416C53.5101 171.284 53.9181 171.08 54.2541 171.08C54.9261 171.08 56.0181 171.716 56.0181 172.124C56.0181 172.496 55.6821 172.496 55.5501 173C55.4901 173.228 55.4181 173.528 55.3221 173.9ZM52.1181 190.12L52.3821 190.24C52.1541 190.888 51.7581 192.016 51.6381 192.448C51.5301 192.928 51.4821 193.18 51.4821 193.372C51.4821 193.804 51.7221 194.212 51.7221 194.572C51.7221 195.016 51.4941 195.268 51.0981 195.268C50.7981 195.268 50.5101 195.052 50.2821 194.716C49.8381 194.116 49.5381 193.108 49.5381 191.716C49.5381 190.636 49.8741 189.196 50.0661 188.476C50.2221 187.888 50.3421 187.408 50.3421 186.868C50.3421 186.304 50.0301 185.788 49.7181 185.428L49.8381 185.308C50.2461 185.392 50.4981 185.5 50.7981 185.692C51.1701 185.932 51.8301 186.616 51.8301 187.276C51.8301 187.612 51.6381 187.852 51.3741 188.404C50.9181 189.208 50.4381 190.42 50.4381 191.62C50.4381 191.98 50.4741 192.28 50.5581 192.448C50.6301 192.628 50.7501 192.64 50.8701 192.46C51.1581 192.028 51.7941 190.732 52.1181 190.12ZM56.3181 192.688V192.664C55.9101 192.556 55.4901 192.508 55.0461 192.508C54.3741 192.508 53.7261 192.796 53.7261 193.3C53.7261 193.744 54.2421 193.924 54.8061 193.924C56.0181 193.924 56.3181 193.516 56.3181 192.688ZM55.0221 185.956L54.9861 185.764C55.2861 185.56 55.7541 185.284 56.0781 185.284C56.8941 185.284 57.6501 185.716 57.6501 186.052C57.6501 186.34 57.5181 186.448 57.4461 186.88C57.4101 187.06 57.3741 187.336 57.3381 187.672C58.1541 187.408 58.4541 187.204 58.5261 187.204C58.9701 187.204 59.4621 187.42 59.4621 187.792C59.4621 188.188 59.2581 188.284 58.7061 188.5C58.4421 188.608 57.9021 188.752 57.2661 188.884C57.2541 189.052 57.2541 189.208 57.2541 189.376C57.2541 190.384 57.3381 191.212 57.4101 191.884C58.3941 192.148 59.0301 192.628 59.4261 193.012C59.6901 193.276 59.8221 193.54 59.8221 193.804C59.8221 194.224 59.6061 194.452 59.2821 194.452C59.0061 194.452 58.8261 194.26 58.4181 193.888C58.1181 193.612 57.8181 193.384 57.5181 193.192V193.252C57.5181 194.404 56.7861 194.992 55.1781 194.992C54.0981 194.992 53.1381 194.428 53.1381 193.396C53.1381 192.196 54.3501 191.68 55.7301 191.68C55.9221 191.68 56.1021 191.692 56.2701 191.704C56.2341 191.008 56.1861 190.12 56.1741 189.352V189.052C55.7901 189.1 55.4061 189.124 55.0461 189.124C54.2781 189.124 53.6661 189.028 53.0781 187.672L53.2101 187.552C53.8101 187.948 54.3501 188.104 54.8421 188.104C55.3341 188.104 55.7901 188.056 56.1741 187.972L56.1861 186.796C56.1861 186.268 56.0901 186.244 55.8861 186.16C55.6221 186.052 55.3101 186.004 55.0221 185.956Z" fill="#222222"/>
<path d="M23.9341 223.706L24.6341 224.21C25.1101 224.56 25.2361 224.896 25.2361 225.274C25.2361 225.848 24.7741 226.24 24.2701 226.24C23.9061 226.24 23.6401 226.086 23.4161 225.932C23.2061 225.554 23.0941 225.134 23.0941 224.7C23.0941 223.412 24.0321 222.25 25.3481 221.676L25.5301 222.012C24.7321 222.488 24.2421 222.95 23.9341 223.706ZM20.8401 223.706L21.5401 224.21C22.0161 224.56 22.1421 224.896 22.1421 225.274C22.1421 225.848 21.6801 226.24 21.1621 226.24C20.8121 226.24 20.5461 226.086 20.3221 225.932C20.0981 225.554 20.0001 225.134 20.0001 224.7C20.0001 223.412 20.9381 222.25 22.2541 221.676L22.4361 222.012C21.6381 222.488 21.1481 222.95 20.8401 223.706Z" fill="#222222"/>
</g>
<defs>
<filter id="filter0_d_4202_9889" x="0" y="0" width="89.9221" height="246.24" filterUnits="userSpaceOnUse" color-interpolation-filters="sRGB">
<feFlood flood-opacity="0" result="BackgroundImageFix"/>
<feColorMatrix in="SourceAlpha" type="matrix" values="0 0 0 0 0 0 0 0 0 0 0 0 0 0 0 0 0 0 127 0" result="hardAlpha"/>
<feOffset/>
<feGaussianBlur stdDeviation="10"/>
<feComposite in2="hardAlpha" operator="out"/>
<feColorMatrix type="matrix" values="0 0 0 0 1 0 0 0 0 1 0 0 0 0 1 0 0 0 1 0"/>
<feBlend mode="normal" in2="BackgroundImageFix" result="effect1_dropShadow_4202_9889"/>
<feBlend mode="normal" in="SourceGraphic" in2="effect1_dropShadow_4202_9889" result="shape"/>
</filter>
</defs>
</svg>
